<?xml version="1.0" encoding="UTF-8"?>
<svg width="78px" height="17px" viewBox="0 0 78 17" version="1.1" xmlns="http://www.w3.org/2000/svg" xmlns:xlink="http://www.w3.org/1999/xlink">
    <title>gnav-onlineshop</title>
    <g id="Symbols" stroke="none" stroke-width="1" fill="none" fill-rule="evenodd">
        <g id="contents/gnav" transform="translate(-266.000000, 0.000000)" fill="#111111" fill-rule="nonzero">
            <path d="M276.506,13.674 C277.067,13.674 277.203,13.215 277.203,13.062 C277.169,12.399 277.152,11.158 277.135,9.849 L279.43,9.849 C279.43,10.546 279.43,11.175 279.413,11.634 C279.396,12.093 279.175,12.246 278.716,12.246 C278.41,12.246 278.002,12.178 277.492,12.093 C277.441,12.076 277.407,12.076 277.373,12.076 C277.339,12.076 277.322,12.093 277.322,12.11 C277.322,12.229 278.41,12.824 278.648,13.283 C278.75,13.47 278.818,13.521 278.971,13.521 C279.396,13.521 280.62,13.198 280.62,11.889 L280.62,11.855 C280.62,11.549 280.552,10.937 280.552,10.58 C280.552,10.1363 280.53823,9.37589 280.535476,8.596202 L280.535714,7.46369626 C280.540175,5.8969346 280.572517,5.81355172 280.807,5.667 C281.011,5.548 281.181,5.429 281.181,5.276 C281.181,4.817 279.974,4.256 279.855,4.256 C279.719,4.256 279.481,4.562 279.345,4.749 C279.294,4.817 279.209,4.902 279.107,4.902 L277.305,4.902 C277.373,4.783 277.424,4.647 277.424,4.494 C277.424,4.341 277.373,4.171 277.254,4.001 C277.815,3.78 278.529,3.423 278.903,3.287 C279.26,3.151 279.532,3.1 279.787,3.083 C280.144,3.066 280.297,2.896 280.297,2.709 C280.297,2.267 279.124,1.434 278.937,1.434 C278.852,1.434 278.801,1.485 278.444,1.842 C278.359,1.927 278.257,1.978 278.121,1.978 L276.309582,1.97723662 C275.505025,1.97234903 273.856684,1.93952632 272.29,1.757 C272.29,1.978 272.749,2.539 273.004,2.539 L273.021,2.539 C274.449,2.42 275.486,2.42 276.642,2.42 L277.985,2.42 C278.087,2.42 278.121,2.471 278.121,2.522 C278.121,2.624 277.577,3.304 277.084,3.797 C276.778,3.491 275.707,3.1 274.704,3.049 C274.585,3.049 274.517,3.066 274.517,3.1 C274.517,3.117 274.551,3.151 274.619,3.202 C275.061,3.508 275.724,4.052 276.115,4.664 C276.183,4.766 276.234,4.834 276.302,4.902 L274.126,4.902 C273.667,4.596 272.63,4.188 272.528,4.188 C272.494,4.188 272.477,4.205 272.477,4.239 C272.477,4.273 272.494,4.307 272.494,4.341 C272.613,4.885 272.681,6.228 272.681,6.449 C272.698,6.993 272.698,7.758 272.698,8.625 C272.698,10.07 272.681,11.77 272.579,13.147 L272.579,13.198 C272.579,13.521 272.834,13.657 273.106,13.657 C273.395,13.657 273.854,13.47 273.854,13.045 L273.854,13.028 C273.837,12.093 273.82,10.954 273.82,9.849 L276.03,9.849 L275.962,13.113 L275.962,13.13 C275.962,13.504 276.217,13.674 276.506,13.674 Z M270.556,4.596 C270.947,4.596 271.253,4.256 271.253,3.831 C271.253,2.471 268.635,2.08 267.989,2.08 C267.887,2.08 267.836,2.097 267.836,2.131 C267.836,2.165 267.87,2.216 267.955,2.267 C268.465,2.624 269.264,3.304 269.723,4.018 C269.995,4.443 270.301,4.596 270.556,4.596 Z M279.43,7.197 L277.101,7.197 C277.101,6.789 277.118,6.432 277.118,6.126 C277.118,5.837 277.152,5.786 277.305,5.701 C277.424,5.633 277.509,5.548 277.509,5.48 C277.509,5.429 277.475,5.378 277.39,5.344 L279.192,5.344 C279.379,5.344 279.413,5.463 279.413,5.565 C279.43,5.922 279.43,6.5 279.43,7.197 Z M276.013,7.197 L273.82,7.197 L273.820486,6.80973757 C273.824242,5.56978828 273.853261,5.50365217 274.024,5.395 L274.075,5.344 L275.945,5.344 C275.996,5.769 276.013,6.602 276.013,6.84 L276.013,7.197 Z M279.43,9.424 L277.118,9.424 C277.118,8.812 277.101,8.2 277.101,7.639 L279.43,7.639 L279.43,9.424 Z M276.03,9.424 L273.803,9.424 L273.803,7.639 L276.03,7.639 L276.03,9.424 Z M268.057,15.969 C268.227,15.969 268.244,15.646 268.295,15.578 C269.026,14.745 269.995,13.64 270.386,13.045 C270.76,14.405 272.018,15.493 273.939,15.782 C274.755,15.901 275.673,15.952 276.574,15.952 C278.665,15.952 280.654,15.714 280.79,15.68 C280.977,15.646 281.113,15.51 281.181,15.374 C281.504,14.694 282.643,13.929 282.643,13.793 C282.643,13.776 282.626,13.776 282.592,13.776 C282.558,13.776 282.507,13.793 282.422,13.81 C280.501,14.388 277.679,14.694 275.486,14.694 C274.211,14.694 270.76,14.609 270.76,12.586 L270.76,11.94 C270.76,11.158 270.777,10.24 270.845,9.628 C270.879,9.254 271.032,9.271 271.304,9.135 C271.474,9.05 271.661,8.948 271.661,8.778 C271.661,8.353 270.301,7.69 270.165,7.69 C270.097,7.69 270.029,7.707 269.604,8.183 C269.536,8.268 269.434,8.336 269.332,8.336 L269.128,8.336 C268.788,8.336 267.615,8.183 267.02,8.098 C267.02,8.336 267.496,8.999 267.768,8.999 L267.785,8.999 C268.108,8.982 268.822,8.812 269.111,8.812 L269.349,8.812 C269.468,8.812 269.553,8.88 269.553,8.999 L269.553,9.611 C269.553,12.484 269.536,12.875 269.264,13.079 C268.482,13.691 267.394,14.303 266.646,14.473 C266.561,14.49 266.527,14.524 266.527,14.558 C266.527,14.779 267.904,15.969 268.057,15.969 Z M290.207,16.19 C290.734,16.19 291.057,15.833 291.057,15.425 C291.030556,14.6448889 291.024679,13.6693827 291.023373,12.6424568 L291.023987,10.9355493 C291.02844,9.16597778 291.049067,7.43726667 291.108,6.347 C291.125,5.956 291.125,5.905 291.397,5.786 C291.635,5.684 291.771,5.565 291.771,5.446 C291.771,5.225 290.972,5.072 290.751,5.038 C291.244,4.358 291.72,3.627 292.179,2.845 C292.349,2.556 292.417,2.488 292.638,2.437 C293.029,2.352 293.199,2.233 293.199,2.097 C293.199,1.74 291.448,0.975 291.278,0.975 C291.227,0.975 291.244,1.026 291.227,1.128 C290.989,2.879 288.558,7.078 286.926,8.71 C286.79,8.846 286.722,8.948 286.722,8.982 C286.722,8.999 286.722,9.016 286.739,9.016 C286.773,9.016 288.116,8.319 289.918,6.126 L289.918,7.129 C289.918,9.441 289.782,13.13 289.595,15.459 L289.595,15.544 C289.595,16.003 289.884,16.19 290.207,16.19 Z M294.151,2.879 C295.018,2.794 296.208,2.726 296.752,2.726 L300.56,2.726 C300.849,2.726 300.917,2.607 300.917,2.505 C300.917,2.182 299.829,1.247 299.455,1.247 C299.166,1.247 298.69,1.995 298.588,2.165 C298.537,2.25 298.435,2.301 298.384,2.301 L296.684,2.301 C296.123,2.301 294.593,2.25 293.505,2.063 C293.505,2.318 293.896,2.879 294.134,2.879 L294.151,2.879 Z M292.587,5.208 C293.811,5.072 295.664,5.055 296.31,5.055 L302.294,5.055 C302.583,5.055 302.668,4.97 302.668,4.868 C302.668,4.613 301.716,3.712 301.138,3.508 C301.104,3.491 301.07,3.491 301.036,3.491 C300.764,3.491 300.152,4.443 300.118,4.494 C300.067,4.579 299.948,4.63 299.897,4.63 L296.225,4.63 C295.545,4.63 293.522,4.579 291.907,4.392 C291.907,4.596 292.349,5.208 292.57,5.208 L292.587,5.208 Z M294.219,7.316 C295.086,7.231 296.276,7.163 296.82,7.163 L300.475,7.163 C300.747,7.163 300.832,7.061 300.832,6.942 C300.832,6.687 299.761,5.735 299.387,5.735 C299.2,5.735 298.741,6.279 298.554,6.602 C298.503,6.687 298.401,6.738 298.35,6.738 L296.735,6.738 C296.174,6.738 294.865,6.687 293.556,6.5 C293.556,6.789 293.998,7.316 294.202,7.316 L294.219,7.316 Z M294.219,9.543 C295.137,9.424 296.276,9.39 296.82,9.39 L300.475,9.39 C300.747,9.39 300.832,9.288 300.832,9.169 C300.832,8.744 299.574,7.962 299.404,7.962 C299.064,7.962 298.571,8.795 298.554,8.829 C298.503,8.914 298.401,8.965 298.35,8.965 L296.735,8.965 C296.174,8.965 294.814,8.931 293.556,8.727 C293.556,8.982 293.981,9.543 294.202,9.543 L294.219,9.543 Z M294.083,16.224 C294.423,16.224 294.882,16.02 294.882,15.663 L294.882,15.646 L294.865,14.915 L299.387,14.915 C299.387,15.153 299.37,15.391 299.37,15.646 L299.37,15.663 C299.37,16.02 299.642,16.173 299.948,16.173 C300.254,16.173 300.73,15.969 300.73,15.561 L300.73,15.527 C300.662,14.507 300.611,13.47 300.611,12.807 C300.611,12.144 300.611,12.127 300.934,11.923 C301.138,11.787 301.291,11.668 301.291,11.532 C301.291,11.141 300.016,10.529 299.829,10.529 C299.642,10.529 299.285,11.022 299.251,11.056 C299.183,11.158 299.115,11.175 299.03,11.175 L295.273,11.175 C295.273,11.158 295.256,11.158 295.256,11.158 L295.222,11.158 C294.814,10.886 293.675,10.41 293.471,10.41 C293.454,10.41 293.437,10.427 293.437,10.444 C293.437,10.478 293.454,10.495 293.454,10.546 C293.59,11.141 293.641,12.382 293.641,12.603 C293.641,13.436 293.641,14.099 293.505,15.68 L293.505,15.731 C293.505,16.088 293.777,16.224 294.083,16.224 Z M299.387,14.473 L294.865,14.473 C294.865,14.167 294.848,13.861 294.848,13.538 L294.848432,12.9822461 C294.851453,11.8531406 294.875625,11.840125 295.069,11.736 L295.205,11.634 L299.183,11.634 C299.319,11.634 299.387,11.736 299.387,11.855 C299.404,12.144 299.421,12.45 299.421,12.79 C299.421,13.283 299.404,13.844 299.387,14.473 Z M309.535,12.178 C309.892,12.178 310.3,11.906 310.3,11.498 L310.3,11.243 L312.34,11.243 L312.34,11.481 C312.34,11.872 312.578,12.042 312.85,12.042 C313.377,12.042 313.581,11.634 313.581,11.345 L313.581,11.311 C313.513,9.832 313.462,6.857 313.462,4.868 C313.462,4.239 313.462,3.712 313.479,3.355 C313.496,2.998 313.496,2.998 313.768,2.794 C313.955,2.658 314.108,2.556 314.108,2.403 C314.108,2.046 312.969,1.417 312.731,1.417 C312.612,1.417 312.561,1.502 312.221,1.944 C312.153,2.046 312.051,2.08 311.983,2.08 L310.691,2.08 L310.64,2.046 C310.402,1.859 309.144,1.264 308.991,1.264 C308.957,1.264 308.94,1.281 308.94,1.315 C308.94,1.349 308.957,1.366 308.957,1.417 C309.076,1.978 309.144,3.083 309.144,6.432 C309.144,8.081 309.127,9.968 309.025,11.566 L309.025,11.634 C309.025,12.008 309.263,12.178 309.535,12.178 Z M313.87,16.071 C314.227,16.071 316.76,15.595 318.851,12.909 C320.058,14.881 321.452,15.731 321.656,15.731 C321.724,15.731 321.792,15.697 321.843,15.646 C322.353,15.119 323.679,15 323.679,14.881 C323.679,14.864 323.645,14.83 323.56,14.813 C321.758,14.252 320.432,13.232 319.48,12.008 C320.364,10.631 320.993,8.999 321.384,7.282 C321.452,7.01 321.537,7.061 321.758,6.942 C321.962,6.84 322.047,6.721 322.047,6.602 C322.047,6.262 320.823,5.497 320.585,5.497 C320.534,5.497 320.364,5.599 320.177,5.888 C320.126,5.956 320.041,6.024 319.922,6.024 L316.352,6.024 C316.352,5.361 316.352,4.715 316.335,4.103 L316.335,3.576 C316.352,3.321 316.369,3.219 316.743,2.981 L322.455,2.981 C322.727,2.981 322.812,2.879 322.812,2.777 C322.812,2.369 321.605,1.383 321.231,1.383 C321.078,1.383 320.857,1.672 320.381,2.403 C320.33,2.488 320.211,2.539 320.16,2.539 L316.794,2.539 L316.709,2.488 C316.063,2.063 315.111,1.638 314.941,1.638 C314.907,1.638 314.89,1.655 314.89,1.689 C314.89,1.723 314.89,1.757 314.907,1.808 C315.128,2.777 315.196,5.242 315.196,6.704 C315.196,10.155 314.805,13.657 312.612,15.561 C312.374,15.765 312.289,15.884 312.289,15.935 C312.289,15.952 312.289,15.969 312.323,15.969 C312.408,15.969 312.595,15.867 312.833,15.731 C315.808,13.844 316.301,9.951 316.352,6.483 L317.015,6.483 C317.117,8.353 317.559,10.257 318.341,11.923 C317.321,13.657 315.944,15.017 314.329,15.714 C313.972,15.867 313.785,15.986 313.785,16.037 C313.785,16.054 313.819,16.071 313.87,16.071 Z M312.391,4.97 L310.283,4.97 L310.283644,4.16733236 C310.28751,2.79434694 310.314571,2.73814286 310.504,2.607 C310.538,2.573 310.572,2.556 310.606,2.539 L312.187,2.539 C312.323,2.539 312.357,2.641 312.357,2.76 C312.374,3.253 312.391,4.052 312.391,4.97 Z M312.374,7.588 L310.283,7.588 C310.283,6.823 310.266,6.075 310.266,5.412 L312.391,5.412 C312.391,6.092 312.374,6.84 312.374,7.588 Z M318.817,11.039 C317.967,9.594 317.491,7.962 317.253,6.483 L319.939,6.483 C320.058,6.483 320.126,6.517 320.126,6.636 C320.126,7.197 319.599,9.441 318.817,11.039 Z M312.34,10.784 L310.3,10.784 C310.3,9.934 310.283,8.982 310.283,8.03 L312.374,8.03 C312.374,9.016 312.357,9.968 312.34,10.784 Z M313.122,14.303 C313.428,14.303 313.7,14.031 313.7,13.657 C313.7,12.552 311.456,12.195 311.388,12.195 C311.337,12.195 311.286,12.212 311.286,12.246 C311.286,12.28 311.337,12.348 311.422,12.416 C312.034,12.926 312.357,13.402 312.578,13.878 C312.731,14.184 312.935,14.303 313.122,14.303 Z M307.461,16.071 C307.699,16.071 309.263,15.272 310.674,13.708 C310.827,13.538 310.878,13.487 310.997,13.487 L311.184,13.487 C311.422,13.487 311.524,13.436 311.524,13.317 C311.524,12.96 310.113,12.229 310.011,12.229 C309.977,12.229 309.96,12.263 309.943,12.331 C309.552,13.81 308.073,15.408 307.614,15.799 C307.478,15.918 307.41,16.003 307.41,16.037 C307.41,16.054 307.427,16.071 307.461,16.071 Z M330.869,6.041 C332.28,5.99 334.388,5.854 335.272,5.854 L341.103,5.854 C341.375,5.854 341.443,5.752 341.443,5.65 C341.443,5.344 340.321,4.307 339.879,4.307 C339.743,4.307 339.573,4.443 338.944,5.276 C338.893,5.361 338.791,5.429 338.689,5.429 L336.479,5.429 L336.479,3.525 L342.293,3.525 C342.582,3.525 342.65,3.423 342.65,3.304 C342.65,2.981 341.494,1.842 341.035,1.842 C340.984,1.842 340.933,1.859 340.882,1.893 C340.61,2.114 340.27,2.658 340.066,2.947 C340.015,3.032 339.896,3.1 339.794,3.1 L336.479,3.1 C336.479,2.675 336.496,2.352 336.496,2.301 C336.513,1.808 336.598,1.893 336.904,1.706 C337.108,1.587 337.21,1.468 337.21,1.366 C337.21,0.873 335.119,0.686 335.068,0.686 C335.034,0.686 335.017,0.703 335.017,0.72 C335.017,0.754 335.034,0.788 335.051,0.873 C335.153,1.434 335.204,2.097 335.221,2.845 L335.221,3.1 L334.354,3.1 C333.402,3.1 330.716,3.032 329.067,2.828 C329.067,3.049 329.543,3.712 329.832,3.712 L329.849,3.712 C331.277,3.559 333.368,3.525 334.286,3.525 L335.221,3.525 L335.221,5.429 C334.184,5.429 331.634,5.361 330.087,5.157 C330.087,5.378 330.563,6.041 330.852,6.041 L330.869,6.041 Z M329.288,10.359 C330.138,10.359 330.971,9.356 331.056,7.979 L340.508,7.979 C340.559,7.979 340.61,8.013 340.61,8.081 C340.61,8.421 339.539,9.9 339.369,10.138 C339.318,10.206 339.301,10.24 339.301,10.274 C339.301,10.291 339.318,10.308 339.352,10.308 C339.386,10.308 339.437,10.291 339.488,10.257 C340.304,9.832 341.613,8.812 342.276,8.744 C342.803,8.693 343.024,8.54 343.024,8.336 C343.024,7.724 341.562,6.959 341.375,6.959 C341.239,6.959 341.086,7.061 340.763,7.435 C340.695,7.503 340.576,7.554 340.491,7.554 L331.056,7.554 C331.022,6.925 330.852,6.415 330.767,6.415 C330.716,6.415 330.665,6.5 330.631,6.67 C330.478,7.605 329.985,8.2 329.101,8.88 C328.727,9.169 328.574,9.475 328.574,9.73 C328.574,10.087 328.863,10.359 329.288,10.359 Z M339.301,15.918 C342.667,15.918 343.194,15.153 343.194,14.66 C343.194,14.439 343.058,14.235 342.786,14.065 C342.327,13.793 342.31,11.719 342.208,11.719 C342.191,11.719 342.157,11.77 342.14,11.889 C341.919,13.096 341.732,14.49 340.899,14.643 C340.389,14.745 339.896,14.779 339.454,14.779 C337.650786,14.779 337.55477,14.5893112 337.550212,13.5240055 L337.55,13.402 C337.55,12.28 337.601,10.767 337.635,10.206 C337.652,9.883 337.686,9.798 337.856,9.73 C338.06,9.645 338.213,9.509 338.213,9.39 C338.213,9.05 336.581,8.812 336.343,8.812 C336.275,8.812 336.258,8.812 336.258,8.846 C336.258,8.863 336.275,8.914 336.292,8.965 C336.379429,9.50414286 336.391918,10.0557755 336.393703,10.502137 L336.394,10.716 C336.394,11.073 336.36,12.348 336.326,14.031 L336.326,14.099 C336.326,15.493 337.329,15.918 339.301,15.918 Z M328.234,16.377 C328.353,16.377 328.506,16.36 328.744,16.326 C332.552,15.816 334.541,13.759 334.711,10.291 C334.728,9.798 334.796,9.781 335.017,9.662 C335.17,9.577 335.255,9.475 335.255,9.39 C335.255,8.982 333.589,8.846 333.436,8.846 C333.351,8.846 333.317,8.846 333.317,8.914 L333.317,8.965 C333.368,9.271 333.419,9.577 333.419,10.155 C333.385,13.028 331.651,15.255 328.625,16.088 C328.285,16.19 328.064,16.275 328.064,16.326 C328.064,16.36 328.132,16.377 328.234,16.377 Z" id="通信販売"></path>
        </g>
    </g>
</svg>