<?xml version="1.0" encoding="UTF-8"?>
<svg width="57px" height="17px" viewBox="0 0 57 17" version="1.1" xmlns="http://www.w3.org/2000/svg" xmlns:xlink="http://www.w3.org/1999/xlink">
    <title>gnav-gallery</title>
    <g id="Symbols" stroke="none" stroke-width="1" fill="none" fill-rule="evenodd">
        <g id="contents/gnav" transform="translate(-184.000000, 0.000000)" fill="#111111" fill-rule="nonzero">
            <path d="M184.221,15.714 C184.34,15.714 188.403,13.674 188.403,5.106 L188.403,4.953 L196.325,4.953 L196.325,5.259 C196.325,5.633 196.597,5.786 196.92,5.786 C197.039,5.786 197.736,5.701 197.736,5.123 L197.736,5.089 C197.702,4.732 197.617,3.882 197.617,3.44 C197.617,3.032 197.668,2.964 198.008,2.811 C198.263,2.675 198.416,2.539 198.416,2.386 C198.416,1.995 197.056,1.247 196.852,1.247 C196.784,1.247 196.648,1.315 196.24,1.825 C196.189,1.893 196.07,1.995 195.951,1.995 L188.811,1.995 L188.76,1.944 C188.403,1.74 187.077,1.145 186.754,1.145 C186.72,1.145 186.72,1.162 186.72,1.196 C186.72,1.213 186.72,1.264 186.737,1.315 C186.907,1.944 187.077,3.865 187.077,5.718 C187.077,8.863 186.584,12.994 184.476,15.289 C184.272,15.51 184.187,15.629 184.187,15.68 C184.187,15.697 184.204,15.714 184.221,15.714 Z M196.342,4.511 L188.403,4.511 C188.403,4.222 188.403,3.967 188.386,3.729 C188.369,3.491 188.369,3.287 188.369,3.151 C188.369,2.743 188.42,2.692 188.828,2.42 L196.053,2.42 C196.24,2.42 196.342,2.505 196.342,2.675 C196.359,2.845 196.359,3.151 196.359,3.474 C196.359,3.814 196.359,4.171 196.342,4.511 Z M188.063,16.343 C188.199,16.343 188.267,16.139 188.403,16.105 C190.46,15.476 192.942,14.558 194.319,13.844 C195.917,15.833 197.991,16.207 198.127,16.207 C198.229,16.207 198.314,16.156 198.399,16.071 C198.858,15.595 200.337,15.204 200.337,15.068 C200.337,15.051 200.303,15.034 200.218,15.034 C197.566,14.847 195.883,14.133 194.761,13.096 C195.645,12.977 196.818,12.739 197.311,12.603 C197.362,12.586 197.396,12.586 197.43,12.586 C197.515,12.586 197.583,12.62 197.685,12.654 C197.821,12.705 197.923,12.722 198.008,12.722 C198.161,12.722 198.246,12.654 198.246,12.535 C198.246,12.314 197.209,11.005 197.005,11.005 C196.971,11.005 196.954,11.039 196.92,11.09 C196.478,11.804 195.526,12.331 194.489,12.841 C193.928,12.263 193.537,11.583 193.197,10.869 L198.756,10.869 C199.028,10.869 199.113,10.767 199.113,10.665 C199.113,10.257 197.957,9.305 197.583,9.305 C197.481,9.305 197.226,9.458 196.648,10.308 C196.597,10.393 196.478,10.461 196.376,10.461 L194.965,10.461 C194.948,9.9 194.948,9.067 194.948,8.319 L197.821,8.319 C198.093,8.319 198.161,8.2 198.161,8.098 C198.161,7.724 197.073,6.806 196.716,6.806 C196.597,6.806 196.512,6.857 195.849,7.741 C195.798,7.826 195.713,7.894 195.611,7.894 L194.948,7.894 C194.948,7.52 194.965,7.197 194.982,6.959 C195.016,6.415 195.033,6.5 195.322,6.33 C195.492,6.228 195.611,6.126 195.611,6.024 C195.611,5.667 193.86,5.429 193.656,5.429 C193.639,5.429 193.622,5.446 193.622,5.463 C193.622,5.48 193.639,5.514 193.656,5.582 C193.809,6.16 193.826,6.959 193.826,7.571 L193.826,7.894 L191.769,7.894 C191.769,7.537 191.786,7.197 191.803,6.959 C191.837,6.415 191.854,6.5 192.143,6.33 C192.313,6.228 192.432,6.126 192.432,6.024 C192.432,5.667 190.681,5.429 190.477,5.429 C190.46,5.429 190.443,5.446 190.443,5.463 C190.443,5.48 190.46,5.514 190.477,5.582 C190.63,6.16 190.647,6.959 190.647,7.571 L190.664,7.843 C189.933,7.809 189.117,7.741 188.369,7.656 C188.369,7.86 188.828,8.472 189.117,8.472 L189.134,8.472 C189.678,8.421 190.188,8.37 190.664,8.353 C190.664,8.965 190.664,9.764 190.647,10.41 C189.729,10.376 188.709,10.308 187.859,10.206 C187.859,10.41 188.318,11.039 188.607,11.039 L188.624,11.039 C189.117,10.988 189.661,10.954 190.171,10.937 C190.222,11.209 190.222,11.532 190.222,12.229 C190.239,12.722 190.239,13.113 190.239,13.453 C190.239,13.81 190.239,14.133 190.222,14.49 C188.488,14.762 188.488,14.762 187.06,14.762 C187.009,14.762 186.975,14.762 186.975,14.796 C186.975,15.051 187.842,16.343 188.063,16.343 Z M193.826,10.461 L192.619,10.461 C192.398,10.461 192.126,10.444 191.786,10.444 C191.769,9.9 191.769,9.084 191.769,8.319 C192.075,8.319 192.347,8.302 192.602,8.302 L193.843,8.319 C193.843,8.948 193.843,9.798 193.826,10.461 Z M191.378,14.269 C191.378,13.844 191.361,13.504 191.361,13.215 C191.361,11.481 191.412,11.379 191.565,11.311 C191.735,11.243 191.837,11.141 191.837,11.056 C191.837,10.988 191.803,10.937 191.684,10.886 C192.007,10.886 192.313,10.869 192.551,10.869 L192.891,10.869 C193.146,11.906 193.588,12.858 194.166,13.64 C193.384,13.861 192.398,14.065 191.378,14.269 Z M208.207,3.389 C209.703,3.236 211.607,3.202 212.542,3.202 L217.795,3.202 C218.084,3.202 218.169,3.1 218.169,2.998 C218.169,2.709 217.2,1.655 216.605,1.451 C216.571,1.451 216.52,1.434 216.486,1.434 C216.18,1.434 215.534,2.42 215.415,2.624 C215.364,2.709 215.262,2.777 215.16,2.777 L212.627,2.777 C211.658,2.777 209.074,2.709 207.357,2.505 C207.357,2.726 207.867,3.389 208.19,3.389 L208.207,3.389 Z M211.454,16.054 C212.287,16.054 213.63,15.476 213.63,14.116 L213.63,14.082 C213.560937,12.673125 213.547988,12.016168 213.54556,11.1810513 L213.545645,9.68722044 C213.547418,8.90614222 213.554067,8.2238 213.579,7.962 C213.613,7.571 213.596,7.571 213.851,7.452 C214.004,7.384 214.089,7.282 214.089,7.214 C214.089,7.146 214.021,7.078 213.919,7.027 L213.766,6.976 L219.801,6.976 C220.09,6.976 220.175,6.874 220.175,6.755 C220.175,6.483 219.155,5.378 218.577,5.174 C218.543,5.174 218.492,5.157 218.458,5.157 C218.118,5.157 217.404,6.313 217.353,6.398 C217.302,6.483 217.183,6.534 217.081,6.534 L211.352,6.534 C210.383,6.534 207.459,6.483 205.742,6.279 C205.742,6.5 206.286,7.163 206.609,7.163 L206.626,7.163 C208.122,7.01 210.332,6.976 211.267,6.976 L212.236,6.976 C212.321,7.401 212.355,8.302 212.355,11.294 C212.355,12.433 212.338,13.538 212.321,13.929 C212.304,14.439 211.947,14.66 211.097,14.66 C210.621,14.66 209.975,14.592 209.142,14.456 C209.057,14.439 209.006,14.439 208.955,14.439 C208.921,14.439 208.904,14.439 208.904,14.456 C208.904,14.575 210.757,15.306 211.046,15.782 C211.165,15.986 211.267,16.054 211.454,16.054 Z M204.875,14.609 C204.977,14.609 207.425,13.589 209.499,10.393 C209.618,10.206 209.686,10.138 209.89,10.138 C210.247,10.121 210.4,10.019 210.4,9.883 C210.4,9.543 208.717,8.71 208.479,8.71 C208.462,8.71 208.411,8.71 208.411,8.897 C208.411,10.155 206.218,13.283 205.096,14.303 C204.926,14.456 204.841,14.558 204.841,14.592 C204.841,14.609 204.858,14.609 204.875,14.609 Z M219.274,13.759 C219.665,13.759 219.988,13.385 219.988,12.892 C219.988,11.158 215.874,9.033 215.33,9.033 C215.296,9.033 215.262,9.05 215.262,9.084 C215.262,9.118 215.33,9.186 215.432,9.288 C216.537,10.223 217.778,11.787 218.322,12.926 C218.611,13.521 218.968,13.759 219.274,13.759 Z M228.096,10.24 C228.215,10.24 228.334,10.053 228.504,10.036 C231.105,9.679 234.199,9.322 236.953,8.676 C237.293,8.999 237.565,9.305 237.769,9.594 C238.041,9.985 238.33,10.155 238.585,10.155 C238.959,10.155 239.248,9.832 239.248,9.424 C239.248,7.843 235.236,6.993 234.947,6.993 C234.896,6.993 234.862,7.01 234.862,7.044 C234.862,7.078 234.896,7.129 234.998,7.18 C235.542,7.52 236.12,7.945 236.613,8.37 C234.896,8.523 233.026,8.659 231.343,8.727 C231.768,8.2 232.363,7.299 232.567,6.976 C232.635,6.857 232.686,6.721 232.873,6.704 C233.162,6.67 233.332,6.551 233.332,6.449 C233.332,6.415 233.315,6.381 233.264,6.347 L238.245,6.347 C238.517,6.347 238.585,6.262 238.585,6.16 C238.585,5.939 238.211,5.548 237.803,5.259 C238.517,4.953 239.095,4.749 239.775,4.715 C240.285,4.698 240.472,4.528 240.472,4.324 C240.472,3.746 239.112,2.896 238.874,2.896 C238.857,2.896 238.789,2.896 238.279,3.406 C238.211,3.474 238.092,3.525 238.041,3.525 L234.012,3.525 L234.063,2.743 C234.097,2.318 234.114,2.318 234.42,2.148 C234.675,1.995 234.811,1.859 234.811,1.757 C234.811,1.298 232.754,1.026 232.567,1.026 C232.533,1.026 232.516,1.043 232.516,1.077 C232.516,1.094 232.533,1.128 232.55,1.196 C232.669,1.689 232.72,2.505 232.737,3.1 C232.737,3.253 232.754,3.389 232.754,3.525 L228.725,3.525 C228.674,2.539 228.419,2.216 228.385,2.216 C228.351,2.216 228.317,2.301 228.283,2.471 C228.13,3.423 227.705,3.95 226.753,4.698 C226.396,4.987 226.243,5.293 226.243,5.548 C226.243,5.905 226.549,6.194 226.974,6.194 C227.722,6.194 228.572,5.344 228.708,3.95 L237.99,3.95 C238.041,3.95 238.092,3.984 238.092,4.035 C238.092,4.137 237.735,4.698 237.48,5.038 C237.361,4.97 237.242,4.902 237.14,4.868 C237.106,4.851 237.072,4.851 237.038,4.851 C236.8,4.851 236.205,5.684 236.12,5.803 C236.069,5.888 235.984,5.956 235.882,5.956 L232.958,5.956 C232.074,5.956 229.456,5.871 228.096,5.684 C228.096,5.905 228.572,6.517 228.844,6.517 L228.861,6.517 C229.405,6.449 230.34,6.415 231.207,6.381 C231.207,6.874 230.918,8.132 230.748,8.761 C230.3655,8.77375 230.002125,8.7769375 229.657875,8.77773437 L228.776,8.778 C228.487,8.778 227.841,8.727 227.348,8.608 C227.28,8.591 227.246,8.591 227.229,8.591 C227.195,8.591 227.195,8.591 227.195,8.625 C227.195,8.778 227.824,10.24 228.096,10.24 Z M227.008,15.595 C228.47,15.442 231.054,15.408 231.972,15.408 L240.251,15.408 C240.54,15.408 240.608,15.306 240.608,15.187 C240.608,14.762 239.248,13.657 238.908,13.657 C238.687,13.657 237.99,14.677 237.888,14.83 C237.837,14.915 237.701,14.983 237.599,14.983 L234.029,14.983 L234.029,12.637 L238.517,12.637 C238.806,12.637 238.874,12.535 238.874,12.416 C238.874,11.923 237.497,11.022 237.259,11.022 C237.055,11.022 236.494,11.787 236.307,12.059 C236.256,12.144 236.137,12.212 236.035,12.212 L234.029,12.212 C234.029,11.923 234.046,11.685 234.063,11.498 C234.097,11.005 234.148,11.056 234.437,10.92 C234.641,10.818 234.76,10.716 234.76,10.614 C234.76,10.291 232.873,10.019 232.618,10.019 C232.606667,10.019 232.602889,10.019 232.60163,10.024037 L232.601,10.036 C232.601,10.053 232.601,10.087 232.618,10.138 C232.737,10.597 232.788,11.277 232.805,11.872 L232.805,12.212 L232.635,12.212 C231.683,12.212 229.558,12.161 227.875,11.94 C227.875,12.161 228.368,12.824 228.674,12.824 L228.691,12.824 C230.153,12.671 231.632,12.637 232.55,12.637 L232.822,12.637 C232.822,13.402 232.805,14.388 232.805,14.983 L232.057,14.983 C231.105,14.983 227.875,14.932 226.192,14.728 C226.192,14.949 226.685,15.595 226.991,15.595 L227.008,15.595 Z" id="展示室"></path>
        </g>
    </g>
</svg>