<?xml version="1.0" encoding="UTF-8"?>
<svg width="78px" height="17px" viewBox="0 0 78 17" version="1.1" xmlns="http://www.w3.org/2000/svg" xmlns:xlink="http://www.w3.org/1999/xlink">
    <title>gnav-about</title>
    <g id="Symbols" stroke="none" stroke-width="1" fill="none" fill-rule="evenodd">
        <g id="contents/gnav" fill="#111111" fill-rule="nonzero">
            <path d="M13.141,16.003 C13.549,16.003 14.008,15.714 14.008,15.289 L14.008,15.272 C13.9598333,13.3292778 13.8965031,10.0824877 13.8896151,7.37905916 L13.889,6.908 C13.889,5.242 13.923,3.831 13.974,3.168 C14.008,2.675 14.059,2.726 14.365,2.556 C14.535,2.454 14.671,2.335 14.671,2.199 C14.671,1.774 12.631,1.451 12.478,1.451 C12.444,1.451 12.427,1.451 12.427,1.502 C12.427,1.519 12.427,1.553 12.444,1.604 C12.648,2.675 12.665,5.089 12.665,7.18 C12.665,9.849 12.614,13.147 12.529,15.34 L12.529,15.374 C12.529,15.816 12.818,16.003 13.141,16.003 Z M0.221,16.479 C0.306,16.479 0.527,16.411 0.765,16.275 C4.437,14.286 4.862,10.937 4.862,6.721 C4.862,5.684 4.828,4.613 4.828,3.491 C4.828,2.93 4.845,2.93 5.202,2.743 C5.423,2.624 5.525,2.505 5.525,2.403 C5.525,1.995 3.621,1.621 3.332,1.621 C3.298,1.621 3.281,1.638 3.281,1.672 C3.281,1.706 3.281,1.74 3.298,1.808 C3.4,2.267 3.553,3.474 3.553,6.993 C3.553,11.6 2.89,14.303 0.544,16.071 C0.272,16.275 0.17,16.394 0.17,16.445 C0.17,16.479 0.187,16.479 0.221,16.479 Z M8.483,14.49 C8.772,14.49 9.299,14.252 9.299,13.793 L9.299,13.776 C9.251,12.464 9.21805882,10.1430588 9.21434948,7.98953633 L9.21486328,6.95890039 C9.21904687,5.51346875 9.2395,4.245375 9.299,3.576 C9.333,3.083 9.367,3.134 9.673,2.964 C9.843,2.862 9.979,2.743 9.979,2.624 C9.979,2.233 7.973,1.876 7.837,1.876 C7.803,1.876 7.786,1.876 7.786,1.927 C7.786,1.944 7.786,1.978 7.803,2.029 C7.922,2.641 8.024,3.831 8.024,6.755 C8.024,9.135 7.956,12.076 7.888,13.844 L7.888,13.878 C7.888,14.303 8.16,14.49 8.483,14.49 Z M23.544,15.544 C24.003,15.544 24.462,15.238 24.462,14.813 L24.462,14.796 C24.462,14.507 24.445,14.235 24.445,13.929 L33.438,13.929 C33.438,14.235 33.421,14.524 33.421,14.83 L33.421,14.847 C33.421,15.255 33.71,15.425 34.05,15.425 C34.237,15.425 34.985,15.238 34.985,14.609 L34.985,14.592 C34.9,12.467 34.798,9.118 34.798,6.84 L34.798941,6.18446316 C34.8055196,4.49218074 34.8554483,4.47641379 35.206,4.324 C35.512,4.205 35.716,4.035 35.716,3.848 C35.716,3.423 34.203,2.59 33.999,2.59 C33.812,2.59 33.438,3.049 33.302,3.27 C33.234,3.355 33.149,3.406 33.064,3.406 L24.921,3.406 L24.836,3.355 C24.292,2.998 22.932,2.488 22.83,2.488 C22.796,2.488 22.779,2.505 22.779,2.539 C22.779,2.556 22.779,2.59 22.796,2.641 C23,3.576 23.102,5.089 23.102,8.846 C23.102,10.818 23.051,12.892 22.915,14.864 L22.915,14.932 C22.915,15.357 23.204,15.544 23.544,15.544 Z M33.455,13.453 L24.445,13.453 C24.4314,12.2834 24.42868,11.0594 24.428136,9.902856 L24.4287474,7.14305882 C24.4301176,6.07088235 24.434,5.198 24.445,4.681 C24.445,4.29 24.445,4.154 24.7,4.001 C24.751,3.967 24.819,3.933 24.853,3.899 L33.183,3.899 C33.336,3.899 33.438,3.984 33.438,4.154 C33.489,5.14 33.506,6.585 33.506,8.234 C33.506,9.866 33.489,11.685 33.455,13.453 Z M56.251,15.986 C56.846,15.986 57.254,15.68 57.254,15.204 C57.254,15 57.169,14.745 56.999,14.49 C56.965,14.439 56.948,14.286 56.948,14.099 C56.948,13.317 57.22,11.685 57.22,11.175 C57.22,11.073 57.203,11.039 57.186,11.039 C57.135,11.039 57.033,11.26 57.016,11.328 C56.404,12.909 55.911,14.116 55.265,14.116 C54.891,14.116 52.205,12.994 51.661,6.228 L56.659,6.228 C56.965,6.228 57.05,6.109 57.05,5.99 C57.05,5.701 56.064,4.732 55.486,4.511 C55.452,4.494 55.418,4.494 55.384,4.494 C55.299,4.494 55.129,4.511 54.381,5.616 C54.313,5.701 54.211,5.786 54.092,5.786 L51.627,5.786 C51.593,5.174 51.576,4.579 51.576,4.018 L51.5767834,3.59966182 C51.5832896,2.124472 51.63584,2.08068 51.933,1.893 C52.154,1.757 52.29,1.621 52.29,1.502 C52.29,1.111 50.25,0.856 50.148,0.856 C50.114,0.856 50.097,0.873 50.097,0.907 C50.097,0.924 50.097,0.975 50.114,1.026 C50.267,1.672 50.318,2.811 50.335,3.304 C50.369,4.001 50.403,4.834 50.471,5.786 L48.312,5.786 C47.343,5.786 43.603,5.701 41.886,5.497 C41.886,5.718 42.345,6.415 42.634,6.415 L42.651,6.415 C44.147,6.262 47.309,6.228 48.244,6.228 L50.505,6.228 L50.539,6.687 C50.879,10.138 51.95,14.83 55.639,15.901 C55.86,15.969 56.064,15.986 56.251,15.986 Z M54.279,4.018 C54.653,4.018 54.925,3.695 54.925,3.304 C54.925,2.726 54.33,2.114 52.987,2.114 C52.426,2.114 51.984,2.182 51.984,2.267 C51.984,2.301 52.035,2.335 52.137,2.386 C52.698,2.675 53.242,3.168 53.582,3.61 C53.82,3.899 54.058,4.018 54.279,4.018 Z M44.351,3.882 C45.32,3.763 46.136,3.712 46.629,3.712 L49.451,3.712 C49.706,3.712 49.774,3.593 49.774,3.474 C49.774,3.134 48.669,2.131 48.312,2.131 C48.108,2.131 47.598,2.913 47.462,3.134 C47.411,3.219 47.275,3.287 47.19,3.287 L46.714,3.287 C46.17,3.287 44.98,3.236 43.552,3.032 C43.552,3.236 44.028,3.882 44.334,3.882 L44.351,3.882 Z M43.348,15.697 C43.518,15.697 43.62,15.459 43.773,15.425 C45.388,15.017 51.576,13.215 51.576,12.739 C51.576,12.688 51.525,12.671 51.44,12.671 C51.372,12.671 51.287,12.688 51.185,12.705 C50.301,12.926 49.128,13.164 47.972,13.385 C47.972,12.569 47.955,11.362 47.955,10.291 L50.335,10.291 C50.573,10.291 50.641,10.189 50.641,10.087 C50.641,9.781 49.961,9.084 49.451,8.846 C49.434,8.829 49.4,8.829 49.366,8.829 C49.332,8.829 49.281,8.846 49.247,8.88 C49.077,9.067 48.788,9.424 48.618,9.73 C48.567,9.815 48.516,9.883 48.431,9.883 L47.955,9.883 L47.9558741,9.45781431 C47.9633018,7.81583265 48.0198519,7.7517037 48.193,7.673 C48.431,7.554 48.584,7.418 48.584,7.282 C48.584,6.925 46.969,6.687 46.748,6.687 C46.68,6.687 46.663,6.704 46.663,6.738 C46.663,6.755 46.663,6.789 46.68,6.84 C46.765,7.214 46.85,7.894 46.85,8.455 C46.85,9.781 46.85,12.11 46.833,13.589 L45.32,13.827 L45.3208861,12.5004403 C45.3262963,9.36796296 45.3615556,9.34277778 45.558,9.237 C45.796,9.118 45.949,8.999 45.949,8.863 C45.949,8.506 44.266,8.268 44.062,8.268 C44.011,8.268 43.994,8.268 43.994,8.302 C43.994,8.319 43.994,8.353 44.011,8.404 C44.096,8.778 44.198,9.475 44.198,10.036 C44.198,11.243 44.198,12.688 44.181,13.963 C44.096,13.98 43.994,13.98 43.909,13.98 C43.739,13.997 43.45,14.014 43.127,14.014 C42.872,14.014 42.583,13.997 42.345,13.98 C42.277,13.98 42.243,13.963 42.209,13.963 C42.158,13.963 42.141,13.98 42.141,14.014 C42.141,14.133 43.008,15.697 43.348,15.697 Z M63.747,3.865 C65.226,3.712 67.487,3.678 68.422,3.678 L76.395,3.678 C76.684,3.678 76.752,3.576 76.752,3.474 C76.752,3.185 75.766,2.182 75.188,1.978 C75.154,1.961 75.12,1.961 75.086,1.961 C74.95,1.961 74.763,2.029 74.049,3.1 C73.998,3.185 73.862,3.253 73.76,3.253 L70.462,3.253 C70.462,2.964 70.479,2.607 70.479,2.471 C70.496,1.978 70.564,2.08 70.87,1.893 C71.074,1.774 71.193,1.655 71.193,1.553 C71.193,1.213 69.374,0.89 69.068,0.89 C69.034,0.89 69.017,0.907 69.017,0.924 C69.017,0.958 69.034,1.009 69.051,1.077 C69.17,1.604 69.204,2.335 69.221,3.083 L69.221,3.253 L68.49,3.253 C67.504,3.253 64.648,3.185 62.948,2.981 C62.948,3.202 63.424,3.865 63.73,3.865 L63.747,3.865 Z M66.484,7.894 C66.824,7.894 67.266,7.724 67.266,7.401 L67.266,7.248 L72.536,7.248 L72.536,7.35 C72.536,7.639 72.791,7.775 73.08,7.775 C73.267,7.775 73.828,7.639 73.828,7.231 L73.828,7.214 C73.811,6.874 73.709,6.432 73.709,6.126 C73.709,5.752 73.743,5.684 74.032,5.514 C74.236,5.395 74.389,5.293 74.389,5.157 C74.389,4.8 73.131,4.273 72.995,4.273 C72.859,4.273 72.791,4.307 72.4,4.766 C72.332,4.834 72.264,4.851 72.196,4.851 L67.623,4.851 C67.606,4.851 67.606,4.834 67.589,4.834 C67.198,4.596 66.144,4.188 65.923,4.188 C65.906,4.188 65.889,4.188 65.889,4.222 C65.889,4.239 65.889,4.273 65.906,4.307 C66.042,4.783 66.076,5.548 66.076,5.735 C66.076,6.075 66.025,6.823 65.94,7.435 L65.94,7.503 C65.94,7.775 66.195,7.894 66.484,7.894 Z M72.536,6.823 L67.249,6.823 C67.249,6.602 67.232,6.381 67.232,6.177 C67.232,5.429 67.283,5.412 67.436,5.327 L67.538,5.276 L72.298,5.276 C72.451,5.276 72.536,5.361 72.536,5.48 L72.536,6.823 Z M63.373,11.141 C64.121,11.141 64.835,10.274 64.903,8.982 L74.695,8.982 C74.746,8.982 74.797,8.999 74.797,9.05 C74.797,9.237 73.896,10.444 73.845,10.512 C73.794,10.563 73.777,10.597 73.777,10.631 C73.777,10.6423333 73.7845556,10.6461111 73.7996667,10.6473704 L73.828,10.648 C73.845,10.648 73.913,10.648 73.964,10.614 C74.746,10.24 75.562,9.798 76.327,9.764 C76.854,9.747 77.092,9.577 77.092,9.339 C77.092,8.897 75.868,7.962 75.562,7.962 C75.341,7.962 74.967,8.421 74.967,8.421 C74.899,8.489 74.763,8.54 74.678,8.54 L64.886,8.54 C64.852,8.03 64.682,7.418 64.58,7.418 C64.546,7.418 64.512,7.52 64.478,7.69 C64.342,8.557 63.985,8.982 63.135,9.662 C62.812,9.934 62.676,10.223 62.676,10.478 C62.676,10.852 62.965,11.141 63.373,11.141 Z M73.335,15.884 C74.015,15.884 77.143,15.867 77.143,14.677 C77.143,14.456 77.024,14.252 76.752,14.048 C76.429,13.81 76.361,11.719 76.242,11.719 C76.225,11.719 76.191,11.77 76.174,11.889 L76.107105,12.25433 C75.90285,13.35593 75.6504,14.4713 74.916,14.609 C74.389,14.711 73.811,14.745 73.318,14.745 C71.601,14.745 71.567,14.456 71.567,13.402 C71.567,12.382 71.618,11.379 71.652,10.835 C71.669,10.512 71.686,10.427 71.856,10.359 C72.06,10.274 72.213,10.155 72.213,10.019 C72.213,9.645 70.564,9.458 70.377,9.458 C70.326,9.458 70.309,9.458 70.309,9.492 C70.309,9.526 70.326,9.56 70.326,9.611 C70.428,10.223 70.428,10.886 70.428,11.362 C70.428,11.719 70.394,12.348 70.36,14.014 L70.36,14.082 C70.36,15.595 71.618,15.884 73.335,15.884 Z M62.081,16.326 C63.152,16.326 68.456,15.867 68.711,10.954 C68.728,10.461 68.779,10.461 69.034,10.342 C69.204,10.257 69.289,10.155 69.289,10.053 C69.289,9.662 67.504,9.492 67.453,9.492 C67.419,9.492 67.402,9.509 67.402,9.543 L67.402,9.611 C67.436,9.798 67.453,10.002 67.453,10.257 C67.453,12.195 67.045,14.983 62.387,16.088 C62.064,16.173 61.86,16.241 61.86,16.292 C61.86,16.309 61.928,16.326 62.081,16.326 Z" id="川口武亮"></path>
        </g>
    </g>
</svg>