<?xml version="1.0" encoding="UTF-8"?>
<svg width="58px" height="17px" viewBox="0 0 58 17" version="1.1" xmlns="http://www.w3.org/2000/svg" xmlns:xlink="http://www.w3.org/1999/xlink">
    <title>gnav-portfolio</title>
    <g id="Symbols" stroke="none" stroke-width="1" fill="none" fill-rule="evenodd">
        <g id="contents/gnav" transform="translate(-102.000000, 0.000000)" fill="#111111" fill-rule="nonzero">
            <path d="M111.877,16.224 C112.285,16.224 112.71,15.952 112.71,15.51 L112.71,15.493 C112.676,14.456 112.642,13.164 112.625,11.855 L117.011,11.855 C117.283,11.855 117.351,11.753 117.351,11.634 C117.351,11.158 116.076,10.257 115.804,10.257 C115.6,10.257 115.107,10.92 114.886,11.26 C114.835,11.345 114.733,11.43 114.631,11.43 L112.625,11.43 C112.608,10.461 112.608,9.492 112.608,8.659 L116.943,8.659 C117.215,8.659 117.283,8.557 117.283,8.438 C117.283,8.013 116.059,7.061 115.753,7.061 C115.549,7.061 115.056,7.724 114.835,8.064 C114.784,8.149 114.682,8.234 114.58,8.234 L112.608,8.234 L112.608857,7.5784042 C112.614375,5.94769515 112.652321,5.84307143 112.88,5.752 C113.067,5.684 113.203,5.548 113.203,5.429 C113.203,5.361 113.152,5.293 113.033,5.242 L117.81,5.242 C118.082,5.242 118.167,5.14 118.167,5.021 C118.167,4.664 117.181,3.78 116.62,3.559 C116.586,3.542 116.552,3.542 116.518,3.542 C116.263,3.542 115.685,4.392 115.515,4.647 C115.464,4.732 115.345,4.817 115.243,4.817 L110.772,4.817 C111.248,4.205 111.673,3.593 111.996,3.015 C112.166,2.709 112.234,2.692 112.472,2.641 C112.88,2.556 113.067,2.454 113.067,2.301 C113.067,1.961 111.435,1.111 111.18,1.111 C111.112,1.111 111.112,1.162 111.095,1.264 C110.857,3.032 108.8,6.381 107.066,8.115 C107.117,5.99 107.134,5.905 107.406,5.786 C107.627,5.684 107.729,5.565 107.729,5.463 C107.729,5.293 107.321,5.14 106.93,5.072 C107.389,4.443 107.814,3.78 108.205,3.1 C108.375,2.811 108.443,2.76 108.664,2.709 C109.038,2.641 109.208,2.522 109.208,2.386 C109.208,1.961 107.338,1.23 107.27,1.23 C107.219,1.23 107.236,1.281 107.219,1.383 C106.93,3.559 104.125,7.792 102.595,9.186 C102.391,9.356 102.306,9.475 102.306,9.509 C102.306,9.526 102.323,9.526 102.34,9.526 C102.459,9.526 103.955,8.795 105.859,6.466 C105.859,6.84 105.876,7.231 105.876,7.503 C105.842,9.764 105.723,13.215 105.519,15.459 L105.519,15.561 C105.519,16.003 105.791,16.19 106.114,16.19 C106.556,16.19 106.981,15.867 106.981,15.442 L106.981,15.408 C106.964,14.915 106.964,14.32 106.964,13.708 C106.964,12.008 106.998,9.985 107.049,8.336 C107.712,8.013 109.072,6.925 110.449,5.242 L111.367,5.242 C111.418,5.803 111.435,6.653 111.435,6.993 C111.452,7.571 111.452,8.353 111.452,9.237 C111.452,11.294 111.418,13.861 111.282,15.544 L111.282,15.629 C111.282,16.054 111.571,16.224 111.877,16.224 Z M127.652,8.03 C128.043,8.03 128.451,7.792 128.451,7.418 L128.451,6.925 L133.687,6.925 L133.687,7.401 C133.687,7.758 133.942,7.911 134.231,7.911 C134.758,7.911 135.03,7.537 135.03,7.248 L135.03,7.214 C134.979,6.194 134.911,4.817 134.911,3.933 C134.911,3.185 134.928,3.168 135.234,2.998 C135.455,2.862 135.608,2.743 135.608,2.59 C135.608,2.25 134.35,1.553 134.146,1.553 C134.078,1.553 134.01,1.57 133.551,2.097 C133.483,2.182 133.415,2.199 133.33,2.199 L128.808,2.199 C128.332,1.893 127.125,1.417 127.023,1.417 C127.006,1.417 126.989,1.434 126.989,1.451 C126.989,1.485 127.006,1.502 127.006,1.553 C127.132286,2.12128571 127.185281,3.18794898 127.192207,3.514375 L127.19207,3.88824219 C127.187422,4.72775 127.16325,6.289625 127.074,7.435 L127.074,7.503 C127.074,7.877 127.346,8.03 127.652,8.03 Z M133.687,6.483 L128.434,6.483 C128.434,5.888 128.417,5.259 128.417,4.698 L128.417441,4.13390246 C128.420672,2.9239616 128.4476,2.89464 128.672,2.76 C128.74,2.726 128.791,2.675 128.825,2.641 L133.466,2.641 C133.602,2.641 133.687,2.709 133.687,2.879 C133.704,3.219 133.704,3.678 133.704,4.205 C133.704,4.902 133.704,5.735 133.687,6.483 Z M132.446,16.122 C132.99,16.122 133.194,15.782 133.194,15.51 L133.194,14.779 L136.373,14.779 L136.356,15.408 L136.356,15.425 C136.356,15.799 136.628,15.952 136.934,15.952 C137.223,15.952 137.699,15.782 137.699,15.323 L137.699,15.272 C137.614,14.031 137.563,12.637 137.563,11.702 C137.563,10.733 137.58,10.58 137.903,10.376 C138.107,10.24 138.26,10.121 138.26,9.968 C138.26,9.577 136.951,8.948 136.798,8.948 C136.645,8.948 136.543,9.084 136.237,9.492 C136.169,9.594 136.084,9.611 135.999,9.611 L133.585,9.611 C133.585,9.594 133.568,9.594 133.568,9.594 L133.534,9.594 C133.126,9.322 132.004,8.829 131.817,8.829 C131.8,8.829 131.783,8.846 131.783,8.863 C131.783,8.897 131.8,8.914 131.8,8.965 C131.953,9.679 131.987,10.546 131.987,12.042 C131.987,12.96 131.97,14.184 131.868,15.544 L131.868,15.595 C131.868,15.969 132.14,16.122 132.446,16.122 Z M124.915,16.088 C125.204,16.088 125.714,15.935 125.714,15.493 L125.714,15.476 C125.714,15.272 125.697,15.034 125.697,14.779 L128.706,14.779 L128.706,15.374 C128.706,15.731 128.978,15.884 129.267,15.884 C129.42,15.884 130.015,15.816 130.015,15.289 L130.015,15.238 C129.947,14.269 129.879,12.518 129.879,11.532 C129.879,10.631 129.913,10.614 130.236,10.393 C130.44,10.257 130.576,10.138 130.576,10.002 C130.576,9.543 129.284,8.965 129.148,8.965 C129.012,8.965 128.757,9.254 128.57,9.492 C128.502,9.577 128.434,9.628 128.349,9.628 L126.105,9.628 L126.054,9.594 C125.595,9.271 124.388,8.863 124.337,8.863 C124.32,8.863 124.303,8.88 124.303,8.897 C124.303,8.931 124.32,8.948 124.32,8.999 C124.446286,9.56728571 124.499281,10.6486071 124.506207,10.9771272 L124.507,11.651 C124.507,12.637 124.473,14.184 124.354,15.527 L124.354,15.595 C124.354,15.935 124.626,16.088 124.915,16.088 Z M136.373,14.337 L133.177,14.337 C133.165667,13.861 133.161889,13.3925556 133.16063,12.9215926 L133.160441,11.6160589 C133.163672,10.339552 133.1906,10.3216 133.415,10.172 L133.534,10.07 L136.101,10.07 C136.305,10.07 136.356,10.189 136.356,10.308 C136.39,10.733 136.39,11.345 136.39,12.042 C136.39,12.739 136.39,13.521 136.373,14.337 Z M128.706,14.337 L125.697,14.337 C125.697,13.827 125.68,13.266 125.68,12.722 C125.68,11.94 125.697,11.209 125.714,10.699 C125.731,10.274 125.748,10.325 125.952,10.172 L126.054,10.087 L128.451,10.087 C128.621,10.087 128.706,10.172 128.706,10.325 C128.723,10.665 128.74,11.124 128.74,11.651 C128.74,12.467 128.723,13.436 128.706,14.337 Z M147.116,10.274 C147.643,10.274 147.915,9.917 147.915,9.56 L147.915,9.424 L157.503,9.424 C157.775,9.424 157.86,9.305 157.86,9.203 C157.86,8.88 156.942,8.166 156.398,7.962 C156.364,7.962 156.33,7.945 156.296,7.945 C156.075,7.945 155.548,8.659 155.395,8.863 C155.344,8.948 155.242,8.999 155.14,8.999 L152.182,8.999 C152.182,8.591 152.165,8.115 152.165,7.605 L156.024,7.605 C156.245,7.605 156.313,7.52 156.313,7.435 C156.313,6.925 155.055,6.279 154.851,6.279 C154.698,6.279 154.222,6.772 154.035,7.044 C153.984,7.129 153.882,7.18 153.78,7.18 L152.165,7.18 C152.165,6.738 152.182,6.313 152.182,5.922 L155.973,5.922 C156.228,5.922 156.296,5.82 156.296,5.718 C156.296,5.344 155.123,4.596 154.868,4.596 C154.766,4.596 154.273,5.021 154.035,5.378 C153.984,5.463 153.882,5.514 153.78,5.514 L152.182,5.514 C152.182,5.327 152.199,5.14 152.199,4.987 C152.199,4.817 152.25,4.698 152.369,4.664 C152.59,4.596 152.709,4.494 152.709,4.392 C152.709,4.307 152.607,4.256 152.352,4.171 L157.095,4.171 C157.367,4.171 157.435,4.069 157.435,3.95 C157.435,3.729 156.602,2.913 155.99,2.675 C155.956,2.675 155.922,2.658 155.871,2.658 C155.718,2.658 155.395,3.015 154.987,3.61 C154.936,3.695 154.834,3.746 154.732,3.746 L151.468,3.746 C151.842,3.406 152.233,2.879 152.573,2.488 C152.675,2.369 152.726,2.318 152.896,2.301 C153.253,2.267 153.423,2.148 153.423,2.012 C153.423,1.587 151.383,1.094 151.366,1.094 C151.332,1.094 151.315,1.111 151.315,1.179 L151.315,1.247 C151.332,1.4 151.349,1.604 151.349,1.808 C151.349,2.284 151.077,3.338 150.975,3.746 L148.391,3.746 C148.34,3.712 147.949,3.559 147.864,3.525 L148.544,2.573 C148.663,2.386 148.748,2.335 149.003,2.318 C149.36,2.301 149.547,2.182 149.547,2.046 C149.547,1.689 147.881,1.009 147.643,1.009 C147.592,1.009 147.592,1.06 147.575,1.179 C147.32,2.845 145.178,5.973 143.869,7.231 C143.699,7.384 143.631,7.486 143.631,7.52 C143.631,7.537 143.648,7.554 143.665,7.554 C143.869,7.554 145.178,6.772 146.759,4.919 C146.759,5.15214286 146.77149,5.38528571 146.775058,5.50066764 L146.776,5.548 C146.776,6.279 146.691,8.455 146.555,9.611 L146.555,9.713 C146.555,10.104 146.827,10.274 147.116,10.274 Z M151.026,5.514 L147.898,5.514 L147.932,4.732 C147.966,4.324 147.983,4.341 148.136,4.256 L148.289,4.171 L150.941,4.171 C151.026,4.613 151.026,5.106 151.026,5.514 Z M151.026,7.18 L147.881,7.18 L147.881,5.922 L151.026,5.922 L151.026,7.18 Z M151.009,8.999 L147.898,8.999 C147.881,8.574 147.881,8.098 147.881,7.605 L151.026,7.605 L151.02537,8.10996296 C151.024111,8.43988889 151.020333,8.74966667 151.009,8.999 Z M151.23,16.36 C151.604,16.36 152.029,16.122 152.029,15.714 L152.029,15.697 C151.9984,15.1003 151.9678,14.15935 151.961986,13.208761 L151.961,12.892 C151.961,12.484 151.961,12.076 151.978,11.702 C153.389,14.15 156.721,15.765 157.197,15.765 C157.282,15.765 157.367,15.731 157.452,15.646 C157.979,15.153 159.475,14.745 159.475,14.592 C159.475,14.575 159.424,14.558 159.339,14.541 C156.313,14.252 153.627,12.943 152.267,11.549 L158.268,11.549 C158.557,11.549 158.625,11.464 158.625,11.362 C158.625,11.005 157.35,9.968 156.976,9.968 C156.806,9.968 156.415,10.461 156.058,10.988 C156.007,11.073 155.888,11.141 155.786,11.141 L151.995,11.141 C151.995,11.056 152.012,10.971 152.012,10.886 C152.046,10.512 152.165,10.512 152.386,10.393 C152.573,10.291 152.692,10.172 152.692,10.053 C152.692,9.696 150.873,9.543 150.703,9.543 C150.635,9.543 150.618,9.56 150.618,9.594 C150.618,9.611 150.618,9.645 150.635,9.696 C150.72,10.087 150.788,10.665 150.805,11.141 L149.649,11.141 C148.714,11.141 145.79,11.073 144.124,10.869 C144.124,11.09 144.583,11.736 144.889,11.736 L144.906,11.736 C146.368,11.583 148.68,11.549 149.581,11.549 L150.006,11.549 C148.255,13.436 145.637,15.153 143.631,15.85 C143.41,15.918 143.308,16.003 143.308,16.054 C143.308,16.088 143.359,16.105 143.444,16.105 C143.461,16.105 147.422,15.714 150.805,12.382 C150.788,13.402 150.754,14.881 150.669,15.731 L150.669,15.816 C150.669,16.19 150.941,16.36 151.23,16.36 Z" id="作品集"></path>
        </g>
    </g>
</svg>