<?xml version="1.0" encoding="UTF-8"?>
<svg width="113px" height="17px" viewBox="0 0 113 17" version="1.1" xmlns="http://www.w3.org/2000/svg" xmlns:xlink="http://www.w3.org/1999/xlink">
    <title>gnav-contact</title>
    <g id="Symbols" stroke="none" stroke-width="1" fill="none" fill-rule="evenodd">
        <g id="contents/gnav" transform="translate(-467.000000, 0.000000)" fill="#111111" fill-rule="nonzero">
            <path d="M471.8,14.932 C472.021,14.932 472.548,14.779 472.548,13.521 L472.548,13.419 L472.514,11.617 C473.721,10.648 475.013,9.781 476.407,9.781 C477.41,9.781 478.413,10.223 478.413,11.158 C478.413,12.433 476.951,13.215 475.931,13.215 C475.081,13.215 474.707,12.671 474.707,11.923 C474.707,11.668 474.741,11.396 474.826,11.107 C474.911,10.818 474.928,10.631 474.928,10.529 C474.928,10.478 474.928,10.444 474.894,10.444 C474.758,10.444 474.112,11.702 474.112,12.654 C474.112,13.742 474.809,14.371 475.897,14.371 C477.444,14.371 479.518,13.062 479.518,11.328 C479.518,10.308 478.719,9.305 476.679,9.305 C475.183,9.305 473.806,9.985 472.497,10.767 C472.48,9.764 472.446,8.727 472.446,7.741 C473.823,7.01 474.282,6.619 474.282,6.075 C474.282,5.803 474.095,5.582 473.721,5.582 L473.602,5.582 C473.279,5.582 472.871,5.497 472.497,5.395 C472.514,5.259 472.514,5.14 472.514,5.038 C472.514,4.188 471.596,3.831 471.137,3.831 C470.627,3.831 470.287,4.188 470.287,4.426 C470.287,4.528 470.406,4.596 470.712,4.596 C471.426,4.596 471.528,5.106 471.664,7.061 C470.814,7.452 470.406,7.571 469.726,7.571 C469.182,7.571 468.74,7.469 468.519,7.384 C468.4,7.333 468.315,7.299 468.247,7.299 C468.196,7.299 468.162,7.333 468.162,7.435 C468.162,8.557 469.301,8.642 469.692,8.642 C470.287,8.642 470.899,8.506 471.715,8.115 C471.732,8.812 471.766,9.56 471.766,10.308 C471.766,10.614 471.766,10.937 471.749,11.243 C469.403,12.705 468.927,12.858 468.74,12.858 C468.638,12.858 468.587,12.807 468.536,12.79 C468.468,12.756 468.4,12.739 468.349,12.739 C468.009,12.739 467.567,13.487 467.567,13.793 C467.567,14.065 467.737,14.269 468.162,14.269 C468.638,14.269 469.148,14.082 469.828,13.64 C470.423,13.81 470.984,14.082 471.222,14.49 C471.375,14.762 471.579,14.932 471.8,14.932 Z M478.26,8.064 C478.345,8.064 478.464,8.013 478.6,7.928 C478.974,7.707 479.382,7.639 479.705,7.554 C480.198,7.435 480.283,7.469 480.572,7.333 C480.793,7.231 480.929,7.061 480.929,6.823 C480.929,6.058 479.892,5.446 478.821,5.446 C477.308,5.446 476.458,6.67 476.458,6.84 C476.458,6.874 476.475,6.891 476.509,6.891 C476.594,6.891 476.764,6.806 476.985,6.636 C477.308,6.381 477.699,6.262 478.107,6.262 C478.396,6.262 478.94,6.33 478.94,6.721 C478.94,7.095 478.583,7.571 478.413,7.741 C478.277,7.877 478.209,7.979 478.209,8.013 C478.209,8.047 478.226,8.064 478.26,8.064 Z M472.463,6.636 L472.463,6.245 C472.463,5.99 472.48,5.769 472.497,5.599 C472.82,5.769 473.058,5.956 473.058,6.092 C473.058,6.296 472.65,6.534 472.463,6.636 Z M471.103,13.555 C470.882,13.555 470.559,13.521 470.117,13.453 C470.627,13.079 471.154,12.603 471.715,12.127 C471.698,12.484 471.681,12.841 471.647,13.198 C471.63,13.419 471.562,13.555 471.103,13.555 Z M486.776,16.258 C487.218,16.258 487.609,15.952 487.609,15.578 C487.578579,14.2394737 487.561767,11.8394127 487.558565,9.47373349 L487.558,6.908 L490.465,6.908 L490.465,7.112 C490.465,7.503 490.72,7.673 491.009,7.673 C491.298,7.673 491.74,7.452 491.74,6.993 L491.74,6.942 C491.708267,6.466 491.646916,4.93856889 491.638876,4.01830222 L491.638,3.831 C491.638,3.032 491.689,2.964 491.91,2.845 C492.131,2.709 492.301,2.607 492.301,2.454 C492.301,2.182 491.213,1.417 490.907,1.417 C490.686,1.417 490.397,1.893 490.38,1.91 C490.329,1.978 490.227,2.063 490.125,2.063 L488.017,2.063 L487.966,2.029 C487.609,1.774 486.419,1.264 486.232,1.264 C486.198,1.264 486.181,1.281 486.181,1.315 C486.181,1.349 486.181,1.383 486.198,1.434 C486.334,2.063 486.385,3.423 486.385,3.644 C486.385,4.375 486.402,5.31 486.402,6.33 C486.402,9.288 486.351,13.079 486.181,15.629 L486.181,15.697 C486.181,16.088 486.47,16.258 486.776,16.258 Z M497.197,16.156 C498.03,16.156 499.339,15.646 499.339,14.167 L499.339,14.099 C499.339,13.776 499.288,12.807 499.271,12.331 C499.238889,10.7575556 499.191614,7.65258951 499.186461,5.47934122 L499.186995,4.32248854 C499.192716,3.04398628 499.231333,2.97533333 499.492,2.845 C499.713,2.709 499.9,2.607 499.9,2.454 C499.9,2.131 498.659,1.417 498.404,1.417 C498.217,1.417 497.945,1.791 497.86,1.91 C497.809,1.978 497.724,2.063 497.622,2.063 L495.259,2.063 L495.191,2.012 C494.766,1.723 493.627,1.281 493.508,1.281 C493.491,1.281 493.474,1.281 493.474,1.315 C493.474,1.349 493.474,1.383 493.491,1.434 C493.61,2.012 493.661,3.032 493.661,4.29 C493.661,5.004 493.644,5.956 493.542,7.078 L493.542,7.146 C493.542,7.52 493.797,7.673 494.103,7.673 C494.46,7.673 494.851,7.452 494.851,7.061 L494.851,6.908 L498.03,6.908 C498.047,8.421 498.047,10.087 498.047,11.464 C498.047,12.467 498.047,13.317 498.03,13.844 C498.013,14.473 497.656,14.711 496.84,14.711 C496.398,14.711 495.803,14.643 495.055,14.524 C494.987,14.507 494.919,14.507 494.885,14.507 C494.834,14.507 494.817,14.507 494.817,14.524 C494.817,14.677 496.568,15.391 496.806,15.867 C496.908,16.088 497.01,16.156 497.197,16.156 Z M497.996,4.222 L494.817,4.222 L494.81792,3.85254696 C494.824306,2.73049587 494.866455,2.66727273 495.021,2.59 C495.072,2.573 495.106,2.539 495.14,2.522 L497.758,2.522 C497.911,2.522 497.962,2.607 497.962,2.726 C497.979,2.981 497.979,3.525 497.996,4.222 Z M490.499,4.222 L487.575,4.222 C487.592,3.746 487.592,3.338 487.609,3.049 C487.626,2.675 487.66,2.641 487.898,2.522 L490.261,2.522 C490.414,2.522 490.465,2.607 490.465,2.726 C490.482,3.083 490.499,3.627 490.499,4.222 Z M498.03,6.466 L494.834,6.466 C494.817,5.854 494.817,5.225 494.817,4.664 L498.013,4.664 C498.013,5.208 498.03,5.82 498.03,6.466 Z M490.482,6.466 L487.558,6.466 C487.558,5.803 487.575,5.208 487.575,4.664 L490.499,4.664 C490.499,5.31 490.499,5.973 490.482,6.466 Z M490.363,14.49 C490.72,14.49 491.094,14.269 491.094,13.895 L491.094,13.878 C491.094,13.555 491.077,13.164 491.077,12.756 L494.137,12.756 C494.137,12.96 494.12,13.181 494.12,13.385 L494.12,13.402 C494.12,13.776 494.375,13.946 494.647,13.946 C494.97,13.946 495.344,13.708 495.344,13.283 L495.344,13.249 C495.293,12.45 495.242,11.362 495.242,10.699 C495.242,10.189 495.242,10.087 495.565,9.9 C495.786,9.764 495.888,9.645 495.888,9.509 C495.888,9.186 494.749,8.489 494.545,8.489 C494.443,8.489 494.324,8.574 494.018,8.999 C493.95,9.084 493.865,9.118 493.797,9.118 L491.417,9.118 L491.4,9.101 C490.958,8.795 489.904,8.438 489.802,8.438 C489.785,8.438 489.768,8.455 489.768,8.489 C489.768,8.506 489.785,8.54 489.785,8.574 C489.921,9.169 489.938,10.189 489.938,10.393 C489.938,11.192 489.921,12.756 489.819,13.912 L489.819,13.98 C489.819,14.337 490.074,14.49 490.363,14.49 Z M494.137,12.331 L491.077,12.331 C491.077,11.889 491.06,11.447 491.06,11.056 C491.06,10.665 491.077,10.325 491.077,10.087 C491.094,9.747 491.077,9.764 491.298,9.645 C491.349,9.611 491.4,9.594 491.434,9.56 L493.967,9.56 C494.103,9.56 494.137,9.645 494.137,9.747 C494.154,10.07 494.154,10.41 494.154,10.767 C494.154,11.26 494.154,11.787 494.137,12.331 Z M510.694,14.082 C511.289,14.082 511.629,13.776 511.629,13.317 C511.629,13.249 511.629,13.198 511.612,13.13 C511.578,12.875 511.527,12.62 511.527,12.246 C511.527,11.396 511.663,10.648 511.799,10.002 C511.867,9.713 511.901,9.475 511.901,9.339 C511.901,9.288 511.901,9.254 511.884,9.254 C511.833,9.254 511.714,9.424 511.51,9.866 C511.204,10.495 510.83,11.464 510.49,12.042 C510.405,12.195 510.235,12.365 509.963,12.365 C509.827,12.365 507.974,12.076 507.974,9.203 C507.974,8.455 508.093,7.724 508.212,7.129 C508.263,6.925 508.28,6.687 508.28,6.466 C508.28,5.021 507.073,4.647 506.971,4.647 C506.903,4.647 506.869,4.698 506.869,4.8 C506.869,4.868 506.886,4.97 506.903,5.106 C506.937,5.361 506.954,5.701 506.954,6.041 C506.954,6.245 506.954,6.432 506.937,6.619 C506.903,7.163 506.869,7.724 506.869,8.268 C506.869,10.223 507.243,12.093 509.045,13.47 C509.555,13.844 510.167,14.082 510.694,14.082 Z M517.953,10.716 C518.327,10.716 518.735,10.359 518.735,9.679 C518.735,8.183 517.154,6.16 514.315,6.16 C514.077,6.16 513.958,6.194 513.958,6.245 C513.958,6.313 514.213,6.415 514.672,6.534 C515.947,6.857 517.12,8.251 517.256,9.9 C517.307,10.444 517.613,10.716 517.953,10.716 Z M524.276,9.849 C524.701,9.849 529.019,8.149 532.402,2.794 L532.555,2.59 C534.221,6.058 537.638,8.795 538.301,8.795 C538.386,8.795 538.471,8.744 538.556,8.676 C539.202,8.115 540.579,7.86 540.579,7.707 C540.579,7.673 540.545,7.656 540.46,7.639 C537.179,6.959 534.204,4.307 532.827,2.471 L532.878,2.454 C533.269,2.386 533.456,2.284 533.456,2.148 C533.456,1.808 531.552,1.009 531.314,1.009 C531.263,1.009 531.28,1.043 531.263,1.128 C531.195,1.468 531.059,2.029 530.889,2.352 C529.342,5.191 527.013,7.996 524.531,9.56 C524.31,9.696 524.225,9.781 524.225,9.832 C524.225,9.849 524.242,9.849 524.276,9.849 Z M529.359,8.319 C530.243,8.183 531.45,8.166 532.028,8.166 L535.547,8.166 C535.802,8.166 535.87,8.064 535.87,7.962 C535.87,7.503 534.51,6.568 534.408,6.517 C534.391,6.5 534.357,6.5 534.323,6.5 C534.085,6.5 533.541,7.435 533.456,7.605 C533.405,7.69 533.269,7.741 533.235,7.741 L532.062,7.741 C531.467,7.741 529.767,7.69 528.679,7.503 C528.679,7.69 529.155,8.319 529.342,8.319 L529.359,8.319 Z M528.577,16.343 C528.781,16.343 529.393,16.207 529.393,15.765 L529.393,15.748 L529.376,15.051 L535.173,15.051 C535.173,15.255 535.156,15.476 535.156,15.68 L535.156,15.697 C535.156,16.054 535.428,16.207 535.734,16.207 C536.346,16.207 536.533,15.816 536.533,15.578 L536.533,15.544 C536.448,14.49 536.38,13.351 536.38,12.552 C536.38,12.382 536.397,12.229 536.397,12.093 C536.414,11.634 536.363,11.651 536.737,11.43 C536.941,11.311 537.043,11.209 537.043,11.09 C537.043,10.733 535.802,10.002 535.598,10.002 C535.479,10.002 535.394,10.087 534.952,10.58 C534.884,10.665 534.816,10.682 534.731,10.682 L529.784,10.682 L529.75,10.648 C529.223,10.274 528.084,9.832 527.982,9.832 C527.948,9.832 527.931,9.849 527.931,9.883 C527.931,9.9 527.948,9.934 527.948,9.968 C527.999,10.189 528.135,10.971 528.135,12.433 C528.135,13.232 528.118,14.354 527.982,15.782 L527.982,15.85 C527.982,16.19 528.271,16.343 528.577,16.343 Z M535.173,14.609 L529.376,14.609 C529.359,13.997 529.359,13.402 529.359,12.858 C529.359,11.379 529.359,11.345 529.614,11.192 L529.733,11.107 L534.918,11.107 C535.088,11.107 535.173,11.209 535.173,11.328 C535.19,11.651 535.207,12.025 535.207,12.45 C535.207,13.096 535.19,13.827 535.173,14.609 Z M549.435,15.935 C549.707,15.935 549.928,15.646 549.928,15.102 C549.928,14.932 549.911,14.745 549.86,14.524 C549.656,13.691 549.503,12.654 549.503,11.668 C549.503,11.6 549.503,11.005 549.571,10.104 C550.523,9.152 551.968,7.707 554.076,7.707 C555.368,7.707 557.136,8.489 557.136,10.359 C557.136,12.756 554.212,14.626 552.665,15.289 C552.24,15.476 552.036,15.578 552.036,15.629 C552.036,15.646 552.07,15.663 552.121,15.663 C553.056,15.663 558.53,13.946 558.53,10.291 C558.53,8.608 556.898,6.908 554.637,6.908 C553.175,6.908 551.458,7.622 549.724,9.407 L549.622,9.509 L549.656,9.237 C549.928,8.795 550.183,8.404 550.421,8.098 C550.795,7.588 551.169,7.061 551.169,6.704 C551.169,6.415 550.914,6.228 550.217,6.228 L550.098,6.228 C550.166,5.888 550.387,4.307 550.387,3.984 C550.387,2.369 549.112,2.25 548.874,2.25 C548.432,2.25 548.211,2.556 548.211,2.556 C548.211,2.624 548.279,2.675 548.432,2.76 C549.248,3.287 549.503,3.644 549.503,4.97 C549.503,5.208 549.503,5.48 549.486,5.803 C549.486,6.041 549.469,6.296 549.452,6.568 C548.755,7.01 548.024,7.554 547.429,8.166 C547.208,8.387 546.919,8.625 546.528,8.795 C546.239,8.931 546.086,9.101 546.086,9.322 C546.086,9.543 546.222,9.781 546.494,10.053 C546.749,10.308 547.157,10.869 547.497,11.498 C545.916,13.776 545.746,14.507 545.746,14.83 C545.746,15.136 545.899,15.272 546.103,15.272 C546.443,15.272 546.97,14.847 547.259,14.048 C547.395,13.657 547.565,13.113 547.922,12.331 C548.245,13.011 548.602,13.946 548.653,14.592 C548.738,15.51 549.112,15.935 549.435,15.935 Z M549.826,7.928 L549.979,6.993 C550.098,7.01 550.132,7.095 550.132,7.214 C550.132,7.231 550.132,7.367 549.826,7.928 Z M547.684,11.226 C547.157,10.291 546.936,9.9 546.936,9.747 C546.936,9.662 546.987,9.611 547.14,9.594 C547.684,9.509 547.905,9.356 548.143,8.846 C548.432,8.2 548.874,7.622 549.384,7.265 C549.333,7.792 549.282,8.387 549.214,8.982 C548.823,9.645 548.347,10.359 547.922,10.903 L547.684,11.226 Z M548.823,12.96 C548.738,12.96 548.636,12.858 548.109,11.94 L548.194,11.753 C548.466,11.379 548.755,11.005 549.044,10.631 C548.976,11.345 548.891,12.093 548.891,12.824 C548.891,12.926 548.857,12.96 548.823,12.96 Z M575.665,13.844 C575.665,13.504 575.291,13.198 574.73,13.198 C574.543,13.198 574.339,13.232 574.118,13.3 C573.846,13.402 573.098,13.589 572.333,13.589 C571.381,13.589 570.378,13.283 570.191,12.11 C570.055,11.294 569.987,10.172 569.97,9.084 C571.126,8.625 572.554,8.183 573.863,7.945 C573.608,9.934 573.149,10.172 572.758,10.172 C572.401,10.172 571.942,9.968 571.466,9.611 C571.296,9.475 571.126,9.39 571.058,9.39 C571.024,9.39 571.007,9.407 571.007,9.424 C571.007,9.492 571.092,9.611 571.296,9.832 C571.653,10.206 572.078,10.852 572.095,11.345 C572.112,11.685 572.35,11.872 572.656,11.872 C573.438,11.872 573.982,11.022 574.237,10.41 C574.526,9.747 574.679,8.744 574.764,7.826 C575.172,7.775 575.58,7.758 575.988,7.758 C576.719,7.758 577.433,7.843 578.096,8.047 C578.317,8.115 578.521,8.149 578.691,8.149 C579.184,8.149 579.456,7.911 579.456,7.639 C579.456,7.197 579.082,7.044 578.011,6.653 C577.501,6.483 576.804,6.245 576.005,5.701 C575.869,5.599 575.75,5.565 575.699,5.565 C575.648,5.565 575.614,5.582 575.614,5.633 C575.614,5.684 575.665,5.752 575.767,5.854 C575.954,6.024 576.447,6.551 576.447,6.653 C576.447,6.755 576.345,6.772 575.648,6.925 L574.832,7.078 L574.883,6.177 C574.917,5.378 575.002,4.834 575.002,4.46 C575.002,3.406 574.118,3.355 573.931,3.355 C573.404,3.355 573.183,3.746 573.183,3.865 C573.183,3.933 573.251,3.984 573.421,4.035 C573.846,4.171 573.948,5.004 573.948,6.296 C573.948,6.602 573.931,6.925 573.914,7.265 C572.741,7.52 571.687,7.826 569.97,8.336 C569.97,7.826 569.97,7.35 569.987,6.908 L569.987,6.721 C569.987,5.004 568.814,4.987 568.678,4.987 C568.27,4.987 567.896,5.191 567.896,5.378 C567.896,5.446 567.947,5.531 568.049,5.616 C568.746,6.279 568.814,6.381 569.018,8.625 C568.287,8.846 567.59,9.084 566.927,9.322 C566.485,9.475 566.026,9.628 565.516,9.628 C565.176,9.628 564.972,9.594 564.479,9.203 C564.377,9.118 564.275,9.067 564.207,9.067 C564.037,9.067 563.986,9.288 563.986,9.475 C563.986,10.359 565.329,10.835 566.043,10.835 C566.468,10.835 566.808,10.682 567.199,10.444 C567.522,10.24 568.185,9.866 569.086,9.458 C569.171,10.546 569.239,11.651 569.341,12.297 C569.63,14.065 570.973,14.762 572.809,14.762 C573.574,14.762 575.665,14.643 575.665,13.844 Z" id="お問い合わせ"></path>
        </g>
    </g>
</svg>