<?xml version="1.0" encoding="UTF-8"?>
<svg width="70px" height="17px" viewBox="0 0 70 17" version="1.1" xmlns="http://www.w3.org/2000/svg" xmlns:xlink="http://www.w3.org/1999/xlink">
    <title>gnav-news</title>
    <g id="Symbols" stroke="none" stroke-width="1" fill="none" fill-rule="evenodd">
        <g id="contents/gnav" transform="translate(-370.000000, 0.000000)" fill="#111111" fill-rule="nonzero">
            <path d="M374.8,14.932 C375.021,14.932 375.548,14.779 375.548,13.521 L375.548,13.419 L375.514,11.617 C376.721,10.648 378.013,9.781 379.407,9.781 C380.41,9.781 381.413,10.223 381.413,11.158 C381.413,12.433 379.951,13.215 378.931,13.215 C378.081,13.215 377.707,12.671 377.707,11.923 C377.707,11.668 377.741,11.396 377.826,11.107 C377.911,10.818 377.928,10.631 377.928,10.529 C377.928,10.478 377.928,10.444 377.894,10.444 C377.758,10.444 377.112,11.702 377.112,12.654 C377.112,13.742 377.809,14.371 378.897,14.371 C380.444,14.371 382.518,13.062 382.518,11.328 C382.518,10.308 381.719,9.305 379.679,9.305 C378.183,9.305 376.806,9.985 375.497,10.767 C375.48,9.764 375.446,8.727 375.446,7.741 C376.823,7.01 377.282,6.619 377.282,6.075 C377.282,5.803 377.095,5.582 376.721,5.582 L376.602,5.582 C376.279,5.582 375.871,5.497 375.497,5.395 C375.514,5.259 375.514,5.14 375.514,5.038 C375.514,4.188 374.596,3.831 374.137,3.831 C373.627,3.831 373.287,4.188 373.287,4.426 C373.287,4.528 373.406,4.596 373.712,4.596 C374.426,4.596 374.528,5.106 374.664,7.061 C373.814,7.452 373.406,7.571 372.726,7.571 C372.182,7.571 371.74,7.469 371.519,7.384 C371.4,7.333 371.315,7.299 371.247,7.299 C371.196,7.299 371.162,7.333 371.162,7.435 C371.162,8.557 372.301,8.642 372.692,8.642 C373.287,8.642 373.899,8.506 374.715,8.115 C374.732,8.812 374.766,9.56 374.766,10.308 C374.766,10.614 374.766,10.937 374.749,11.243 C372.403,12.705 371.927,12.858 371.74,12.858 C371.638,12.858 371.587,12.807 371.536,12.79 C371.468,12.756 371.4,12.739 371.349,12.739 C371.009,12.739 370.567,13.487 370.567,13.793 C370.567,14.065 370.737,14.269 371.162,14.269 C371.638,14.269 372.148,14.082 372.828,13.64 C373.423,13.81 373.984,14.082 374.222,14.49 C374.375,14.762 374.579,14.932 374.8,14.932 Z M381.26,8.064 C381.345,8.064 381.464,8.013 381.6,7.928 C381.974,7.707 382.382,7.639 382.705,7.554 C383.198,7.435 383.283,7.469 383.572,7.333 C383.793,7.231 383.929,7.061 383.929,6.823 C383.929,6.058 382.892,5.446 381.821,5.446 C380.308,5.446 379.458,6.67 379.458,6.84 C379.458,6.874 379.475,6.891 379.509,6.891 C379.594,6.891 379.764,6.806 379.985,6.636 C380.308,6.381 380.699,6.262 381.107,6.262 C381.396,6.262 381.94,6.33 381.94,6.721 C381.94,7.095 381.583,7.571 381.413,7.741 C381.277,7.877 381.209,7.979 381.209,8.013 C381.209,8.047 381.226,8.064 381.26,8.064 Z M375.463,6.636 L375.463,6.245 C375.463,5.99 375.48,5.769 375.497,5.599 C375.82,5.769 376.058,5.956 376.058,6.092 C376.058,6.296 375.65,6.534 375.463,6.636 Z M374.103,13.555 C373.882,13.555 373.559,13.521 373.117,13.453 C373.627,13.079 374.154,12.603 374.715,12.127 C374.698,12.484 374.681,12.841 374.647,13.198 C374.63,13.419 374.562,13.555 374.103,13.555 Z M387.566,16.088 C387.77,16.088 391.034,15.255 392.343,11.532 C392.955,11.991 393.703,12.756 394.094,13.385 C394.349,13.793 394.655,13.963 394.91,13.963 C395.267,13.963 395.556,13.64 395.556,13.215 C395.556,12.025 393.533,11.413 392.428,11.328 C392.7,10.478 392.836,9.56 392.887,8.625 L395.709,8.625 C395.964,8.625 396.032,8.54 396.032,8.455 C396.032,8.081 395.165,7.248 394.672,7.044 C394.638,7.044 394.604,7.027 394.57,7.027 C394.434,7.027 394.315,7.112 393.771,8.047 C393.72,8.132 393.584,8.2 393.533,8.2 L392.904,8.2 L392.904,7.86 C392.904,7.197 392.921,6.704 392.921,6.092 L392.921694,5.8008688 C392.925857,5.2884898 392.955,5.174 393.159,5.072 C393.346,4.97 393.414,4.885 393.414,4.8 C393.414,4.732 393.38,4.681 393.312,4.63 L395.403,4.63 C395.658,4.63 395.743,4.545 395.743,4.443 C395.743,4.137 394.91,3.338 394.4,3.134 C394.366,3.134 394.332,3.117 394.315,3.117 C394.111,3.117 393.635,3.831 393.499,4.069 C393.448,4.154 393.346,4.205 393.295,4.205 L391.034,4.205 C391.374,3.661 391.663,3.134 391.884,2.692 C391.986,2.488 391.986,2.437 392.224,2.403 C392.547,2.352 392.717,2.216 392.717,2.08 C392.717,1.706 390.881,1.128 390.762,1.128 C390.694,1.128 390.694,1.179 390.694,1.315 C390.694,2.777 389.351,5.803 388.671,6.857 C388.535,7.078 388.467,7.214 388.467,7.265 C388.467,7.282 388.484,7.282 388.501,7.282 C388.569,7.282 389.47,6.67 390.762,4.63 L391.595,4.63 C391.663,5.31 391.697,6.177 391.697,6.619 L391.697,7.792 C391.697,7.928 391.68,8.064 391.68,8.2 C390.847,8.2 389.487,8.132 388.025,7.945 C388.025,8.132 388.501,8.795 388.756,8.795 L388.773,8.795 C390.031,8.659 390.83,8.625 391.629,8.625 L391.663,8.625 C391.51,11.447 390.49,14.286 387.923,15.714 C387.617,15.884 387.481,16.003 387.481,16.054 C387.481,16.088 387.515,16.088 387.566,16.088 Z M397.12,15.799 C397.494,15.799 397.902,15.561 397.902,15.17 C397.902,14.83 397.885,14.354 397.885,13.776 L400.996,13.776 C400.996,14.218 400.979,14.609 400.979,14.915 L400.979,14.932 C400.979,15.306 401.268,15.459 401.574,15.459 C401.999,15.459 402.356,15.204 402.356,14.83 L402.356,14.796 C402.274542,13.2645833 402.224309,9.17265972 402.220264,6.91914887 L402.22,6.636 C402.22,6.058 402.237,5.633 402.237,5.446 C402.254,5.055 402.271,5.038 402.577,4.851 C402.781,4.715 402.934,4.596 402.934,4.443 C402.934,4.001 401.506,3.406 401.455,3.406 C401.37,3.406 401.268,3.423 400.86,3.967 C400.792,4.052 400.707,4.086 400.622,4.086 L398.293,4.086 C398.293,4.069 398.276,4.069 398.276,4.069 L398.259,4.069 C397.749,3.712 396.627,3.304 396.525,3.304 C396.491,3.304 396.474,3.321 396.474,3.355 C396.474,3.372 396.491,3.406 396.491,3.44 C396.627,4.069 396.661,5.259 396.661,5.48 L396.661,7.18 C396.661,9.577 396.644,13.64 396.525,15.204 L396.525,15.272 C396.525,15.646 396.797,15.799 397.12,15.799 Z M401.013,13.334 L397.885,13.334 C397.885,12.3225 397.871984,11.0897344 397.86873,9.88625391 L397.868493,8.802837 C397.8714,7.11387 397.8867,5.6466 397.902,5.157 C397.919,4.732 397.919,4.766 398.14,4.613 L398.242,4.545 L400.724,4.545 C400.928,4.545 400.996,4.664 400.996,4.783 C401.03,5.344 401.03,7.01 401.03,8.863 C401.03,10.376 401.03,12.042 401.013,13.334 Z M412.317,16.241 C415.241,16.241 418.641,14.626 418.641,12.076 C418.641,10.529 417.162,9.594 415.836,9.594 C415.207,9.594 414.527,9.781 413.949,10.155 C413.15,10.665 412.708,11.124 412.3,11.396 C412.096,11.532 411.926,11.617 411.79,11.617 C411.331,11.617 411.263,10.835 411.263,10.291 C411.263,9.594 411.365,8.761 411.467,8.217 C411.603,7.52 411.705,7.146 411.705,6.738 C411.705,6.483 411.671,6.211 411.552,5.837 C411.501,5.667 411.467,5.497 411.467,5.327 C411.467,4.851 411.705,4.273 412.674,4.273 C413.031,4.273 413.507,4.358 413.881,4.477 C414.136,4.579 414.391,4.647 414.595,4.647 C414.952,4.647 415.275,4.29 415.275,3.865 C415.275,2.743 413.15,1.689 412.742,1.689 C412.674,1.689 412.657,1.706 412.657,1.757 C412.657,1.808 412.708,1.927 412.759,2.08 C412.827,2.25 413.031,2.522 413.15,2.794 C413.167,2.862 413.184,2.913 413.184,2.964 C413.184,3.202 412.98,3.372 412.861,3.44 C412.538,3.644 412.198,3.814 411.875,4.018 C411.144,4.494 410.702,5.021 410.702,5.888 C410.702,5.99 410.702,6.092 410.719,6.211 C410.719,6.296 410.736,6.381 410.736,6.466 C410.736,6.959 410.634,7.588 410.583,7.86 C410.447,8.693 410.294,9.764 410.294,10.648 C410.294,12.654 411.331,13.3 411.841,13.3 C412.113,13.3 412.368,13.113 412.623,12.722 C413.711,11.056 414.289,10.223 415.445,10.223 C416.346,10.223 417.315,10.937 417.315,12.059 C417.315,13.963 414.697,15.51 412.776,15.969 C412.317,16.088 412.096,16.156 412.096,16.207 C412.096,16.224 412.181,16.241 412.317,16.241 Z M436.235,13.844 C436.235,13.504 435.861,13.198 435.3,13.198 C435.113,13.198 434.909,13.232 434.688,13.3 C434.416,13.402 433.668,13.589 432.903,13.589 C431.951,13.589 430.948,13.283 430.761,12.11 C430.625,11.294 430.557,10.172 430.54,9.084 C431.696,8.625 433.124,8.183 434.433,7.945 C434.178,9.934 433.719,10.172 433.328,10.172 C432.971,10.172 432.512,9.968 432.036,9.611 C431.866,9.475 431.696,9.39 431.628,9.39 C431.594,9.39 431.577,9.407 431.577,9.424 C431.577,9.492 431.662,9.611 431.866,9.832 C432.223,10.206 432.648,10.852 432.665,11.345 C432.682,11.685 432.92,11.872 433.226,11.872 C434.008,11.872 434.552,11.022 434.807,10.41 C435.096,9.747 435.249,8.744 435.334,7.826 C435.742,7.775 436.15,7.758 436.558,7.758 C437.184571,7.758 437.798653,7.82044898 438.378834,7.96675802 L438.666,8.047 C438.887,8.115 439.091,8.149 439.261,8.149 C439.754,8.149 440.026,7.911 440.026,7.639 C440.026,7.197 439.652,7.044 438.581,6.653 C438.071,6.483 437.374,6.245 436.575,5.701 C436.439,5.599 436.32,5.565 436.269,5.565 C436.218,5.565 436.184,5.582 436.184,5.633 C436.184,5.684 436.235,5.752 436.337,5.854 C436.524,6.024 437.017,6.551 437.017,6.653 C437.017,6.755 436.915,6.772 436.218,6.925 L435.402,7.078 L435.453,6.177 C435.487,5.378 435.572,4.834 435.572,4.46 C435.572,3.406 434.688,3.355 434.501,3.355 C433.974,3.355 433.753,3.746 433.753,3.865 C433.753,3.933 433.821,3.984 433.991,4.035 C434.416,4.171 434.518,5.004 434.518,6.296 C434.518,6.602 434.501,6.925 434.484,7.265 C433.311,7.52 432.257,7.826 430.54,8.336 C430.54,7.826 430.54,7.35 430.557,6.908 L430.557,6.721 C430.557,5.004 429.384,4.987 429.248,4.987 C428.84,4.987 428.466,5.191 428.466,5.378 C428.466,5.446 428.517,5.531 428.619,5.616 C429.316,6.279 429.384,6.381 429.588,8.625 C428.857,8.846 428.16,9.084 427.497,9.322 C427.055,9.475 426.596,9.628 426.086,9.628 C425.746,9.628 425.542,9.594 425.049,9.203 C424.947,9.118 424.845,9.067 424.777,9.067 C424.607,9.067 424.556,9.288 424.556,9.475 C424.556,10.359 425.899,10.835 426.613,10.835 C427.038,10.835 427.378,10.682 427.769,10.444 C428.092,10.24 428.755,9.866 429.656,9.458 C429.741,10.546 429.809,11.651 429.911,12.297 C430.2,14.065 431.543,14.762 433.379,14.762 C434.144,14.762 436.235,14.643 436.235,13.844 Z" id="お知らせ"></path>
        </g>
    </g>
</svg>