<?xml version="1.0" encoding="UTF-8"?>
<svg width="123px" height="17px" viewBox="0 0 123 17" version="1.1" xmlns="http://www.w3.org/2000/svg" xmlns:xlink="http://www.w3.org/1999/xlink">
    <title>gnav-retailer-white</title>
    <g id="Symbols" stroke="none" stroke-width="1" fill="none" fill-rule="evenodd">
        <path d="M5.514,6.874 C5.582,6.874 5.752,6.789 6.007,6.602 C6.738,6.058 7.996,5.378 9.05,5.344 C9.577,5.327 9.917,5.106 9.917,4.834 C9.917,4.375 9.169,3.967 8.438,3.967 C8.183,3.967 7.945,4.001 7.69,4.018 C7.129,4.052 6.568,4.069 6.041,4.069 C5.259,4.069 4.511,4.018 3.831,3.78 C3.593,3.695 3.389,3.627 3.287,3.627 C3.236,3.627 3.219,3.644 3.219,3.678 C3.219,3.712 3.729,4.902 5.599,5.14 C5.82,5.174 6.058,5.174 6.279,5.191 C6.432,5.208 6.5,5.225 6.5,5.293 C6.5,5.378 6.296,5.735 5.718,6.415 C5.548,6.619 5.463,6.755 5.463,6.823 C5.463,6.857 5.48,6.874 5.514,6.874 Z M7.248,15.051 C8.455,15.051 11.107,14.711 11.107,13.64 C11.107,13.283 10.733,13.011 10.104,13.011 C9.985,13.011 9.849,13.028 9.713,13.045 C9.305,13.113 8.948,13.351 8.336,13.504 C7.826,13.623 7.282,13.691 6.738,13.691 C4.885,13.691 2.896,12.96 2.896,11.77 C2.896,11.532 2.981,11.277 3.134,11.022 C3.219,10.869 3.287,10.699 3.287,10.597 C3.287,10.529 3.27,10.495 3.219,10.495 C3.032,10.495 2.267,11.379 2.267,12.229 C2.267,13.844 4.528,15.051 7.248,15.051 Z M20.586,15.68 C20.875,15.68 21.113,15.391 21.113,14.864 C21.113,14.643 21.079,14.388 20.977,14.082 C20.671,13.181 20.569,12.144 20.569,11.107 C20.569,10.274 20.62,9.815 20.739,8.71 C22.728,6.194 24.7,5.361 25.516,5.361 C26.196,5.361 26.57,5.837 26.57,6.704 C26.57,6.976 26.519,7.299 26.451,7.656 C26.196,8.846 25.618,9.968 25.516,11.107 C25.499,11.277 25.499,11.447 25.499,11.617 C25.499,13.317 26.4,14.099 27.556,14.099 C29.953,14.099 31.517,11.277 31.517,11.005 C31.517,10.971 31.5,10.971 31.483,10.971 C31.398,10.971 31.194,11.124 30.769,11.549 C29.868,12.45 28.899,12.909 28.151,12.909 C27.335,12.909 26.774,12.382 26.774,11.345 L26.774,11.226 C26.825,10.087 27.352,8.914 27.539,7.69 C27.573,7.435 27.59,7.197 27.59,6.959 C27.59,5.531 26.859,4.766 25.754,4.766 C24.241,4.766 22.694,6.075 21.793,6.925 C21.844,6.823 21.861,6.704 21.861,6.619 C21.861,6.347 21.674,6.143 21.147,6.109 L21.13,6.109 C21.181,5.786 21.266,5.429 21.351,5.055 C21.453,4.579 21.521,4.188 21.521,3.848 C21.521,2.913 20.705,1.961 19.923,1.961 C19.532,1.961 19.141,2.216 19.141,2.352 C19.141,2.471 19.294,2.573 19.617,2.641 C19.974,2.709 20.552,3.015 20.552,4.511 C20.552,5.038 20.484,5.599 20.433,6.075 L20.416,6.211 C20.093,6.279 18.495,6.721 17.832,7.231 C17.611,7.401 17.492,7.656 17.492,7.945 C17.492,8.149 17.543,8.387 17.679,8.642 C18.036,9.305 18.325,10.002 18.631,10.699 C17.594,12.348 17.101,13.249 17.101,13.997 C17.101,14.354 17.271,14.507 17.475,14.507 C17.866,14.507 18.427,13.997 18.614,13.13 C18.716,12.671 18.852,12.195 19.022,11.753 C19.311,12.603 19.685,13.725 19.702,14.15 C19.719,15.17 20.195,15.68 20.586,15.68 Z M18.835,10.376 C18.223,9.118 18.189,8.455 18.189,8.37 C18.189,8.183 18.24,8.03 18.393,7.911 C18.733,7.639 19.753,7.367 20.178,7.367 C20.195,7.367 20.246,7.367 20.28,7.384 L20.246,7.809 C19.94,8.574 19.209,9.849 18.835,10.376 Z M19.872,12.263 C19.753,12.263 19.26,11.294 19.226,11.226 C19.549,10.427 19.685,10.172 20.059,9.645 C19.974,10.512 19.923,11.362 19.923,11.991 C19.923,12.178 19.906,12.263 19.872,12.263 Z M38.799,16.105 C40.023,16.105 41.4,15.306 41.825,13.98 C42.352,14.32 42.794,14.745 43.1,15.221 C43.338,15.595 43.61,15.748 43.848,15.748 C44.171,15.748 44.426,15.459 44.426,15.068 C44.426,14.201 43.185,13.232 41.876,12.807 C41.859,12.603 41.825,12.399 41.791,12.195 L41.672,11.345 C41.604,10.767 41.553,10.189 41.519,9.628 C43.61,8.999 44.426,8.234 44.426,7.724 C44.426,7.452 44.171,7.248 43.712,7.231 C43.253,7.214 42.624,7.01 42.233,6.84 C42.148,6.806 42.097,6.789 42.063,6.789 C42.029,6.789 42.012,6.789 42.012,6.806 C42.012,6.84 42.046,6.874 42.114,6.925 C42.59,7.333 42.794,7.52 42.794,7.69 C42.794,8.081 41.774,8.438 41.468,8.54 C41.468,8.302 41.451,8.047 41.451,7.809 C41.451,7.316 41.468,6.84 41.519,6.347 C42.216,6.194 43.287,5.786 43.287,5.174 C43.287,5.072 43.27,4.715 42.76,4.715 C42.454,4.715 42.199,4.834 41.876,5.021 L41.689,5.123 C41.774,4.613 41.876,4.052 42.029,3.593 C42.131,3.219 42.233,2.964 42.233,2.709 C42.233,2.267 41.57,1.366 40.975,1.366 C40.533,1.366 40.142,1.876 40.142,1.961 C40.142,2.063 40.278,2.114 40.584,2.216 C40.89,2.335 41.043,2.42 41.043,3.083 C41.043,3.253 41.026,3.559 40.907,4.698 L40.839,5.378 L40.771,5.395 C40.618,5.412 40.465,5.429 40.312,5.429 C39.564,5.429 38.884,5.123 38.17,4.698 C38.068,4.63 37.949,4.528 37.881,4.528 C37.83,4.528 37.813,4.562 37.813,4.63 C37.813,4.715 37.966,6.466 40.414,6.466 C40.533,6.466 40.635,6.449 40.754,6.449 C40.703,7.214 40.686,7.996 40.686,8.761 C39.921,8.982 38.85,9.033 38.544,9.033 C37.83,9.033 37.15,8.931 36.436,8.676 C36.3,8.625 36.147,8.557 36.045,8.557 C35.994,8.557 35.96,8.591 35.96,8.625 C35.96,8.829 36.555,10.036 38.833,10.036 C39.445,10.036 40.346,9.934 40.686,9.832 C40.686,10.342 40.703,10.835 40.737,11.311 C40.754,11.685 40.788,12.144 40.788,12.552 C40.482,12.518 40.159,12.484 39.853,12.484 C37.949,12.484 36.555,13.215 36.555,14.303 C36.555,14.983 37.252,16.105 38.799,16.105 Z M38.51,15.085 C37.694,15.085 37.133,14.694 37.133,14.235 C37.133,13.487 38.527,13.232 39.36,13.232 C39.836,13.232 40.312,13.317 40.771,13.47 C40.499,14.66 39.326,15.085 38.51,15.085 Z M58.959,15.459 C59.554,15.459 61.101,15.306 61.101,14.439 C61.101,14.065 60.744,13.742 60.217,13.742 C60.064,13.742 59.911,13.776 59.741,13.827 C59.401,13.946 59.078,13.997 58.772,13.997 C58.347,13.997 56.137,13.895 56.137,10.427 C56.137,8.302 57.004,5.82 58.126,5.191 C58.568,4.936 59.571,4.715 60.591,4.715 C60.914,4.715 61.22,4.732 61.526,4.783 C61.662,4.8 61.798,4.817 61.917,4.817 C62.563,4.817 62.852,4.511 62.852,4.188 C62.852,3.695 62.189,3.253 60.931,3.253 L60.846,3.253 C60.132,3.287 59.877,3.491 59.452,3.61 C56.953,4.29 54.318,5.735 53.145,6.16 C52.737,6.313 52.38,6.364 52.04,6.364 C51.768,6.364 51.513,6.33 51.275,6.279 C51.156,6.245 51.02,6.211 50.935,6.211 C50.85,6.211 50.782,6.245 50.782,6.415 C50.782,7.044 51.564,7.384 52.38,7.384 C52.771,7.384 53.162,7.316 53.485,7.146 C55.27,6.194 56.885,5.514 57.089,5.514 C57.106,5.514 57.106,5.514 57.106,5.531 C57.106,5.548 57.021,5.616 56.936,5.735 C56.001,6.823 55.338,9.101 55.338,11.09 C55.338,14.354 57.191,15.459 58.959,15.459 Z M63.549,7.367 C63.821,7.367 64.042,7.112 64.042,6.789 C64.042,6.279 63.481,5.667 62.104,5.667 C61.628,5.667 61.339,5.769 61.339,5.82 C61.339,5.871 61.458,5.939 61.611,6.007 C62.07,6.228 62.631,6.636 63.09,7.129 C63.243,7.299 63.413,7.367 63.549,7.367 Z M61.747,8.2 C62.036,8.2 62.257,7.945 62.257,7.622 C62.257,7.061 61.577,6.466 60.251,6.466 C60.217,6.466 59.588,6.466 59.588,6.602 C59.588,6.636 59.707,6.704 59.86,6.789 C60.302,7.027 60.846,7.435 61.288,7.945 C61.441,8.115 61.611,8.2 61.747,8.2 Z M80.198,13.164 C81.473,11.957 82.102,10.376 82.102,8.846 C82.102,6.041 80.045,3.372 76.152,3.372 C71.494,3.372 69.284,7.469 69.284,10.036 C69.284,10.665 69.42,11.226 69.692,11.617 C70.355,12.586 70.695,13.793 71.596,13.793 C73.211,13.793 76.033,9.9 76.033,6.347 C76.033,5.242 75.761,4.358 75.336,4.018 C75.523,4.001 75.71,3.984 75.897,3.984 L75.965,3.984 C79.025,3.984 80.81,6.245 80.81,8.778 C80.81,12.093 78.141,14.218 75.166,15.034 C74.656,15.17 74.401,15.289 74.401,15.374 C74.401,15.408 74.469,15.425 74.639,15.425 C74.792,15.425 78.022,15.204 80.198,13.164 Z M71.715,12.161 C70.984,12.161 70.219,11.022 70.219,9.526 C70.219,7.401 71.732,4.97 74.35,4.205 L74.418,4.188 C74.452,4.188 74.503,4.171 74.554,4.154 C74.605,4.137 74.656,4.137 74.707,4.137 C75.217,4.137 75.319,4.834 75.319,5.599 C75.319,8.608 72.888,12.161 71.715,12.161 Z M89.537,16.224 C89.962,16.224 90.37,15.918 90.37,15.493 L90.37,15.459 C90.3548889,14.6732222 90.3397778,13.6590988 90.3366063,12.5837846 L90.336,12.178 C90.336,9.951 90.37,7.52 90.438,6.177 C90.455,5.786 90.455,5.735 90.727,5.616 C90.965,5.514 91.101,5.395 91.101,5.293 C91.101,5.174 90.982,5.072 90.268,4.902 C90.71,4.222 91.118,3.542 91.475,2.828 C91.628,2.539 91.662,2.471 91.883,2.42 C92.155,2.352 92.308,2.284 92.359,2.199 C92.444,2.913 92.495,3.933 92.495,4.375 L92.4941728,6.70770962 C92.4881871,9.51796597 92.4476957,13.4847826 92.308,15.425 L92.308,15.493 C92.308,15.901 92.563,16.071 92.852,16.071 C93.226,16.071 93.634,15.799 93.634,15.374 L93.634,14.728 L100.196,14.728 L100.196,15.374 C100.196,15.782 100.468,15.969 100.757,15.969 C101.131,15.969 101.522,15.697 101.522,15.238 L101.522,15.204 C101.456429,13.5975 101.390857,9.30374235 101.386257,6.45353886 L101.386645,5.23746163 C101.390836,3.53965778 101.422267,3.47286667 101.658,3.355 C101.947,3.202 102.151,3.066 102.151,2.879 C102.151,2.471 100.859,1.723 100.672,1.723 C100.587,1.723 100.417,1.774 100.06,2.301 C100.009,2.369 99.924,2.471 99.822,2.471 L94.11,2.471 L94.025,2.403 C93.651,2.131 92.58,1.587 92.325,1.587 C92.291,1.587 92.274,1.604 92.274,1.655 C92.274,1.655 92.274,1.689 92.342,1.995 L92.206,1.859 C91.9,1.621 90.693,1.077 90.54,1.077 C90.455,1.077 90.472,1.128 90.455,1.213 C90.421,1.57 90.336,2.131 90.2,2.488 C89.35,4.817 87.803,7.452 86.596,8.778 C86.477,8.914 86.409,8.999 86.409,9.05 C86.409,9.067 86.426,9.084 86.46,9.084 C86.681,9.084 87.939,8.081 89.265,6.33 L89.265,7.231 C89.265,9.526 89.129,13.232 88.942,15.493 L88.942,15.578 C88.942,16.037 89.231,16.224 89.537,16.224 Z M100.196,14.286 L93.634,14.286 L93.634,12.178 C93.634,8.795 93.651,4.562 93.685,3.61 C93.702,3.185 93.702,3.151 94.076,2.913 L99.941,2.913 C100.077,2.913 100.179,2.998 100.179,3.168 C100.213,3.984 100.213,5.905 100.213,8.064 C100.213,10.206 100.213,12.569 100.196,14.286 Z M95.912,12.637 L95.912,12.178 L97.833,12.178 C97.833,12.314 97.816,12.433 97.816,12.569 L97.816,12.586 C97.816,12.926 98.037,13.079 98.292,13.079 C98.598,13.079 98.955,12.858 98.955,12.45 L98.955,12.416 C98.921,11.736 98.853,10.784 98.853,10.189 C98.853,9.679 98.904,9.628 99.142,9.441 C99.312,9.322 99.414,9.203 99.414,9.05 C99.414,8.676 98.377,8.064 98.207,8.064 C98.088,8.064 97.85,8.438 97.765,8.574 C97.714,8.659 97.629,8.71 97.561,8.71 L97.408,8.71 L97.408,6.415 L99.601,6.415 C99.839,6.415 99.924,6.313 99.924,6.194 C99.924,5.82 98.972,4.987 98.632,4.987 C98.428,4.987 97.986,5.769 97.952,5.837 C97.901,5.922 97.799,5.99 97.731,5.99 L97.408,5.99 C97.408,4.8 97.408,4.664 97.714,4.511 C97.918,4.409 98.071,4.29 98.071,4.171 C98.071,3.848 96.405,3.559 96.201,3.559 C96.184,3.559 96.167,3.576 96.167,3.61 C96.167,3.627 96.167,3.661 96.184,3.712 C96.354,4.511 96.354,5.412 96.354,5.973 C95.691,5.956 94.943,5.888 93.974,5.735 C93.974,5.939 94.382,6.568 94.671,6.568 L94.688,6.568 C95.419,6.466 95.861,6.432 96.354,6.415 L96.354,8.71 L96.184,8.71 L96.184,8.693 C95.827,8.421 94.926,7.962 94.756,7.962 C94.739,7.962 94.722,7.979 94.722,8.013 C94.722,8.047 94.739,8.064 94.739,8.115 C94.858,8.727 94.892,9.662 94.892,9.866 C94.892,10.665 94.858,11.685 94.773,12.654 L94.773,12.739 C94.773,13.079 94.994,13.232 95.249,13.232 C95.283,13.232 95.912,13.198 95.912,12.637 Z M97.833,11.736 L95.912,11.736 C95.89925,11.379 95.8960625,11.0315625 95.8952656,10.7152031 L95.895,10.41 C95.895,9.424 95.912,9.407 96.133,9.22 C96.167,9.186 96.218,9.169 96.235,9.135 L97.663,9.135 C97.765,9.135 97.833,9.237 97.833,9.339 C97.85,9.628 97.85,9.951 97.85,10.274 C97.85,10.733 97.85,11.243 97.833,11.736 Z M106.041,15.714 C106.16,15.714 110.223,13.674 110.223,5.106 L110.223,4.953 L118.145,4.953 L118.145,5.259 C118.145,5.633 118.417,5.786 118.74,5.786 C118.859,5.786 119.556,5.701 119.556,5.123 L119.556,5.089 C119.522,4.732 119.437,3.882 119.437,3.44 C119.437,3.032 119.488,2.964 119.828,2.811 C120.083,2.675 120.236,2.539 120.236,2.386 C120.236,1.995 118.876,1.247 118.672,1.247 C118.604,1.247 118.468,1.315 118.06,1.825 C118.009,1.893 117.89,1.995 117.771,1.995 L110.631,1.995 L110.58,1.944 C110.223,1.74 108.897,1.145 108.574,1.145 C108.54,1.145 108.54,1.162 108.54,1.196 C108.54,1.213 108.54,1.264 108.557,1.315 C108.727,1.944 108.897,3.865 108.897,5.718 C108.897,8.863 108.404,12.994 106.296,15.289 C106.092,15.51 106.007,15.629 106.007,15.68 C106.007,15.697 106.024,15.714 106.041,15.714 Z M118.162,4.511 L110.223,4.511 C110.223,4.222 110.223,3.967 110.206,3.729 C110.189,3.491 110.189,3.287 110.189,3.151 C110.189,2.743 110.24,2.692 110.648,2.42 L117.873,2.42 C118.06,2.42 118.162,2.505 118.162,2.675 C118.179,2.845 118.179,3.151 118.179,3.474 C118.179,3.814 118.179,4.171 118.162,4.511 Z M109.883,16.343 C110.019,16.343 110.087,16.139 110.223,16.105 C112.28,15.476 114.762,14.558 116.139,13.844 C117.737,15.833 119.811,16.207 119.947,16.207 C120.049,16.207 120.134,16.156 120.219,16.071 C120.678,15.595 122.157,15.204 122.157,15.068 C122.157,15.051 122.123,15.034 122.038,15.034 C119.386,14.847 117.703,14.133 116.581,13.096 C117.465,12.977 118.638,12.739 119.131,12.603 C119.182,12.586 119.216,12.586 119.25,12.586 C119.335,12.586 119.403,12.62 119.505,12.654 C119.641,12.705 119.743,12.722 119.828,12.722 C119.981,12.722 120.066,12.654 120.066,12.535 C120.066,12.314 119.029,11.005 118.825,11.005 C118.791,11.005 118.774,11.039 118.74,11.09 C118.298,11.804 117.346,12.331 116.309,12.841 C115.748,12.263 115.357,11.583 115.017,10.869 L120.576,10.869 C120.848,10.869 120.933,10.767 120.933,10.665 C120.933,10.257 119.777,9.305 119.403,9.305 C119.301,9.305 119.046,9.458 118.468,10.308 C118.417,10.393 118.298,10.461 118.196,10.461 L116.785,10.461 C116.768,9.9 116.768,9.067 116.768,8.319 L119.641,8.319 C119.913,8.319 119.981,8.2 119.981,8.098 C119.981,7.724 118.893,6.806 118.536,6.806 C118.417,6.806 118.332,6.857 117.669,7.741 C117.618,7.826 117.533,7.894 117.431,7.894 L116.768,7.894 C116.768,7.52 116.785,7.197 116.802,6.959 C116.836,6.415 116.853,6.5 117.142,6.33 C117.312,6.228 117.431,6.126 117.431,6.024 C117.431,5.667 115.68,5.429 115.476,5.429 C115.459,5.429 115.442,5.446 115.442,5.463 C115.442,5.48 115.459,5.514 115.476,5.582 C115.629,6.16 115.646,6.959 115.646,7.571 L115.646,7.894 L113.589,7.894 C113.589,7.537 113.606,7.197 113.623,6.959 C113.657,6.415 113.674,6.5 113.963,6.33 C114.133,6.228 114.252,6.126 114.252,6.024 C114.252,5.667 112.501,5.429 112.297,5.429 C112.28,5.429 112.263,5.446 112.263,5.463 C112.263,5.48 112.28,5.514 112.297,5.582 C112.45,6.16 112.467,6.959 112.467,7.571 L112.484,7.843 C111.753,7.809 110.937,7.741 110.189,7.656 C110.189,7.86 110.648,8.472 110.937,8.472 L110.954,8.472 C111.498,8.421 112.008,8.37 112.484,8.353 C112.484,8.965 112.484,9.764 112.467,10.41 C111.549,10.376 110.529,10.308 109.679,10.206 C109.679,10.41 110.138,11.039 110.427,11.039 L110.444,11.039 C110.937,10.988 111.481,10.954 111.991,10.937 C112.042,11.209 112.042,11.532 112.042,12.229 C112.059,12.722 112.059,13.113 112.059,13.453 C112.059,13.81 112.059,14.133 112.042,14.49 C110.308,14.762 110.308,14.762 108.88,14.762 C108.829,14.762 108.795,14.762 108.795,14.796 C108.795,15.051 109.662,16.343 109.883,16.343 Z M115.646,10.461 L114.439,10.461 C114.218,10.461 113.946,10.444 113.606,10.444 C113.589,9.9 113.589,9.084 113.589,8.319 C113.895,8.319 114.167,8.302 114.422,8.302 L115.663,8.319 C115.663,8.948 115.663,9.798 115.646,10.461 Z M113.198,14.269 C113.198,13.844 113.181,13.504 113.181,13.215 C113.181,11.481 113.232,11.379 113.385,11.311 C113.555,11.243 113.657,11.141 113.657,11.056 C113.657,10.988 113.623,10.937 113.504,10.886 C113.827,10.886 114.133,10.869 114.371,10.869 L114.711,10.869 C114.966,11.906 115.408,12.858 115.986,13.64 C115.204,13.861 114.218,14.065 113.198,14.269 Z" id="これまでの個展" fill="#FFFFFF" fill-rule="nonzero"></path>
    </g>
</svg>