<?xml version="1.0" encoding="UTF-8"?>
<svg width="78px" height="17px" viewBox="0 0 78 17" version="1.1" xmlns="http://www.w3.org/2000/svg" xmlns:xlink="http://www.w3.org/1999/xlink">
    <title>gnav-onlineshop-white</title>
    <g id="Symbols" stroke="none" stroke-width="1" fill="none" fill-rule="evenodd">
        <path d="M10.506,13.674 C11.067,13.674 11.203,13.215 11.203,13.062 C11.169,12.399 11.152,11.158 11.135,9.849 L13.43,9.849 C13.43,10.546 13.43,11.175 13.413,11.634 C13.396,12.093 13.175,12.246 12.716,12.246 C12.41,12.246 12.002,12.178 11.492,12.093 C11.441,12.076 11.407,12.076 11.373,12.076 C11.339,12.076 11.322,12.093 11.322,12.11 C11.322,12.229 12.41,12.824 12.648,13.283 C12.75,13.47 12.818,13.521 12.971,13.521 C13.396,13.521 14.62,13.198 14.62,11.889 L14.62,11.855 C14.62,11.549 14.552,10.937 14.552,10.58 C14.552,10.1363 14.53823,9.37589 14.535476,8.596202 L14.5357138,7.46369626 C14.5401748,5.8969346 14.5725172,5.81355172 14.807,5.667 C15.011,5.548 15.181,5.429 15.181,5.276 C15.181,4.817 13.974,4.256 13.855,4.256 C13.719,4.256 13.481,4.562 13.345,4.749 C13.294,4.817 13.209,4.902 13.107,4.902 L11.305,4.902 C11.373,4.783 11.424,4.647 11.424,4.494 C11.424,4.341 11.373,4.171 11.254,4.001 C11.815,3.78 12.529,3.423 12.903,3.287 C13.26,3.151 13.532,3.1 13.787,3.083 C14.144,3.066 14.297,2.896 14.297,2.709 C14.297,2.267 13.124,1.434 12.937,1.434 C12.852,1.434 12.801,1.485 12.444,1.842 C12.359,1.927 12.257,1.978 12.121,1.978 L10.3095817,1.97723662 C9.50502493,1.97234903 7.85668421,1.93952632 6.29,1.757 C6.29,1.978 6.749,2.539 7.004,2.539 L7.021,2.539 C8.449,2.42 9.486,2.42 10.642,2.42 L11.985,2.42 C12.087,2.42 12.121,2.471 12.121,2.522 C12.121,2.624 11.577,3.304 11.084,3.797 C10.778,3.491 9.707,3.1 8.704,3.049 C8.585,3.049 8.517,3.066 8.517,3.1 C8.517,3.117 8.551,3.151 8.619,3.202 C9.061,3.508 9.724,4.052 10.115,4.664 C10.183,4.766 10.234,4.834 10.302,4.902 L8.126,4.902 C7.667,4.596 6.63,4.188 6.528,4.188 C6.494,4.188 6.477,4.205 6.477,4.239 C6.477,4.273 6.494,4.307 6.494,4.341 C6.613,4.885 6.681,6.228 6.681,6.449 C6.698,6.993 6.698,7.758 6.698,8.625 C6.698,10.07 6.681,11.77 6.579,13.147 L6.579,13.198 C6.579,13.521 6.834,13.657 7.106,13.657 C7.395,13.657 7.854,13.47 7.854,13.045 L7.854,13.028 C7.837,12.093 7.82,10.954 7.82,9.849 L10.03,9.849 L9.962,13.113 L9.962,13.13 C9.962,13.504 10.217,13.674 10.506,13.674 Z M4.556,4.596 C4.947,4.596 5.253,4.256 5.253,3.831 C5.253,2.471 2.635,2.08 1.989,2.08 C1.887,2.08 1.836,2.097 1.836,2.131 C1.836,2.165 1.87,2.216 1.955,2.267 C2.465,2.624 3.264,3.304 3.723,4.018 C3.995,4.443 4.301,4.596 4.556,4.596 Z M13.43,7.197 L11.101,7.197 C11.101,6.789 11.118,6.432 11.118,6.126 C11.118,5.837 11.152,5.786 11.305,5.701 C11.424,5.633 11.509,5.548 11.509,5.48 C11.509,5.429 11.475,5.378 11.39,5.344 L13.192,5.344 C13.379,5.344 13.413,5.463 13.413,5.565 C13.43,5.922 13.43,6.5 13.43,7.197 Z M10.013,7.197 L7.82,7.197 L7.82048623,6.80973757 C7.82424197,5.56978828 7.85326087,5.50365217 8.024,5.395 L8.075,5.344 L9.945,5.344 C9.996,5.769 10.013,6.602 10.013,6.84 L10.013,7.197 Z M13.43,9.424 L11.118,9.424 C11.118,8.812 11.101,8.2 11.101,7.639 L13.43,7.639 L13.43,9.424 Z M10.03,9.424 L7.803,9.424 L7.803,7.639 L10.03,7.639 L10.03,9.424 Z M2.057,15.969 C2.227,15.969 2.244,15.646 2.295,15.578 C3.026,14.745 3.995,13.64 4.386,13.045 C4.76,14.405 6.018,15.493 7.939,15.782 C8.755,15.901 9.673,15.952 10.574,15.952 C12.665,15.952 14.654,15.714 14.79,15.68 C14.977,15.646 15.113,15.51 15.181,15.374 C15.504,14.694 16.643,13.929 16.643,13.793 C16.643,13.776 16.626,13.776 16.592,13.776 C16.558,13.776 16.507,13.793 16.422,13.81 C14.501,14.388 11.679,14.694 9.486,14.694 C8.211,14.694 4.76,14.609 4.76,12.586 L4.76,11.94 C4.76,11.158 4.777,10.24 4.845,9.628 C4.879,9.254 5.032,9.271 5.304,9.135 C5.474,9.05 5.661,8.948 5.661,8.778 C5.661,8.353 4.301,7.69 4.165,7.69 C4.097,7.69 4.029,7.707 3.604,8.183 C3.536,8.268 3.434,8.336 3.332,8.336 L3.128,8.336 C2.788,8.336 1.615,8.183 1.02,8.098 C1.02,8.336 1.496,8.999 1.768,8.999 L1.785,8.999 C2.108,8.982 2.822,8.812 3.111,8.812 L3.349,8.812 C3.468,8.812 3.553,8.88 3.553,8.999 L3.553,9.611 C3.553,12.484 3.536,12.875 3.264,13.079 C2.482,13.691 1.394,14.303 0.646,14.473 C0.561,14.49 0.527,14.524 0.527,14.558 C0.527,14.779 1.904,15.969 2.057,15.969 Z M24.207,16.19 C24.734,16.19 25.057,15.833 25.057,15.425 C25.0305556,14.6448889 25.024679,13.6693827 25.0233731,12.6424568 L25.0239873,10.9355493 C25.02844,9.16597778 25.0490667,7.43726667 25.108,6.347 C25.125,5.956 25.125,5.905 25.397,5.786 C25.635,5.684 25.771,5.565 25.771,5.446 C25.771,5.225 24.972,5.072 24.751,5.038 C25.244,4.358 25.72,3.627 26.179,2.845 C26.349,2.556 26.417,2.488 26.638,2.437 C27.029,2.352 27.199,2.233 27.199,2.097 C27.199,1.74 25.448,0.975 25.278,0.975 C25.227,0.975 25.244,1.026 25.227,1.128 C24.989,2.879 22.558,7.078 20.926,8.71 C20.79,8.846 20.722,8.948 20.722,8.982 C20.722,8.999 20.722,9.016 20.739,9.016 C20.773,9.016 22.116,8.319 23.918,6.126 L23.918,7.129 C23.918,9.441 23.782,13.13 23.595,15.459 L23.595,15.544 C23.595,16.003 23.884,16.19 24.207,16.19 Z M28.151,2.879 C29.018,2.794 30.208,2.726 30.752,2.726 L34.56,2.726 C34.849,2.726 34.917,2.607 34.917,2.505 C34.917,2.182 33.829,1.247 33.455,1.247 C33.166,1.247 32.69,1.995 32.588,2.165 C32.537,2.25 32.435,2.301 32.384,2.301 L30.684,2.301 C30.123,2.301 28.593,2.25 27.505,2.063 C27.505,2.318 27.896,2.879 28.134,2.879 L28.151,2.879 Z M26.587,5.208 C27.811,5.072 29.664,5.055 30.31,5.055 L36.294,5.055 C36.583,5.055 36.668,4.97 36.668,4.868 C36.668,4.613 35.716,3.712 35.138,3.508 C35.104,3.491 35.07,3.491 35.036,3.491 C34.764,3.491 34.152,4.443 34.118,4.494 C34.067,4.579 33.948,4.63 33.897,4.63 L30.225,4.63 C29.545,4.63 27.522,4.579 25.907,4.392 C25.907,4.596 26.349,5.208 26.57,5.208 L26.587,5.208 Z M28.219,7.316 C29.086,7.231 30.276,7.163 30.82,7.163 L34.475,7.163 C34.747,7.163 34.832,7.061 34.832,6.942 C34.832,6.687 33.761,5.735 33.387,5.735 C33.2,5.735 32.741,6.279 32.554,6.602 C32.503,6.687 32.401,6.738 32.35,6.738 L30.735,6.738 C30.174,6.738 28.865,6.687 27.556,6.5 C27.556,6.789 27.998,7.316 28.202,7.316 L28.219,7.316 Z M28.219,9.543 C29.137,9.424 30.276,9.39 30.82,9.39 L34.475,9.39 C34.747,9.39 34.832,9.288 34.832,9.169 C34.832,8.744 33.574,7.962 33.404,7.962 C33.064,7.962 32.571,8.795 32.554,8.829 C32.503,8.914 32.401,8.965 32.35,8.965 L30.735,8.965 C30.174,8.965 28.814,8.931 27.556,8.727 C27.556,8.982 27.981,9.543 28.202,9.543 L28.219,9.543 Z M28.083,16.224 C28.423,16.224 28.882,16.02 28.882,15.663 L28.882,15.646 L28.865,14.915 L33.387,14.915 C33.387,15.153 33.37,15.391 33.37,15.646 L33.37,15.663 C33.37,16.02 33.642,16.173 33.948,16.173 C34.254,16.173 34.73,15.969 34.73,15.561 L34.73,15.527 C34.662,14.507 34.611,13.47 34.611,12.807 C34.611,12.144 34.611,12.127 34.934,11.923 C35.138,11.787 35.291,11.668 35.291,11.532 C35.291,11.141 34.016,10.529 33.829,10.529 C33.642,10.529 33.285,11.022 33.251,11.056 C33.183,11.158 33.115,11.175 33.03,11.175 L29.273,11.175 C29.273,11.158 29.256,11.158 29.256,11.158 L29.222,11.158 C28.814,10.886 27.675,10.41 27.471,10.41 C27.454,10.41 27.437,10.427 27.437,10.444 C27.437,10.478 27.454,10.495 27.454,10.546 C27.59,11.141 27.641,12.382 27.641,12.603 C27.641,13.436 27.641,14.099 27.505,15.68 L27.505,15.731 C27.505,16.088 27.777,16.224 28.083,16.224 Z M33.387,14.473 L28.865,14.473 C28.865,14.167 28.848,13.861 28.848,13.538 L28.8484316,12.9822461 C28.8514531,11.8531406 28.875625,11.840125 29.069,11.736 L29.205,11.634 L33.183,11.634 C33.319,11.634 33.387,11.736 33.387,11.855 C33.404,12.144 33.421,12.45 33.421,12.79 C33.421,13.283 33.404,13.844 33.387,14.473 Z M43.535,12.178 C43.892,12.178 44.3,11.906 44.3,11.498 L44.3,11.243 L46.34,11.243 L46.34,11.481 C46.34,11.872 46.578,12.042 46.85,12.042 C47.377,12.042 47.581,11.634 47.581,11.345 L47.581,11.311 C47.513,9.832 47.462,6.857 47.462,4.868 C47.462,4.239 47.462,3.712 47.479,3.355 C47.496,2.998 47.496,2.998 47.768,2.794 C47.955,2.658 48.108,2.556 48.108,2.403 C48.108,2.046 46.969,1.417 46.731,1.417 C46.612,1.417 46.561,1.502 46.221,1.944 C46.153,2.046 46.051,2.08 45.983,2.08 L44.691,2.08 L44.64,2.046 C44.402,1.859 43.144,1.264 42.991,1.264 C42.957,1.264 42.94,1.281 42.94,1.315 C42.94,1.349 42.957,1.366 42.957,1.417 C43.076,1.978 43.144,3.083 43.144,6.432 C43.144,8.081 43.127,9.968 43.025,11.566 L43.025,11.634 C43.025,12.008 43.263,12.178 43.535,12.178 Z M47.87,16.071 C48.227,16.071 50.76,15.595 52.851,12.909 C54.058,14.881 55.452,15.731 55.656,15.731 C55.724,15.731 55.792,15.697 55.843,15.646 C56.353,15.119 57.679,15 57.679,14.881 C57.679,14.864 57.645,14.83 57.56,14.813 C55.758,14.252 54.432,13.232 53.48,12.008 C54.364,10.631 54.993,8.999 55.384,7.282 C55.452,7.01 55.537,7.061 55.758,6.942 C55.962,6.84 56.047,6.721 56.047,6.602 C56.047,6.262 54.823,5.497 54.585,5.497 C54.534,5.497 54.364,5.599 54.177,5.888 C54.126,5.956 54.041,6.024 53.922,6.024 L50.352,6.024 C50.352,5.361 50.352,4.715 50.335,4.103 L50.335,3.576 C50.352,3.321 50.369,3.219 50.743,2.981 L56.455,2.981 C56.727,2.981 56.812,2.879 56.812,2.777 C56.812,2.369 55.605,1.383 55.231,1.383 C55.078,1.383 54.857,1.672 54.381,2.403 C54.33,2.488 54.211,2.539 54.16,2.539 L50.794,2.539 L50.709,2.488 C50.063,2.063 49.111,1.638 48.941,1.638 C48.907,1.638 48.89,1.655 48.89,1.689 C48.89,1.723 48.89,1.757 48.907,1.808 C49.128,2.777 49.196,5.242 49.196,6.704 C49.196,10.155 48.805,13.657 46.612,15.561 C46.374,15.765 46.289,15.884 46.289,15.935 C46.289,15.952 46.289,15.969 46.323,15.969 C46.408,15.969 46.595,15.867 46.833,15.731 C49.808,13.844 50.301,9.951 50.352,6.483 L51.015,6.483 C51.117,8.353 51.559,10.257 52.341,11.923 C51.321,13.657 49.944,15.017 48.329,15.714 C47.972,15.867 47.785,15.986 47.785,16.037 C47.785,16.054 47.819,16.071 47.87,16.071 Z M46.391,4.97 L44.283,4.97 L44.2836443,4.16733236 C44.2875102,2.79434694 44.3145714,2.73814286 44.504,2.607 C44.538,2.573 44.572,2.556 44.606,2.539 L46.187,2.539 C46.323,2.539 46.357,2.641 46.357,2.76 C46.374,3.253 46.391,4.052 46.391,4.97 Z M46.374,7.588 L44.283,7.588 C44.283,6.823 44.266,6.075 44.266,5.412 L46.391,5.412 C46.391,6.092 46.374,6.84 46.374,7.588 Z M52.817,11.039 C51.967,9.594 51.491,7.962 51.253,6.483 L53.939,6.483 C54.058,6.483 54.126,6.517 54.126,6.636 C54.126,7.197 53.599,9.441 52.817,11.039 Z M46.34,10.784 L44.3,10.784 C44.3,9.934 44.283,8.982 44.283,8.03 L46.374,8.03 C46.374,9.016 46.357,9.968 46.34,10.784 Z M47.122,14.303 C47.428,14.303 47.7,14.031 47.7,13.657 C47.7,12.552 45.456,12.195 45.388,12.195 C45.337,12.195 45.286,12.212 45.286,12.246 C45.286,12.28 45.337,12.348 45.422,12.416 C46.034,12.926 46.357,13.402 46.578,13.878 C46.731,14.184 46.935,14.303 47.122,14.303 Z M41.461,16.071 C41.699,16.071 43.263,15.272 44.674,13.708 C44.827,13.538 44.878,13.487 44.997,13.487 L45.184,13.487 C45.422,13.487 45.524,13.436 45.524,13.317 C45.524,12.96 44.113,12.229 44.011,12.229 C43.977,12.229 43.96,12.263 43.943,12.331 C43.552,13.81 42.073,15.408 41.614,15.799 C41.478,15.918 41.41,16.003 41.41,16.037 C41.41,16.054 41.427,16.071 41.461,16.071 Z M64.869,6.041 C66.28,5.99 68.388,5.854 69.272,5.854 L75.103,5.854 C75.375,5.854 75.443,5.752 75.443,5.65 C75.443,5.344 74.321,4.307 73.879,4.307 C73.743,4.307 73.573,4.443 72.944,5.276 C72.893,5.361 72.791,5.429 72.689,5.429 L70.479,5.429 L70.479,3.525 L76.293,3.525 C76.582,3.525 76.65,3.423 76.65,3.304 C76.65,2.981 75.494,1.842 75.035,1.842 C74.984,1.842 74.933,1.859 74.882,1.893 C74.61,2.114 74.27,2.658 74.066,2.947 C74.015,3.032 73.896,3.1 73.794,3.1 L70.479,3.1 C70.479,2.675 70.496,2.352 70.496,2.301 C70.513,1.808 70.598,1.893 70.904,1.706 C71.108,1.587 71.21,1.468 71.21,1.366 C71.21,0.873 69.119,0.686 69.068,0.686 C69.034,0.686 69.017,0.703 69.017,0.72 C69.017,0.754 69.034,0.788 69.051,0.873 C69.153,1.434 69.204,2.097 69.221,2.845 L69.221,3.1 L68.354,3.1 C67.402,3.1 64.716,3.032 63.067,2.828 C63.067,3.049 63.543,3.712 63.832,3.712 L63.849,3.712 C65.277,3.559 67.368,3.525 68.286,3.525 L69.221,3.525 L69.221,5.429 C68.184,5.429 65.634,5.361 64.087,5.157 C64.087,5.378 64.563,6.041 64.852,6.041 L64.869,6.041 Z M63.288,10.359 C64.138,10.359 64.971,9.356 65.056,7.979 L74.508,7.979 C74.559,7.979 74.61,8.013 74.61,8.081 C74.61,8.421 73.539,9.9 73.369,10.138 C73.318,10.206 73.301,10.24 73.301,10.274 C73.301,10.291 73.318,10.308 73.352,10.308 C73.386,10.308 73.437,10.291 73.488,10.257 C74.304,9.832 75.613,8.812 76.276,8.744 C76.803,8.693 77.024,8.54 77.024,8.336 C77.024,7.724 75.562,6.959 75.375,6.959 C75.239,6.959 75.086,7.061 74.763,7.435 C74.695,7.503 74.576,7.554 74.491,7.554 L65.056,7.554 C65.022,6.925 64.852,6.415 64.767,6.415 C64.716,6.415 64.665,6.5 64.631,6.67 C64.478,7.605 63.985,8.2 63.101,8.88 C62.727,9.169 62.574,9.475 62.574,9.73 C62.574,10.087 62.863,10.359 63.288,10.359 Z M73.301,15.918 C76.667,15.918 77.194,15.153 77.194,14.66 C77.194,14.439 77.058,14.235 76.786,14.065 C76.327,13.793 76.31,11.719 76.208,11.719 C76.191,11.719 76.157,11.77 76.14,11.889 C75.919,13.096 75.732,14.49 74.899,14.643 C74.389,14.745 73.896,14.779 73.454,14.779 C71.6507857,14.779 71.5547704,14.5893112 71.5502122,13.5240055 L71.55,13.402 C71.55,12.28 71.601,10.767 71.635,10.206 C71.652,9.883 71.686,9.798 71.856,9.73 C72.06,9.645 72.213,9.509 72.213,9.39 C72.213,9.05 70.581,8.812 70.343,8.812 C70.275,8.812 70.258,8.812 70.258,8.846 C70.258,8.863 70.275,8.914 70.292,8.965 C70.3794286,9.50414286 70.3919184,10.0557755 70.3937026,10.502137 L70.394,10.716 C70.394,11.073 70.36,12.348 70.326,14.031 L70.326,14.099 C70.326,15.493 71.329,15.918 73.301,15.918 Z M62.234,16.377 C62.353,16.377 62.506,16.36 62.744,16.326 C66.552,15.816 68.541,13.759 68.711,10.291 C68.728,9.798 68.796,9.781 69.017,9.662 C69.17,9.577 69.255,9.475 69.255,9.39 C69.255,8.982 67.589,8.846 67.436,8.846 C67.351,8.846 67.317,8.846 67.317,8.914 L67.317,8.965 C67.368,9.271 67.419,9.577 67.419,10.155 C67.385,13.028 65.651,15.255 62.625,16.088 C62.285,16.19 62.064,16.275 62.064,16.326 C62.064,16.36 62.132,16.377 62.234,16.377 Z" id="通信販売" fill="#FFFFFF" fill-rule="nonzero"></path>
    </g>
</svg>