<?xml version="1.0" encoding="UTF-8"?>
<svg width="113px" height="17px" viewBox="0 0 113 17" version="1.1" xmlns="http://www.w3.org/2000/svg" xmlns:xlink="http://www.w3.org/1999/xlink">
    <title>gnav-contact-white</title>
    <g id="Symbols" stroke="none" stroke-width="1" fill="none" fill-rule="evenodd">
        <path d="M4.8,14.932 C5.021,14.932 5.548,14.779 5.548,13.521 L5.548,13.419 L5.514,11.617 C6.721,10.648 8.013,9.781 9.407,9.781 C10.41,9.781 11.413,10.223 11.413,11.158 C11.413,12.433 9.951,13.215 8.931,13.215 C8.081,13.215 7.707,12.671 7.707,11.923 C7.707,11.668 7.741,11.396 7.826,11.107 C7.911,10.818 7.928,10.631 7.928,10.529 C7.928,10.478 7.928,10.444 7.894,10.444 C7.758,10.444 7.112,11.702 7.112,12.654 C7.112,13.742 7.809,14.371 8.897,14.371 C10.444,14.371 12.518,13.062 12.518,11.328 C12.518,10.308 11.719,9.305 9.679,9.305 C8.183,9.305 6.806,9.985 5.497,10.767 C5.48,9.764 5.446,8.727 5.446,7.741 C6.823,7.01 7.282,6.619 7.282,6.075 C7.282,5.803 7.095,5.582 6.721,5.582 L6.602,5.582 C6.279,5.582 5.871,5.497 5.497,5.395 C5.514,5.259 5.514,5.14 5.514,5.038 C5.514,4.188 4.596,3.831 4.137,3.831 C3.627,3.831 3.287,4.188 3.287,4.426 C3.287,4.528 3.406,4.596 3.712,4.596 C4.426,4.596 4.528,5.106 4.664,7.061 C3.814,7.452 3.406,7.571 2.726,7.571 C2.182,7.571 1.74,7.469 1.519,7.384 C1.4,7.333 1.315,7.299 1.247,7.299 C1.196,7.299 1.162,7.333 1.162,7.435 C1.162,8.557 2.301,8.642 2.692,8.642 C3.287,8.642 3.899,8.506 4.715,8.115 C4.732,8.812 4.766,9.56 4.766,10.308 C4.766,10.614 4.766,10.937 4.749,11.243 C2.403,12.705 1.927,12.858 1.74,12.858 C1.638,12.858 1.587,12.807 1.536,12.79 C1.468,12.756 1.4,12.739 1.349,12.739 C1.009,12.739 0.567,13.487 0.567,13.793 C0.567,14.065 0.737,14.269 1.162,14.269 C1.638,14.269 2.148,14.082 2.828,13.64 C3.423,13.81 3.984,14.082 4.222,14.49 C4.375,14.762 4.579,14.932 4.8,14.932 Z M11.26,8.064 C11.345,8.064 11.464,8.013 11.6,7.928 C11.974,7.707 12.382,7.639 12.705,7.554 C13.198,7.435 13.283,7.469 13.572,7.333 C13.793,7.231 13.929,7.061 13.929,6.823 C13.929,6.058 12.892,5.446 11.821,5.446 C10.308,5.446 9.458,6.67 9.458,6.84 C9.458,6.874 9.475,6.891 9.509,6.891 C9.594,6.891 9.764,6.806 9.985,6.636 C10.308,6.381 10.699,6.262 11.107,6.262 C11.396,6.262 11.94,6.33 11.94,6.721 C11.94,7.095 11.583,7.571 11.413,7.741 C11.277,7.877 11.209,7.979 11.209,8.013 C11.209,8.047 11.226,8.064 11.26,8.064 Z M5.463,6.636 L5.463,6.245 C5.463,5.99 5.48,5.769 5.497,5.599 C5.82,5.769 6.058,5.956 6.058,6.092 C6.058,6.296 5.65,6.534 5.463,6.636 Z M4.103,13.555 C3.882,13.555 3.559,13.521 3.117,13.453 C3.627,13.079 4.154,12.603 4.715,12.127 C4.698,12.484 4.681,12.841 4.647,13.198 C4.63,13.419 4.562,13.555 4.103,13.555 Z M19.776,16.258 C20.218,16.258 20.609,15.952 20.609,15.578 C20.5785789,14.2394737 20.5617673,11.8394127 20.5585651,9.47373349 L20.558,6.908 L23.465,6.908 L23.465,7.112 C23.465,7.503 23.72,7.673 24.009,7.673 C24.298,7.673 24.74,7.452 24.74,6.993 L24.74,6.942 C24.7082667,6.466 24.6469156,4.93856889 24.6388764,4.01830222 L24.638,3.831 C24.638,3.032 24.689,2.964 24.91,2.845 C25.131,2.709 25.301,2.607 25.301,2.454 C25.301,2.182 24.213,1.417 23.907,1.417 C23.686,1.417 23.397,1.893 23.38,1.91 C23.329,1.978 23.227,2.063 23.125,2.063 L21.017,2.063 L20.966,2.029 C20.609,1.774 19.419,1.264 19.232,1.264 C19.198,1.264 19.181,1.281 19.181,1.315 C19.181,1.349 19.181,1.383 19.198,1.434 C19.334,2.063 19.385,3.423 19.385,3.644 C19.385,4.375 19.402,5.31 19.402,6.33 C19.402,9.288 19.351,13.079 19.181,15.629 L19.181,15.697 C19.181,16.088 19.47,16.258 19.776,16.258 Z M30.197,16.156 C31.03,16.156 32.339,15.646 32.339,14.167 L32.339,14.099 C32.339,13.776 32.288,12.807 32.271,12.331 C32.2388889,10.7575556 32.1916142,7.65258951 32.1864606,5.47934122 L32.186995,4.32248854 C32.192716,3.04398628 32.2313333,2.97533333 32.492,2.845 C32.713,2.709 32.9,2.607 32.9,2.454 C32.9,2.131 31.659,1.417 31.404,1.417 C31.217,1.417 30.945,1.791 30.86,1.91 C30.809,1.978 30.724,2.063 30.622,2.063 L28.259,2.063 L28.191,2.012 C27.766,1.723 26.627,1.281 26.508,1.281 C26.491,1.281 26.474,1.281 26.474,1.315 C26.474,1.349 26.474,1.383 26.491,1.434 C26.61,2.012 26.661,3.032 26.661,4.29 C26.661,5.004 26.644,5.956 26.542,7.078 L26.542,7.146 C26.542,7.52 26.797,7.673 27.103,7.673 C27.46,7.673 27.851,7.452 27.851,7.061 L27.851,6.908 L31.03,6.908 C31.047,8.421 31.047,10.087 31.047,11.464 C31.047,12.467 31.047,13.317 31.03,13.844 C31.013,14.473 30.656,14.711 29.84,14.711 C29.398,14.711 28.803,14.643 28.055,14.524 C27.987,14.507 27.919,14.507 27.885,14.507 C27.834,14.507 27.817,14.507 27.817,14.524 C27.817,14.677 29.568,15.391 29.806,15.867 C29.908,16.088 30.01,16.156 30.197,16.156 Z M30.996,4.222 L27.817,4.222 L27.8179196,3.85254696 C27.8243058,2.73049587 27.8664545,2.66727273 28.021,2.59 C28.072,2.573 28.106,2.539 28.14,2.522 L30.758,2.522 C30.911,2.522 30.962,2.607 30.962,2.726 C30.979,2.981 30.979,3.525 30.996,4.222 Z M23.499,4.222 L20.575,4.222 C20.592,3.746 20.592,3.338 20.609,3.049 C20.626,2.675 20.66,2.641 20.898,2.522 L23.261,2.522 C23.414,2.522 23.465,2.607 23.465,2.726 C23.482,3.083 23.499,3.627 23.499,4.222 Z M31.03,6.466 L27.834,6.466 C27.817,5.854 27.817,5.225 27.817,4.664 L31.013,4.664 C31.013,5.208 31.03,5.82 31.03,6.466 Z M23.482,6.466 L20.558,6.466 C20.558,5.803 20.575,5.208 20.575,4.664 L23.499,4.664 C23.499,5.31 23.499,5.973 23.482,6.466 Z M23.363,14.49 C23.72,14.49 24.094,14.269 24.094,13.895 L24.094,13.878 C24.094,13.555 24.077,13.164 24.077,12.756 L27.137,12.756 C27.137,12.96 27.12,13.181 27.12,13.385 L27.12,13.402 C27.12,13.776 27.375,13.946 27.647,13.946 C27.97,13.946 28.344,13.708 28.344,13.283 L28.344,13.249 C28.293,12.45 28.242,11.362 28.242,10.699 C28.242,10.189 28.242,10.087 28.565,9.9 C28.786,9.764 28.888,9.645 28.888,9.509 C28.888,9.186 27.749,8.489 27.545,8.489 C27.443,8.489 27.324,8.574 27.018,8.999 C26.95,9.084 26.865,9.118 26.797,9.118 L24.417,9.118 L24.4,9.101 C23.958,8.795 22.904,8.438 22.802,8.438 C22.785,8.438 22.768,8.455 22.768,8.489 C22.768,8.506 22.785,8.54 22.785,8.574 C22.921,9.169 22.938,10.189 22.938,10.393 C22.938,11.192 22.921,12.756 22.819,13.912 L22.819,13.98 C22.819,14.337 23.074,14.49 23.363,14.49 Z M27.137,12.331 L24.077,12.331 C24.077,11.889 24.06,11.447 24.06,11.056 C24.06,10.665 24.077,10.325 24.077,10.087 C24.094,9.747 24.077,9.764 24.298,9.645 C24.349,9.611 24.4,9.594 24.434,9.56 L26.967,9.56 C27.103,9.56 27.137,9.645 27.137,9.747 C27.154,10.07 27.154,10.41 27.154,10.767 C27.154,11.26 27.154,11.787 27.137,12.331 Z M43.694,14.082 C44.289,14.082 44.629,13.776 44.629,13.317 C44.629,13.249 44.629,13.198 44.612,13.13 C44.578,12.875 44.527,12.62 44.527,12.246 C44.527,11.396 44.663,10.648 44.799,10.002 C44.867,9.713 44.901,9.475 44.901,9.339 C44.901,9.288 44.901,9.254 44.884,9.254 C44.833,9.254 44.714,9.424 44.51,9.866 C44.204,10.495 43.83,11.464 43.49,12.042 C43.405,12.195 43.235,12.365 42.963,12.365 C42.827,12.365 40.974,12.076 40.974,9.203 C40.974,8.455 41.093,7.724 41.212,7.129 C41.263,6.925 41.28,6.687 41.28,6.466 C41.28,5.021 40.073,4.647 39.971,4.647 C39.903,4.647 39.869,4.698 39.869,4.8 C39.869,4.868 39.886,4.97 39.903,5.106 C39.937,5.361 39.954,5.701 39.954,6.041 C39.954,6.245 39.954,6.432 39.937,6.619 C39.903,7.163 39.869,7.724 39.869,8.268 C39.869,10.223 40.243,12.093 42.045,13.47 C42.555,13.844 43.167,14.082 43.694,14.082 Z M50.953,10.716 C51.327,10.716 51.735,10.359 51.735,9.679 C51.735,8.183 50.154,6.16 47.315,6.16 C47.077,6.16 46.958,6.194 46.958,6.245 C46.958,6.313 47.213,6.415 47.672,6.534 C48.947,6.857 50.12,8.251 50.256,9.9 C50.307,10.444 50.613,10.716 50.953,10.716 Z M57.276,9.849 C57.701,9.849 62.019,8.149 65.402,2.794 L65.555,2.59 C67.221,6.058 70.638,8.795 71.301,8.795 C71.386,8.795 71.471,8.744 71.556,8.676 C72.202,8.115 73.579,7.86 73.579,7.707 C73.579,7.673 73.545,7.656 73.46,7.639 C70.179,6.959 67.204,4.307 65.827,2.471 L65.878,2.454 C66.269,2.386 66.456,2.284 66.456,2.148 C66.456,1.808 64.552,1.009 64.314,1.009 C64.263,1.009 64.28,1.043 64.263,1.128 C64.195,1.468 64.059,2.029 63.889,2.352 C62.342,5.191 60.013,7.996 57.531,9.56 C57.31,9.696 57.225,9.781 57.225,9.832 C57.225,9.849 57.242,9.849 57.276,9.849 Z M62.359,8.319 C63.243,8.183 64.45,8.166 65.028,8.166 L68.547,8.166 C68.802,8.166 68.87,8.064 68.87,7.962 C68.87,7.503 67.51,6.568 67.408,6.517 C67.391,6.5 67.357,6.5 67.323,6.5 C67.085,6.5 66.541,7.435 66.456,7.605 C66.405,7.69 66.269,7.741 66.235,7.741 L65.062,7.741 C64.467,7.741 62.767,7.69 61.679,7.503 C61.679,7.69 62.155,8.319 62.342,8.319 L62.359,8.319 Z M61.577,16.343 C61.781,16.343 62.393,16.207 62.393,15.765 L62.393,15.748 L62.376,15.051 L68.173,15.051 C68.173,15.255 68.156,15.476 68.156,15.68 L68.156,15.697 C68.156,16.054 68.428,16.207 68.734,16.207 C69.346,16.207 69.533,15.816 69.533,15.578 L69.533,15.544 C69.448,14.49 69.38,13.351 69.38,12.552 C69.38,12.382 69.397,12.229 69.397,12.093 C69.414,11.634 69.363,11.651 69.737,11.43 C69.941,11.311 70.043,11.209 70.043,11.09 C70.043,10.733 68.802,10.002 68.598,10.002 C68.479,10.002 68.394,10.087 67.952,10.58 C67.884,10.665 67.816,10.682 67.731,10.682 L62.784,10.682 L62.75,10.648 C62.223,10.274 61.084,9.832 60.982,9.832 C60.948,9.832 60.931,9.849 60.931,9.883 C60.931,9.9 60.948,9.934 60.948,9.968 C60.999,10.189 61.135,10.971 61.135,12.433 C61.135,13.232 61.118,14.354 60.982,15.782 L60.982,15.85 C60.982,16.19 61.271,16.343 61.577,16.343 Z M68.173,14.609 L62.376,14.609 C62.359,13.997 62.359,13.402 62.359,12.858 C62.359,11.379 62.359,11.345 62.614,11.192 L62.733,11.107 L67.918,11.107 C68.088,11.107 68.173,11.209 68.173,11.328 C68.19,11.651 68.207,12.025 68.207,12.45 C68.207,13.096 68.19,13.827 68.173,14.609 Z M82.435,15.935 C82.707,15.935 82.928,15.646 82.928,15.102 C82.928,14.932 82.911,14.745 82.86,14.524 C82.656,13.691 82.503,12.654 82.503,11.668 C82.503,11.6 82.503,11.005 82.571,10.104 C83.523,9.152 84.968,7.707 87.076,7.707 C88.368,7.707 90.136,8.489 90.136,10.359 C90.136,12.756 87.212,14.626 85.665,15.289 C85.24,15.476 85.036,15.578 85.036,15.629 C85.036,15.646 85.07,15.663 85.121,15.663 C86.056,15.663 91.53,13.946 91.53,10.291 C91.53,8.608 89.898,6.908 87.637,6.908 C86.175,6.908 84.458,7.622 82.724,9.407 L82.622,9.509 L82.656,9.237 C82.928,8.795 83.183,8.404 83.421,8.098 C83.795,7.588 84.169,7.061 84.169,6.704 C84.169,6.415 83.914,6.228 83.217,6.228 L83.098,6.228 C83.166,5.888 83.387,4.307 83.387,3.984 C83.387,2.369 82.112,2.25 81.874,2.25 C81.432,2.25 81.211,2.556 81.211,2.556 C81.211,2.624 81.279,2.675 81.432,2.76 C82.248,3.287 82.503,3.644 82.503,4.97 C82.503,5.208 82.503,5.48 82.486,5.803 C82.486,6.041 82.469,6.296 82.452,6.568 C81.755,7.01 81.024,7.554 80.429,8.166 C80.208,8.387 79.919,8.625 79.528,8.795 C79.239,8.931 79.086,9.101 79.086,9.322 C79.086,9.543 79.222,9.781 79.494,10.053 C79.749,10.308 80.157,10.869 80.497,11.498 C78.916,13.776 78.746,14.507 78.746,14.83 C78.746,15.136 78.899,15.272 79.103,15.272 C79.443,15.272 79.97,14.847 80.259,14.048 C80.395,13.657 80.565,13.113 80.922,12.331 C81.245,13.011 81.602,13.946 81.653,14.592 C81.738,15.51 82.112,15.935 82.435,15.935 Z M82.826,7.928 L82.979,6.993 C83.098,7.01 83.132,7.095 83.132,7.214 C83.132,7.231 83.132,7.367 82.826,7.928 Z M80.684,11.226 C80.157,10.291 79.936,9.9 79.936,9.747 C79.936,9.662 79.987,9.611 80.14,9.594 C80.684,9.509 80.905,9.356 81.143,8.846 C81.432,8.2 81.874,7.622 82.384,7.265 C82.333,7.792 82.282,8.387 82.214,8.982 C81.823,9.645 81.347,10.359 80.922,10.903 L80.684,11.226 Z M81.823,12.96 C81.738,12.96 81.636,12.858 81.109,11.94 L81.194,11.753 C81.466,11.379 81.755,11.005 82.044,10.631 C81.976,11.345 81.891,12.093 81.891,12.824 C81.891,12.926 81.857,12.96 81.823,12.96 Z M108.665,13.844 C108.665,13.504 108.291,13.198 107.73,13.198 C107.543,13.198 107.339,13.232 107.118,13.3 C106.846,13.402 106.098,13.589 105.333,13.589 C104.381,13.589 103.378,13.283 103.191,12.11 C103.055,11.294 102.987,10.172 102.97,9.084 C104.126,8.625 105.554,8.183 106.863,7.945 C106.608,9.934 106.149,10.172 105.758,10.172 C105.401,10.172 104.942,9.968 104.466,9.611 C104.296,9.475 104.126,9.39 104.058,9.39 C104.024,9.39 104.007,9.407 104.007,9.424 C104.007,9.492 104.092,9.611 104.296,9.832 C104.653,10.206 105.078,10.852 105.095,11.345 C105.112,11.685 105.35,11.872 105.656,11.872 C106.438,11.872 106.982,11.022 107.237,10.41 C107.526,9.747 107.679,8.744 107.764,7.826 C108.172,7.775 108.58,7.758 108.988,7.758 C109.719,7.758 110.433,7.843 111.096,8.047 C111.317,8.115 111.521,8.149 111.691,8.149 C112.184,8.149 112.456,7.911 112.456,7.639 C112.456,7.197 112.082,7.044 111.011,6.653 C110.501,6.483 109.804,6.245 109.005,5.701 C108.869,5.599 108.75,5.565 108.699,5.565 C108.648,5.565 108.614,5.582 108.614,5.633 C108.614,5.684 108.665,5.752 108.767,5.854 C108.954,6.024 109.447,6.551 109.447,6.653 C109.447,6.755 109.345,6.772 108.648,6.925 L107.832,7.078 L107.883,6.177 C107.917,5.378 108.002,4.834 108.002,4.46 C108.002,3.406 107.118,3.355 106.931,3.355 C106.404,3.355 106.183,3.746 106.183,3.865 C106.183,3.933 106.251,3.984 106.421,4.035 C106.846,4.171 106.948,5.004 106.948,6.296 C106.948,6.602 106.931,6.925 106.914,7.265 C105.741,7.52 104.687,7.826 102.97,8.336 C102.97,7.826 102.97,7.35 102.987,6.908 L102.987,6.721 C102.987,5.004 101.814,4.987 101.678,4.987 C101.27,4.987 100.896,5.191 100.896,5.378 C100.896,5.446 100.947,5.531 101.049,5.616 C101.746,6.279 101.814,6.381 102.018,8.625 C101.287,8.846 100.59,9.084 99.927,9.322 C99.485,9.475 99.026,9.628 98.516,9.628 C98.176,9.628 97.972,9.594 97.479,9.203 C97.377,9.118 97.275,9.067 97.207,9.067 C97.037,9.067 96.986,9.288 96.986,9.475 C96.986,10.359 98.329,10.835 99.043,10.835 C99.468,10.835 99.808,10.682 100.199,10.444 C100.522,10.24 101.185,9.866 102.086,9.458 C102.171,10.546 102.239,11.651 102.341,12.297 C102.63,14.065 103.973,14.762 105.809,14.762 C106.574,14.762 108.665,14.643 108.665,13.844 Z" id="お問い合わせ" fill="#FFFFFF" fill-rule="nonzero"></path>
    </g>
</svg>