<?xml version="1.0" encoding="UTF-8"?>
<svg width="57px" height="17px" viewBox="0 0 57 17" version="1.1" xmlns="http://www.w3.org/2000/svg" xmlns:xlink="http://www.w3.org/1999/xlink">
    <title>gnav-gallery-white</title>
    <g id="Symbols" stroke="none" stroke-width="1" fill="none" fill-rule="evenodd">
        <path d="M0.221,15.714 C0.34,15.714 4.403,13.674 4.403,5.106 L4.403,4.953 L12.325,4.953 L12.325,5.259 C12.325,5.633 12.597,5.786 12.92,5.786 C13.039,5.786 13.736,5.701 13.736,5.123 L13.736,5.089 C13.702,4.732 13.617,3.882 13.617,3.44 C13.617,3.032 13.668,2.964 14.008,2.811 C14.263,2.675 14.416,2.539 14.416,2.386 C14.416,1.995 13.056,1.247 12.852,1.247 C12.784,1.247 12.648,1.315 12.24,1.825 C12.189,1.893 12.07,1.995 11.951,1.995 L4.811,1.995 L4.76,1.944 C4.403,1.74 3.077,1.145 2.754,1.145 C2.72,1.145 2.72,1.162 2.72,1.196 C2.72,1.213 2.72,1.264 2.737,1.315 C2.907,1.944 3.077,3.865 3.077,5.718 C3.077,8.863 2.584,12.994 0.476,15.289 C0.272,15.51 0.187,15.629 0.187,15.68 C0.187,15.697 0.204,15.714 0.221,15.714 Z M12.342,4.511 L4.403,4.511 C4.403,4.222 4.403,3.967 4.386,3.729 C4.369,3.491 4.369,3.287 4.369,3.151 C4.369,2.743 4.42,2.692 4.828,2.42 L12.053,2.42 C12.24,2.42 12.342,2.505 12.342,2.675 C12.359,2.845 12.359,3.151 12.359,3.474 C12.359,3.814 12.359,4.171 12.342,4.511 Z M4.063,16.343 C4.199,16.343 4.267,16.139 4.403,16.105 C6.46,15.476 8.942,14.558 10.319,13.844 C11.917,15.833 13.991,16.207 14.127,16.207 C14.229,16.207 14.314,16.156 14.399,16.071 C14.858,15.595 16.337,15.204 16.337,15.068 C16.337,15.051 16.303,15.034 16.218,15.034 C13.566,14.847 11.883,14.133 10.761,13.096 C11.645,12.977 12.818,12.739 13.311,12.603 C13.362,12.586 13.396,12.586 13.43,12.586 C13.515,12.586 13.583,12.62 13.685,12.654 C13.821,12.705 13.923,12.722 14.008,12.722 C14.161,12.722 14.246,12.654 14.246,12.535 C14.246,12.314 13.209,11.005 13.005,11.005 C12.971,11.005 12.954,11.039 12.92,11.09 C12.478,11.804 11.526,12.331 10.489,12.841 C9.928,12.263 9.537,11.583 9.197,10.869 L14.756,10.869 C15.028,10.869 15.113,10.767 15.113,10.665 C15.113,10.257 13.957,9.305 13.583,9.305 C13.481,9.305 13.226,9.458 12.648,10.308 C12.597,10.393 12.478,10.461 12.376,10.461 L10.965,10.461 C10.948,9.9 10.948,9.067 10.948,8.319 L13.821,8.319 C14.093,8.319 14.161,8.2 14.161,8.098 C14.161,7.724 13.073,6.806 12.716,6.806 C12.597,6.806 12.512,6.857 11.849,7.741 C11.798,7.826 11.713,7.894 11.611,7.894 L10.948,7.894 C10.948,7.52 10.965,7.197 10.982,6.959 C11.016,6.415 11.033,6.5 11.322,6.33 C11.492,6.228 11.611,6.126 11.611,6.024 C11.611,5.667 9.86,5.429 9.656,5.429 C9.639,5.429 9.622,5.446 9.622,5.463 C9.622,5.48 9.639,5.514 9.656,5.582 C9.809,6.16 9.826,6.959 9.826,7.571 L9.826,7.894 L7.769,7.894 C7.769,7.537 7.786,7.197 7.803,6.959 C7.837,6.415 7.854,6.5 8.143,6.33 C8.313,6.228 8.432,6.126 8.432,6.024 C8.432,5.667 6.681,5.429 6.477,5.429 C6.46,5.429 6.443,5.446 6.443,5.463 C6.443,5.48 6.46,5.514 6.477,5.582 C6.63,6.16 6.647,6.959 6.647,7.571 L6.664,7.843 C5.933,7.809 5.117,7.741 4.369,7.656 C4.369,7.86 4.828,8.472 5.117,8.472 L5.134,8.472 C5.678,8.421 6.188,8.37 6.664,8.353 C6.664,8.965 6.664,9.764 6.647,10.41 C5.729,10.376 4.709,10.308 3.859,10.206 C3.859,10.41 4.318,11.039 4.607,11.039 L4.624,11.039 C5.117,10.988 5.661,10.954 6.171,10.937 C6.222,11.209 6.222,11.532 6.222,12.229 C6.239,12.722 6.239,13.113 6.239,13.453 C6.239,13.81 6.239,14.133 6.222,14.49 C4.488,14.762 4.488,14.762 3.06,14.762 C3.009,14.762 2.975,14.762 2.975,14.796 C2.975,15.051 3.842,16.343 4.063,16.343 Z M9.826,10.461 L8.619,10.461 C8.398,10.461 8.126,10.444 7.786,10.444 C7.769,9.9 7.769,9.084 7.769,8.319 C8.075,8.319 8.347,8.302 8.602,8.302 L9.843,8.319 C9.843,8.948 9.843,9.798 9.826,10.461 Z M7.378,14.269 C7.378,13.844 7.361,13.504 7.361,13.215 C7.361,11.481 7.412,11.379 7.565,11.311 C7.735,11.243 7.837,11.141 7.837,11.056 C7.837,10.988 7.803,10.937 7.684,10.886 C8.007,10.886 8.313,10.869 8.551,10.869 L8.891,10.869 C9.146,11.906 9.588,12.858 10.166,13.64 C9.384,13.861 8.398,14.065 7.378,14.269 Z M24.207,3.389 C25.703,3.236 27.607,3.202 28.542,3.202 L33.795,3.202 C34.084,3.202 34.169,3.1 34.169,2.998 C34.169,2.709 33.2,1.655 32.605,1.451 C32.571,1.451 32.52,1.434 32.486,1.434 C32.18,1.434 31.534,2.42 31.415,2.624 C31.364,2.709 31.262,2.777 31.16,2.777 L28.627,2.777 C27.658,2.777 25.074,2.709 23.357,2.505 C23.357,2.726 23.867,3.389 24.19,3.389 L24.207,3.389 Z M27.454,16.054 C28.287,16.054 29.63,15.476 29.63,14.116 L29.63,14.082 C29.5609375,12.673125 29.5479883,12.016168 29.5455603,11.1810513 L29.5456447,9.68722044 C29.5474178,8.90614222 29.5540667,8.2238 29.579,7.962 C29.613,7.571 29.596,7.571 29.851,7.452 C30.004,7.384 30.089,7.282 30.089,7.214 C30.089,7.146 30.021,7.078 29.919,7.027 L29.766,6.976 L35.801,6.976 C36.09,6.976 36.175,6.874 36.175,6.755 C36.175,6.483 35.155,5.378 34.577,5.174 C34.543,5.174 34.492,5.157 34.458,5.157 C34.118,5.157 33.404,6.313 33.353,6.398 C33.302,6.483 33.183,6.534 33.081,6.534 L27.352,6.534 C26.383,6.534 23.459,6.483 21.742,6.279 C21.742,6.5 22.286,7.163 22.609,7.163 L22.626,7.163 C24.122,7.01 26.332,6.976 27.267,6.976 L28.236,6.976 C28.321,7.401 28.355,8.302 28.355,11.294 C28.355,12.433 28.338,13.538 28.321,13.929 C28.304,14.439 27.947,14.66 27.097,14.66 C26.621,14.66 25.975,14.592 25.142,14.456 C25.057,14.439 25.006,14.439 24.955,14.439 C24.921,14.439 24.904,14.439 24.904,14.456 C24.904,14.575 26.757,15.306 27.046,15.782 C27.165,15.986 27.267,16.054 27.454,16.054 Z M20.875,14.609 C20.977,14.609 23.425,13.589 25.499,10.393 C25.618,10.206 25.686,10.138 25.89,10.138 C26.247,10.121 26.4,10.019 26.4,9.883 C26.4,9.543 24.717,8.71 24.479,8.71 C24.462,8.71 24.411,8.71 24.411,8.897 C24.411,10.155 22.218,13.283 21.096,14.303 C20.926,14.456 20.841,14.558 20.841,14.592 C20.841,14.609 20.858,14.609 20.875,14.609 Z M35.274,13.759 C35.665,13.759 35.988,13.385 35.988,12.892 C35.988,11.158 31.874,9.033 31.33,9.033 C31.296,9.033 31.262,9.05 31.262,9.084 C31.262,9.118 31.33,9.186 31.432,9.288 C32.537,10.223 33.778,11.787 34.322,12.926 C34.611,13.521 34.968,13.759 35.274,13.759 Z M44.096,10.24 C44.215,10.24 44.334,10.053 44.504,10.036 C47.105,9.679 50.199,9.322 52.953,8.676 C53.293,8.999 53.565,9.305 53.769,9.594 C54.041,9.985 54.33,10.155 54.585,10.155 C54.959,10.155 55.248,9.832 55.248,9.424 C55.248,7.843 51.236,6.993 50.947,6.993 C50.896,6.993 50.862,7.01 50.862,7.044 C50.862,7.078 50.896,7.129 50.998,7.18 C51.542,7.52 52.12,7.945 52.613,8.37 C50.896,8.523 49.026,8.659 47.343,8.727 C47.768,8.2 48.363,7.299 48.567,6.976 C48.635,6.857 48.686,6.721 48.873,6.704 C49.162,6.67 49.332,6.551 49.332,6.449 C49.332,6.415 49.315,6.381 49.264,6.347 L54.245,6.347 C54.517,6.347 54.585,6.262 54.585,6.16 C54.585,5.939 54.211,5.548 53.803,5.259 C54.517,4.953 55.095,4.749 55.775,4.715 C56.285,4.698 56.472,4.528 56.472,4.324 C56.472,3.746 55.112,2.896 54.874,2.896 C54.857,2.896 54.789,2.896 54.279,3.406 C54.211,3.474 54.092,3.525 54.041,3.525 L50.012,3.525 L50.063,2.743 C50.097,2.318 50.114,2.318 50.42,2.148 C50.675,1.995 50.811,1.859 50.811,1.757 C50.811,1.298 48.754,1.026 48.567,1.026 C48.533,1.026 48.516,1.043 48.516,1.077 C48.516,1.094 48.533,1.128 48.55,1.196 C48.669,1.689 48.72,2.505 48.737,3.1 C48.737,3.253 48.754,3.389 48.754,3.525 L44.725,3.525 C44.674,2.539 44.419,2.216 44.385,2.216 C44.351,2.216 44.317,2.301 44.283,2.471 C44.13,3.423 43.705,3.95 42.753,4.698 C42.396,4.987 42.243,5.293 42.243,5.548 C42.243,5.905 42.549,6.194 42.974,6.194 C43.722,6.194 44.572,5.344 44.708,3.95 L53.99,3.95 C54.041,3.95 54.092,3.984 54.092,4.035 C54.092,4.137 53.735,4.698 53.48,5.038 C53.361,4.97 53.242,4.902 53.14,4.868 C53.106,4.851 53.072,4.851 53.038,4.851 C52.8,4.851 52.205,5.684 52.12,5.803 C52.069,5.888 51.984,5.956 51.882,5.956 L48.958,5.956 C48.074,5.956 45.456,5.871 44.096,5.684 C44.096,5.905 44.572,6.517 44.844,6.517 L44.861,6.517 C45.405,6.449 46.34,6.415 47.207,6.381 C47.207,6.874 46.918,8.132 46.748,8.761 C46.3655,8.77375 46.002125,8.7769375 45.657875,8.77773437 L44.776,8.778 C44.487,8.778 43.841,8.727 43.348,8.608 C43.28,8.591 43.246,8.591 43.229,8.591 C43.195,8.591 43.195,8.591 43.195,8.625 C43.195,8.778 43.824,10.24 44.096,10.24 Z M43.008,15.595 C44.47,15.442 47.054,15.408 47.972,15.408 L56.251,15.408 C56.54,15.408 56.608,15.306 56.608,15.187 C56.608,14.762 55.248,13.657 54.908,13.657 C54.687,13.657 53.99,14.677 53.888,14.83 C53.837,14.915 53.701,14.983 53.599,14.983 L50.029,14.983 L50.029,12.637 L54.517,12.637 C54.806,12.637 54.874,12.535 54.874,12.416 C54.874,11.923 53.497,11.022 53.259,11.022 C53.055,11.022 52.494,11.787 52.307,12.059 C52.256,12.144 52.137,12.212 52.035,12.212 L50.029,12.212 C50.029,11.923 50.046,11.685 50.063,11.498 C50.097,11.005 50.148,11.056 50.437,10.92 C50.641,10.818 50.76,10.716 50.76,10.614 C50.76,10.291 48.873,10.019 48.618,10.019 C48.6066667,10.019 48.6028889,10.019 48.6016296,10.024037 L48.601,10.036 C48.601,10.053 48.601,10.087 48.618,10.138 C48.737,10.597 48.788,11.277 48.805,11.872 L48.805,12.212 L48.635,12.212 C47.683,12.212 45.558,12.161 43.875,11.94 C43.875,12.161 44.368,12.824 44.674,12.824 L44.691,12.824 C46.153,12.671 47.632,12.637 48.55,12.637 L48.822,12.637 C48.822,13.402 48.805,14.388 48.805,14.983 L48.057,14.983 C47.105,14.983 43.875,14.932 42.192,14.728 C42.192,14.949 42.685,15.595 42.991,15.595 L43.008,15.595 Z" id="展示室" fill="#FFFFFF" fill-rule="nonzero"></path>
    </g>
</svg>