<?xml version="1.0" encoding="UTF-8"?>
<svg width="70px" height="17px" viewBox="0 0 70 17" version="1.1" xmlns="http://www.w3.org/2000/svg" xmlns:xlink="http://www.w3.org/1999/xlink">
    <title>gnav-news-white</title>
    <g id="Symbols" stroke="none" stroke-width="1" fill="none" fill-rule="evenodd">
        <path d="M4.8,14.932 C5.021,14.932 5.548,14.779 5.548,13.521 L5.548,13.419 L5.514,11.617 C6.721,10.648 8.013,9.781 9.407,9.781 C10.41,9.781 11.413,10.223 11.413,11.158 C11.413,12.433 9.951,13.215 8.931,13.215 C8.081,13.215 7.707,12.671 7.707,11.923 C7.707,11.668 7.741,11.396 7.826,11.107 C7.911,10.818 7.928,10.631 7.928,10.529 C7.928,10.478 7.928,10.444 7.894,10.444 C7.758,10.444 7.112,11.702 7.112,12.654 C7.112,13.742 7.809,14.371 8.897,14.371 C10.444,14.371 12.518,13.062 12.518,11.328 C12.518,10.308 11.719,9.305 9.679,9.305 C8.183,9.305 6.806,9.985 5.497,10.767 C5.48,9.764 5.446,8.727 5.446,7.741 C6.823,7.01 7.282,6.619 7.282,6.075 C7.282,5.803 7.095,5.582 6.721,5.582 L6.602,5.582 C6.279,5.582 5.871,5.497 5.497,5.395 C5.514,5.259 5.514,5.14 5.514,5.038 C5.514,4.188 4.596,3.831 4.137,3.831 C3.627,3.831 3.287,4.188 3.287,4.426 C3.287,4.528 3.406,4.596 3.712,4.596 C4.426,4.596 4.528,5.106 4.664,7.061 C3.814,7.452 3.406,7.571 2.726,7.571 C2.182,7.571 1.74,7.469 1.519,7.384 C1.4,7.333 1.315,7.299 1.247,7.299 C1.196,7.299 1.162,7.333 1.162,7.435 C1.162,8.557 2.301,8.642 2.692,8.642 C3.287,8.642 3.899,8.506 4.715,8.115 C4.732,8.812 4.766,9.56 4.766,10.308 C4.766,10.614 4.766,10.937 4.749,11.243 C2.403,12.705 1.927,12.858 1.74,12.858 C1.638,12.858 1.587,12.807 1.536,12.79 C1.468,12.756 1.4,12.739 1.349,12.739 C1.009,12.739 0.567,13.487 0.567,13.793 C0.567,14.065 0.737,14.269 1.162,14.269 C1.638,14.269 2.148,14.082 2.828,13.64 C3.423,13.81 3.984,14.082 4.222,14.49 C4.375,14.762 4.579,14.932 4.8,14.932 Z M11.26,8.064 C11.345,8.064 11.464,8.013 11.6,7.928 C11.974,7.707 12.382,7.639 12.705,7.554 C13.198,7.435 13.283,7.469 13.572,7.333 C13.793,7.231 13.929,7.061 13.929,6.823 C13.929,6.058 12.892,5.446 11.821,5.446 C10.308,5.446 9.458,6.67 9.458,6.84 C9.458,6.874 9.475,6.891 9.509,6.891 C9.594,6.891 9.764,6.806 9.985,6.636 C10.308,6.381 10.699,6.262 11.107,6.262 C11.396,6.262 11.94,6.33 11.94,6.721 C11.94,7.095 11.583,7.571 11.413,7.741 C11.277,7.877 11.209,7.979 11.209,8.013 C11.209,8.047 11.226,8.064 11.26,8.064 Z M5.463,6.636 L5.463,6.245 C5.463,5.99 5.48,5.769 5.497,5.599 C5.82,5.769 6.058,5.956 6.058,6.092 C6.058,6.296 5.65,6.534 5.463,6.636 Z M4.103,13.555 C3.882,13.555 3.559,13.521 3.117,13.453 C3.627,13.079 4.154,12.603 4.715,12.127 C4.698,12.484 4.681,12.841 4.647,13.198 C4.63,13.419 4.562,13.555 4.103,13.555 Z M17.566,16.088 C17.77,16.088 21.034,15.255 22.343,11.532 C22.955,11.991 23.703,12.756 24.094,13.385 C24.349,13.793 24.655,13.963 24.91,13.963 C25.267,13.963 25.556,13.64 25.556,13.215 C25.556,12.025 23.533,11.413 22.428,11.328 C22.7,10.478 22.836,9.56 22.887,8.625 L25.709,8.625 C25.964,8.625 26.032,8.54 26.032,8.455 C26.032,8.081 25.165,7.248 24.672,7.044 C24.638,7.044 24.604,7.027 24.57,7.027 C24.434,7.027 24.315,7.112 23.771,8.047 C23.72,8.132 23.584,8.2 23.533,8.2 L22.904,8.2 L22.904,7.86 C22.904,7.197 22.921,6.704 22.921,6.092 L22.9216939,5.8008688 C22.9258571,5.2884898 22.955,5.174 23.159,5.072 C23.346,4.97 23.414,4.885 23.414,4.8 C23.414,4.732 23.38,4.681 23.312,4.63 L25.403,4.63 C25.658,4.63 25.743,4.545 25.743,4.443 C25.743,4.137 24.91,3.338 24.4,3.134 C24.366,3.134 24.332,3.117 24.315,3.117 C24.111,3.117 23.635,3.831 23.499,4.069 C23.448,4.154 23.346,4.205 23.295,4.205 L21.034,4.205 C21.374,3.661 21.663,3.134 21.884,2.692 C21.986,2.488 21.986,2.437 22.224,2.403 C22.547,2.352 22.717,2.216 22.717,2.08 C22.717,1.706 20.881,1.128 20.762,1.128 C20.694,1.128 20.694,1.179 20.694,1.315 C20.694,2.777 19.351,5.803 18.671,6.857 C18.535,7.078 18.467,7.214 18.467,7.265 C18.467,7.282 18.484,7.282 18.501,7.282 C18.569,7.282 19.47,6.67 20.762,4.63 L21.595,4.63 C21.663,5.31 21.697,6.177 21.697,6.619 L21.697,7.792 C21.697,7.928 21.68,8.064 21.68,8.2 C20.847,8.2 19.487,8.132 18.025,7.945 C18.025,8.132 18.501,8.795 18.756,8.795 L18.773,8.795 C20.031,8.659 20.83,8.625 21.629,8.625 L21.663,8.625 C21.51,11.447 20.49,14.286 17.923,15.714 C17.617,15.884 17.481,16.003 17.481,16.054 C17.481,16.088 17.515,16.088 17.566,16.088 Z M27.12,15.799 C27.494,15.799 27.902,15.561 27.902,15.17 C27.902,14.83 27.885,14.354 27.885,13.776 L30.996,13.776 C30.996,14.218 30.979,14.609 30.979,14.915 L30.979,14.932 C30.979,15.306 31.268,15.459 31.574,15.459 C31.999,15.459 32.356,15.204 32.356,14.83 L32.356,14.796 C32.2745417,13.2645833 32.224309,9.17265972 32.2202644,6.91914887 L32.22,6.636 C32.22,6.058 32.237,5.633 32.237,5.446 C32.254,5.055 32.271,5.038 32.577,4.851 C32.781,4.715 32.934,4.596 32.934,4.443 C32.934,4.001 31.506,3.406 31.455,3.406 C31.37,3.406 31.268,3.423 30.86,3.967 C30.792,4.052 30.707,4.086 30.622,4.086 L28.293,4.086 C28.293,4.069 28.276,4.069 28.276,4.069 L28.259,4.069 C27.749,3.712 26.627,3.304 26.525,3.304 C26.491,3.304 26.474,3.321 26.474,3.355 C26.474,3.372 26.491,3.406 26.491,3.44 C26.627,4.069 26.661,5.259 26.661,5.48 L26.661,7.18 C26.661,9.577 26.644,13.64 26.525,15.204 L26.525,15.272 C26.525,15.646 26.797,15.799 27.12,15.799 Z M31.013,13.334 L27.885,13.334 C27.885,12.3225 27.8719844,11.0897344 27.8687305,9.88625391 L27.868493,8.802837 C27.8714,7.11387 27.8867,5.6466 27.902,5.157 C27.919,4.732 27.919,4.766 28.14,4.613 L28.242,4.545 L30.724,4.545 C30.928,4.545 30.996,4.664 30.996,4.783 C31.03,5.344 31.03,7.01 31.03,8.863 C31.03,10.376 31.03,12.042 31.013,13.334 Z M42.317,16.241 C45.241,16.241 48.641,14.626 48.641,12.076 C48.641,10.529 47.162,9.594 45.836,9.594 C45.207,9.594 44.527,9.781 43.949,10.155 C43.15,10.665 42.708,11.124 42.3,11.396 C42.096,11.532 41.926,11.617 41.79,11.617 C41.331,11.617 41.263,10.835 41.263,10.291 C41.263,9.594 41.365,8.761 41.467,8.217 C41.603,7.52 41.705,7.146 41.705,6.738 C41.705,6.483 41.671,6.211 41.552,5.837 C41.501,5.667 41.467,5.497 41.467,5.327 C41.467,4.851 41.705,4.273 42.674,4.273 C43.031,4.273 43.507,4.358 43.881,4.477 C44.136,4.579 44.391,4.647 44.595,4.647 C44.952,4.647 45.275,4.29 45.275,3.865 C45.275,2.743 43.15,1.689 42.742,1.689 C42.674,1.689 42.657,1.706 42.657,1.757 C42.657,1.808 42.708,1.927 42.759,2.08 C42.827,2.25 43.031,2.522 43.15,2.794 C43.167,2.862 43.184,2.913 43.184,2.964 C43.184,3.202 42.98,3.372 42.861,3.44 C42.538,3.644 42.198,3.814 41.875,4.018 C41.144,4.494 40.702,5.021 40.702,5.888 C40.702,5.99 40.702,6.092 40.719,6.211 C40.719,6.296 40.736,6.381 40.736,6.466 C40.736,6.959 40.634,7.588 40.583,7.86 C40.447,8.693 40.294,9.764 40.294,10.648 C40.294,12.654 41.331,13.3 41.841,13.3 C42.113,13.3 42.368,13.113 42.623,12.722 C43.711,11.056 44.289,10.223 45.445,10.223 C46.346,10.223 47.315,10.937 47.315,12.059 C47.315,13.963 44.697,15.51 42.776,15.969 C42.317,16.088 42.096,16.156 42.096,16.207 C42.096,16.224 42.181,16.241 42.317,16.241 Z M66.235,13.844 C66.235,13.504 65.861,13.198 65.3,13.198 C65.113,13.198 64.909,13.232 64.688,13.3 C64.416,13.402 63.668,13.589 62.903,13.589 C61.951,13.589 60.948,13.283 60.761,12.11 C60.625,11.294 60.557,10.172 60.54,9.084 C61.696,8.625 63.124,8.183 64.433,7.945 C64.178,9.934 63.719,10.172 63.328,10.172 C62.971,10.172 62.512,9.968 62.036,9.611 C61.866,9.475 61.696,9.39 61.628,9.39 C61.594,9.39 61.577,9.407 61.577,9.424 C61.577,9.492 61.662,9.611 61.866,9.832 C62.223,10.206 62.648,10.852 62.665,11.345 C62.682,11.685 62.92,11.872 63.226,11.872 C64.008,11.872 64.552,11.022 64.807,10.41 C65.096,9.747 65.249,8.744 65.334,7.826 C65.742,7.775 66.15,7.758 66.558,7.758 C67.1845714,7.758 67.7986531,7.82044898 68.3788338,7.96675802 L68.666,8.047 C68.887,8.115 69.091,8.149 69.261,8.149 C69.754,8.149 70.026,7.911 70.026,7.639 C70.026,7.197 69.652,7.044 68.581,6.653 C68.071,6.483 67.374,6.245 66.575,5.701 C66.439,5.599 66.32,5.565 66.269,5.565 C66.218,5.565 66.184,5.582 66.184,5.633 C66.184,5.684 66.235,5.752 66.337,5.854 C66.524,6.024 67.017,6.551 67.017,6.653 C67.017,6.755 66.915,6.772 66.218,6.925 L65.402,7.078 L65.453,6.177 C65.487,5.378 65.572,4.834 65.572,4.46 C65.572,3.406 64.688,3.355 64.501,3.355 C63.974,3.355 63.753,3.746 63.753,3.865 C63.753,3.933 63.821,3.984 63.991,4.035 C64.416,4.171 64.518,5.004 64.518,6.296 C64.518,6.602 64.501,6.925 64.484,7.265 C63.311,7.52 62.257,7.826 60.54,8.336 C60.54,7.826 60.54,7.35 60.557,6.908 L60.557,6.721 C60.557,5.004 59.384,4.987 59.248,4.987 C58.84,4.987 58.466,5.191 58.466,5.378 C58.466,5.446 58.517,5.531 58.619,5.616 C59.316,6.279 59.384,6.381 59.588,8.625 C58.857,8.846 58.16,9.084 57.497,9.322 C57.055,9.475 56.596,9.628 56.086,9.628 C55.746,9.628 55.542,9.594 55.049,9.203 C54.947,9.118 54.845,9.067 54.777,9.067 C54.607,9.067 54.556,9.288 54.556,9.475 C54.556,10.359 55.899,10.835 56.613,10.835 C57.038,10.835 57.378,10.682 57.769,10.444 C58.092,10.24 58.755,9.866 59.656,9.458 C59.741,10.546 59.809,11.651 59.911,12.297 C60.2,14.065 61.543,14.762 63.379,14.762 C64.144,14.762 66.235,14.643 66.235,13.844 Z" id="お知らせ" fill="#FFFFFF" fill-rule="nonzero"></path>
    </g>
</svg>