<?xml version="1.0" encoding="UTF-8"?>
<svg width="58px" height="17px" viewBox="0 0 58 17" version="1.1" xmlns="http://www.w3.org/2000/svg" xmlns:xlink="http://www.w3.org/1999/xlink">
    <title>gnav-portfolio-white</title>
    <g id="Symbols" stroke="none" stroke-width="1" fill="none" fill-rule="evenodd">
        <path d="M9.877,16.224 C10.285,16.224 10.71,15.952 10.71,15.51 L10.71,15.493 C10.676,14.456 10.642,13.164 10.625,11.855 L15.011,11.855 C15.283,11.855 15.351,11.753 15.351,11.634 C15.351,11.158 14.076,10.257 13.804,10.257 C13.6,10.257 13.107,10.92 12.886,11.26 C12.835,11.345 12.733,11.43 12.631,11.43 L10.625,11.43 C10.608,10.461 10.608,9.492 10.608,8.659 L14.943,8.659 C15.215,8.659 15.283,8.557 15.283,8.438 C15.283,8.013 14.059,7.061 13.753,7.061 C13.549,7.061 13.056,7.724 12.835,8.064 C12.784,8.149 12.682,8.234 12.58,8.234 L10.608,8.234 L10.6088573,7.5784042 C10.614375,5.94769515 10.6523214,5.84307143 10.88,5.752 C11.067,5.684 11.203,5.548 11.203,5.429 C11.203,5.361 11.152,5.293 11.033,5.242 L15.81,5.242 C16.082,5.242 16.167,5.14 16.167,5.021 C16.167,4.664 15.181,3.78 14.62,3.559 C14.586,3.542 14.552,3.542 14.518,3.542 C14.263,3.542 13.685,4.392 13.515,4.647 C13.464,4.732 13.345,4.817 13.243,4.817 L8.772,4.817 C9.248,4.205 9.673,3.593 9.996,3.015 C10.166,2.709 10.234,2.692 10.472,2.641 C10.88,2.556 11.067,2.454 11.067,2.301 C11.067,1.961 9.435,1.111 9.18,1.111 C9.112,1.111 9.112,1.162 9.095,1.264 C8.857,3.032 6.8,6.381 5.066,8.115 C5.117,5.99 5.134,5.905 5.406,5.786 C5.627,5.684 5.729,5.565 5.729,5.463 C5.729,5.293 5.321,5.14 4.93,5.072 C5.389,4.443 5.814,3.78 6.205,3.1 C6.375,2.811 6.443,2.76 6.664,2.709 C7.038,2.641 7.208,2.522 7.208,2.386 C7.208,1.961 5.338,1.23 5.27,1.23 C5.219,1.23 5.236,1.281 5.219,1.383 C4.93,3.559 2.125,7.792 0.595,9.186 C0.391,9.356 0.306,9.475 0.306,9.509 C0.306,9.526 0.323,9.526 0.34,9.526 C0.459,9.526 1.955,8.795 3.859,6.466 C3.859,6.84 3.876,7.231 3.876,7.503 C3.842,9.764 3.723,13.215 3.519,15.459 L3.519,15.561 C3.519,16.003 3.791,16.19 4.114,16.19 C4.556,16.19 4.981,15.867 4.981,15.442 L4.981,15.408 C4.964,14.915 4.964,14.32 4.964,13.708 C4.964,12.008 4.998,9.985 5.049,8.336 C5.712,8.013 7.072,6.925 8.449,5.242 L9.367,5.242 C9.418,5.803 9.435,6.653 9.435,6.993 C9.452,7.571 9.452,8.353 9.452,9.237 C9.452,11.294 9.418,13.861 9.282,15.544 L9.282,15.629 C9.282,16.054 9.571,16.224 9.877,16.224 Z M25.652,8.03 C26.043,8.03 26.451,7.792 26.451,7.418 L26.451,6.925 L31.687,6.925 L31.687,7.401 C31.687,7.758 31.942,7.911 32.231,7.911 C32.758,7.911 33.03,7.537 33.03,7.248 L33.03,7.214 C32.979,6.194 32.911,4.817 32.911,3.933 C32.911,3.185 32.928,3.168 33.234,2.998 C33.455,2.862 33.608,2.743 33.608,2.59 C33.608,2.25 32.35,1.553 32.146,1.553 C32.078,1.553 32.01,1.57 31.551,2.097 C31.483,2.182 31.415,2.199 31.33,2.199 L26.808,2.199 C26.332,1.893 25.125,1.417 25.023,1.417 C25.006,1.417 24.989,1.434 24.989,1.451 C24.989,1.485 25.006,1.502 25.006,1.553 C25.1322857,2.12128571 25.1852806,3.18794898 25.192207,3.514375 L25.1920703,3.88824219 C25.1874219,4.72775 25.16325,6.289625 25.074,7.435 L25.074,7.503 C25.074,7.877 25.346,8.03 25.652,8.03 Z M31.687,6.483 L26.434,6.483 C26.434,5.888 26.417,5.259 26.417,4.698 L26.4174406,4.13390246 C26.420672,2.9239616 26.4476,2.89464 26.672,2.76 C26.74,2.726 26.791,2.675 26.825,2.641 L31.466,2.641 C31.602,2.641 31.687,2.709 31.687,2.879 C31.704,3.219 31.704,3.678 31.704,4.205 C31.704,4.902 31.704,5.735 31.687,6.483 Z M30.446,16.122 C30.99,16.122 31.194,15.782 31.194,15.51 L31.194,14.779 L34.373,14.779 L34.356,15.408 L34.356,15.425 C34.356,15.799 34.628,15.952 34.934,15.952 C35.223,15.952 35.699,15.782 35.699,15.323 L35.699,15.272 C35.614,14.031 35.563,12.637 35.563,11.702 C35.563,10.733 35.58,10.58 35.903,10.376 C36.107,10.24 36.26,10.121 36.26,9.968 C36.26,9.577 34.951,8.948 34.798,8.948 C34.645,8.948 34.543,9.084 34.237,9.492 C34.169,9.594 34.084,9.611 33.999,9.611 L31.585,9.611 C31.585,9.594 31.568,9.594 31.568,9.594 L31.534,9.594 C31.126,9.322 30.004,8.829 29.817,8.829 C29.8,8.829 29.783,8.846 29.783,8.863 C29.783,8.897 29.8,8.914 29.8,8.965 C29.953,9.679 29.987,10.546 29.987,12.042 C29.987,12.96 29.97,14.184 29.868,15.544 L29.868,15.595 C29.868,15.969 30.14,16.122 30.446,16.122 Z M22.915,16.088 C23.204,16.088 23.714,15.935 23.714,15.493 L23.714,15.476 C23.714,15.272 23.697,15.034 23.697,14.779 L26.706,14.779 L26.706,15.374 C26.706,15.731 26.978,15.884 27.267,15.884 C27.42,15.884 28.015,15.816 28.015,15.289 L28.015,15.238 C27.947,14.269 27.879,12.518 27.879,11.532 C27.879,10.631 27.913,10.614 28.236,10.393 C28.44,10.257 28.576,10.138 28.576,10.002 C28.576,9.543 27.284,8.965 27.148,8.965 C27.012,8.965 26.757,9.254 26.57,9.492 C26.502,9.577 26.434,9.628 26.349,9.628 L24.105,9.628 L24.054,9.594 C23.595,9.271 22.388,8.863 22.337,8.863 C22.32,8.863 22.303,8.88 22.303,8.897 C22.303,8.931 22.32,8.948 22.32,8.999 C22.4462857,9.56728571 22.4992806,10.6486071 22.506207,10.9771272 L22.507,11.651 C22.507,12.637 22.473,14.184 22.354,15.527 L22.354,15.595 C22.354,15.935 22.626,16.088 22.915,16.088 Z M34.373,14.337 L31.177,14.337 C31.1656667,13.861 31.1618889,13.3925556 31.1606296,12.9215926 L31.1604406,11.6160589 C31.163672,10.339552 31.1906,10.3216 31.415,10.172 L31.534,10.07 L34.101,10.07 C34.305,10.07 34.356,10.189 34.356,10.308 C34.39,10.733 34.39,11.345 34.39,12.042 C34.39,12.739 34.39,13.521 34.373,14.337 Z M26.706,14.337 L23.697,14.337 C23.697,13.827 23.68,13.266 23.68,12.722 C23.68,11.94 23.697,11.209 23.714,10.699 C23.731,10.274 23.748,10.325 23.952,10.172 L24.054,10.087 L26.451,10.087 C26.621,10.087 26.706,10.172 26.706,10.325 C26.723,10.665 26.74,11.124 26.74,11.651 C26.74,12.467 26.723,13.436 26.706,14.337 Z M45.116,10.274 C45.643,10.274 45.915,9.917 45.915,9.56 L45.915,9.424 L55.503,9.424 C55.775,9.424 55.86,9.305 55.86,9.203 C55.86,8.88 54.942,8.166 54.398,7.962 C54.364,7.962 54.33,7.945 54.296,7.945 C54.075,7.945 53.548,8.659 53.395,8.863 C53.344,8.948 53.242,8.999 53.14,8.999 L50.182,8.999 C50.182,8.591 50.165,8.115 50.165,7.605 L54.024,7.605 C54.245,7.605 54.313,7.52 54.313,7.435 C54.313,6.925 53.055,6.279 52.851,6.279 C52.698,6.279 52.222,6.772 52.035,7.044 C51.984,7.129 51.882,7.18 51.78,7.18 L50.165,7.18 C50.165,6.738 50.182,6.313 50.182,5.922 L53.973,5.922 C54.228,5.922 54.296,5.82 54.296,5.718 C54.296,5.344 53.123,4.596 52.868,4.596 C52.766,4.596 52.273,5.021 52.035,5.378 C51.984,5.463 51.882,5.514 51.78,5.514 L50.182,5.514 C50.182,5.327 50.199,5.14 50.199,4.987 C50.199,4.817 50.25,4.698 50.369,4.664 C50.59,4.596 50.709,4.494 50.709,4.392 C50.709,4.307 50.607,4.256 50.352,4.171 L55.095,4.171 C55.367,4.171 55.435,4.069 55.435,3.95 C55.435,3.729 54.602,2.913 53.99,2.675 C53.956,2.675 53.922,2.658 53.871,2.658 C53.718,2.658 53.395,3.015 52.987,3.61 C52.936,3.695 52.834,3.746 52.732,3.746 L49.468,3.746 C49.842,3.406 50.233,2.879 50.573,2.488 C50.675,2.369 50.726,2.318 50.896,2.301 C51.253,2.267 51.423,2.148 51.423,2.012 C51.423,1.587 49.383,1.094 49.366,1.094 C49.332,1.094 49.315,1.111 49.315,1.179 L49.315,1.247 C49.332,1.4 49.349,1.604 49.349,1.808 C49.349,2.284 49.077,3.338 48.975,3.746 L46.391,3.746 C46.34,3.712 45.949,3.559 45.864,3.525 L46.544,2.573 C46.663,2.386 46.748,2.335 47.003,2.318 C47.36,2.301 47.547,2.182 47.547,2.046 C47.547,1.689 45.881,1.009 45.643,1.009 C45.592,1.009 45.592,1.06 45.575,1.179 C45.32,2.845 43.178,5.973 41.869,7.231 C41.699,7.384 41.631,7.486 41.631,7.52 C41.631,7.537 41.648,7.554 41.665,7.554 C41.869,7.554 43.178,6.772 44.759,4.919 C44.759,5.15214286 44.7714898,5.38528571 44.7750583,5.50066764 L44.776,5.548 C44.776,6.279 44.691,8.455 44.555,9.611 L44.555,9.713 C44.555,10.104 44.827,10.274 45.116,10.274 Z M49.026,5.514 L45.898,5.514 L45.932,4.732 C45.966,4.324 45.983,4.341 46.136,4.256 L46.289,4.171 L48.941,4.171 C49.026,4.613 49.026,5.106 49.026,5.514 Z M49.026,7.18 L45.881,7.18 L45.881,5.922 L49.026,5.922 L49.026,7.18 Z M49.009,8.999 L45.898,8.999 C45.881,8.574 45.881,8.098 45.881,7.605 L49.026,7.605 L49.0253704,8.10996296 C49.0241111,8.43988889 49.0203333,8.74966667 49.009,8.999 Z M49.23,16.36 C49.604,16.36 50.029,16.122 50.029,15.714 L50.029,15.697 C49.9984,15.1003 49.9678,14.15935 49.961986,13.208761 L49.961,12.892 C49.961,12.484 49.961,12.076 49.978,11.702 C51.389,14.15 54.721,15.765 55.197,15.765 C55.282,15.765 55.367,15.731 55.452,15.646 C55.979,15.153 57.475,14.745 57.475,14.592 C57.475,14.575 57.424,14.558 57.339,14.541 C54.313,14.252 51.627,12.943 50.267,11.549 L56.268,11.549 C56.557,11.549 56.625,11.464 56.625,11.362 C56.625,11.005 55.35,9.968 54.976,9.968 C54.806,9.968 54.415,10.461 54.058,10.988 C54.007,11.073 53.888,11.141 53.786,11.141 L49.995,11.141 C49.995,11.056 50.012,10.971 50.012,10.886 C50.046,10.512 50.165,10.512 50.386,10.393 C50.573,10.291 50.692,10.172 50.692,10.053 C50.692,9.696 48.873,9.543 48.703,9.543 C48.635,9.543 48.618,9.56 48.618,9.594 C48.618,9.611 48.618,9.645 48.635,9.696 C48.72,10.087 48.788,10.665 48.805,11.141 L47.649,11.141 C46.714,11.141 43.79,11.073 42.124,10.869 C42.124,11.09 42.583,11.736 42.889,11.736 L42.906,11.736 C44.368,11.583 46.68,11.549 47.581,11.549 L48.006,11.549 C46.255,13.436 43.637,15.153 41.631,15.85 C41.41,15.918 41.308,16.003 41.308,16.054 C41.308,16.088 41.359,16.105 41.444,16.105 C41.461,16.105 45.422,15.714 48.805,12.382 C48.788,13.402 48.754,14.881 48.669,15.731 L48.669,15.816 C48.669,16.19 48.941,16.36 49.23,16.36 Z" id="作品集" fill="#FFFFFF" fill-rule="nonzero"></path>
    </g>
</svg>