<?xml version="1.0" encoding="UTF-8"?>
<svg width="74px" height="134px" viewBox="0 0 74 134" version="1.1" xmlns="http://www.w3.org/2000/svg" xmlns:xlink="http://www.w3.org/1999/xlink">
    <title>logo-name-white</title>
    <defs>
        <polygon id="path-1" points="0 0.205953684 23.9171895 0.205953684 23.9171895 24.9928379 0 24.9928379"></polygon>
    </defs>
    <g id="Symbols" stroke="none" stroke-width="1" fill="none" fill-rule="evenodd">
        <g id="Group-16">
            <path d="M66.8411621,19.96372 C66.8411621,20.4116147 66.3924884,20.7769411 65.8877305,20.7769411 C65.4670989,20.7769411 65.1025516,20.5526042 65.1025516,19.9909832 L65.1025516,19.9356779 C65.1025516,19.7674253 65.1305937,19.5983937 65.1305937,19.4301411 L59.63512,19.4301411 C59.63512,19.7946884 59.6912042,20.1600147 59.6912042,20.4676989 L59.6912042,20.49652 C59.6912042,21.0565832 59.1303621,21.3377832 58.6536463,21.3377832 C58.2330147,21.3377832 57.8404253,21.1134463 57.8404253,20.6079095 L57.8404253,20.49652 C57.9245516,19.5711305 57.9806358,17.9999937 57.9806358,17.0473411 C57.9806358,15.8695726 57.7843411,15.2246042 57.7562989,15.1124358 C57.7282568,15.0563516 57.7282568,15.0283095 57.7282568,14.9730042 C57.7282568,14.9449621 57.7562989,14.91692 57.8404253,14.91692 C58.1488884,14.91692 60.5044253,15.2526463 60.5044253,15.7293621 C60.5044253,15.8695726 60.3642147,16.0378253 60.1118358,16.1499937 C59.6070779,16.3751095 59.6070779,16.3751095 59.6070779,18.0848989 L59.6070779,18.7579095 L61.5412042,18.7579095 C61.5412042,17.5520989 61.5980674,15.2246042 61.5980674,13.6542463 C60.5605095,13.6542463 59.0462358,13.7111095 57.8123832,13.8785832 L57.7843411,13.8785832 C57.4197937,13.8785832 56.6914779,12.9539726 56.6914779,12.6166884 C58.2330147,12.8698463 60.3353937,12.9539726 61.5692463,12.9820147 L61.5692463,12.8698463 C61.5692463,12.25292 61.5692463,10.8788568 61.4578568,10.0936779 L59.8594568,10.0936779 C59.5221726,10.5703937 57.8404253,12.5052989 57.4197937,12.5052989 C57.3917516,12.5052989 57.3637095,12.5052989 57.3637095,12.4492147 C57.3637095,12.3931305 57.4197937,12.25292 57.5319621,12.0846674 C58.3732253,10.8508147 59.6070779,7.76696211 59.6070779,6.53310947 C59.6070779,6.33681474 59.6070779,6.28073053 59.6912042,6.28073053 C60.0557516,6.28073053 62.1581305,7.15003579 62.1581305,7.57066737 C62.1581305,7.76696211 61.9065305,7.93521474 61.5412042,7.99129895 C61.1774358,8.04660421 61.1205726,8.10268842 60.95232,8.41193053 C60.7848463,8.71961474 60.5605095,9.05612 60.3081305,9.42066737 L64.1210779,9.42066737 C64.1771621,9.42066737 64.3454147,9.36536211 64.4295411,9.22437263 C64.6258358,8.85982526 65.2708042,7.90639368 65.6073095,7.90639368 C66.1401095,7.90639368 67.6263411,9.30849895 67.6263411,9.78599368 C67.6263411,9.95346737 67.5133937,10.0936779 67.1208042,10.0936779 L63.5041516,10.0936779 C63.61632,10.1497621 63.6731832,10.2066253 63.6731832,10.2899726 C63.6731832,10.3740989 63.5882779,10.4862674 63.4200253,10.5992147 C63.3078568,10.65452 63.2237305,10.7106042 63.2237305,11.0471095 C63.2237305,11.5518674 63.1956884,12.2240989 63.1956884,12.9820147 L64.9062568,12.9820147 C64.9623411,12.9820147 65.1305937,12.9259305 65.21472,12.78572 C65.2427621,12.7296358 65.9998989,11.4116568 66.3364042,11.4116568 C66.9245095,11.4116568 68.4395621,12.8129832 68.4395621,13.3465621 C68.4395621,13.5148147 68.3266147,13.6542463 67.9340253,13.6542463 L63.1956884,13.6542463 L63.1956884,18.7579095 L65.1305937,18.7579095 C65.1586358,18.3372779 65.1586358,17.9446884 65.1586358,17.5801411 C65.1586358,16.0378253 64.9903832,15.3087305 64.9342989,15.1412568 C64.9062568,15.0843937 64.9062568,15.0283095 64.9062568,15.0002674 C64.9062568,14.9449621 64.9342989,14.9449621 64.9903832,14.9449621 C65.4390568,14.9449621 67.5982989,15.1973411 67.5982989,15.7293621 C67.5982989,15.8695726 67.4580884,16.0378253 67.2057095,16.1499937 C66.7850779,16.3462884 66.7001726,16.3751095 66.7001726,17.4399305 C66.7001726,18.1129411 66.7570358,19.0383305 66.8411621,19.9076358 L66.8411621,19.96372 Z M51.6438989,15.8415305 C52.1486568,16.0097832 52.6253726,16.1219516 53.0460042,16.1219516 C54.1108253,16.1219516 54.9520884,15.4769832 54.9520884,13.4867726 C54.9520884,12.0005411 54.3632042,10.8508147 53.6348884,9.75717263 C53.2142568,9.14024632 53.0179621,8.77647789 53.0179621,8.24289895 C53.0179621,7.96325684 53.0740463,7.65401474 53.1862147,7.23338316 C53.5219411,5.97226737 54.1669095,3.44847789 54.1669095,3.19687789 C54.1669095,3.08393053 54.1108253,3.02862526 53.9713937,3.02862526 L52.3169095,3.02862526 C51.7841095,3.39317263 51.7280253,3.42121474 51.6999832,4.23365684 C51.6719411,6.14052 51.6438989,9.05612 51.6438989,12.25292 L51.6438989,15.8415305 Z M61.6541516,22.0941411 C61.7102358,22.0941411 61.7655411,22.0941411 61.8784884,22.1221832 C63.0842989,22.4026042 64.1771621,22.6549832 65.1586358,22.6549832 C67.1208042,22.6549832 68.5509516,21.6735095 69.2247411,18.1690253 C69.6165516,16.23412 69.6453726,12.4772568 69.6453726,6.39289895 C69.6453726,6.02757263 69.47712,5.94422526 69.2247411,5.94422526 L59.2986147,5.94422526 C56.9158147,9.19710947 55.2052463,10.3180147 55.1764253,10.3460568 C56.0176884,11.3555726 56.8597305,12.6447305 56.8597305,14.3560779 C56.8597305,17.1595095 54.6163621,18.2531516 53.6068463,18.2811937 C53.3256463,18.2811937 53.1862147,18.1409832 53.1013095,17.9446884 C52.9050147,17.4679726 52.0917937,16.7108358 51.6438989,16.23412 C51.6438989,19.0095095 51.6999832,21.81372 51.7280253,24.1412147 L51.7280253,24.1972989 C51.7280253,24.8422674 51.1110989,25.2909411 50.4380884,25.2909411 C49.9333305,25.2909411 49.4854358,24.9816989 49.4854358,24.2814253 L49.4854358,24.1972989 C49.6536884,20.8883305 49.7089937,15.70132 49.7089937,11.4396989 C49.7089937,4.82332 49.5968253,2.60799368 49.2891411,1.12176211 C49.2610989,1.03763579 49.2610989,0.981551579 49.2610989,0.953509474 C49.2610989,0.896646316 49.2610989,0.868604211 49.3164042,0.868604211 C49.4854358,0.868604211 51.4756463,1.62652 52.2888674,2.18736211 C52.3449516,2.24266737 52.4010358,2.27070947 52.45712,2.29875158 L53.8864884,2.29875158 C53.9994358,2.29875158 54.1388674,2.27070947 54.2237726,2.15932 C54.3920253,1.96302526 54.6997095,1.48553053 54.8687411,1.34609895 C54.9240463,1.28923579 54.9801305,1.26119368 55.0650358,1.26119368 C55.4576253,1.26119368 57.3917516,2.71938316 57.3917516,3.22492 C57.3917516,3.47652 57.1121095,3.64477263 56.71952,3.75694105 C56.5232253,3.81380421 56.2988884,3.86910947 56.0176884,4.28974105 C55.4295832,5.15904632 54.2798568,6.70136211 53.9145305,7.34633053 C53.7182358,7.68205684 53.6348884,7.96325684 53.6348884,8.18759368 C53.6348884,8.60822526 53.8864884,8.94473053 54.30712,9.39340421 C54.5034147,9.61696211 54.7557937,9.84129895 54.9801305,10.12172 L55.1203411,9.92542526 C56.2139832,8.58018316 59.4949095,3.22492 59.7184674,0.308541053 C59.7472884,0.0842042105 59.7184674,7.78947368e-05 59.8033726,7.78947368e-05 C60.1118358,7.78947368e-05 62.8599621,1.23393053 62.8599621,1.82281474 C62.8599621,2.07441474 62.5787621,2.27070947 62.0467411,2.32679368 C61.6261095,2.35561474 61.6261095,2.43896211 61.4298147,2.77624632 C60.9811411,3.53260421 60.4483411,4.34582526 59.8594568,5.18708842 L69.1398358,5.18708842 C69.4210358,5.18708842 69.5324253,5.10296211 69.6165516,4.96275158 C69.6734147,4.87862526 70.2622989,4.09344632 70.4858568,4.09344632 C70.7382358,4.09344632 72.8966989,5.27121474 72.8966989,5.97226737 C72.8966989,6.22386737 72.7004042,6.47702526 72.2525095,6.70136211 C71.6355832,7.00982526 71.6075411,7.06513053 71.6075411,7.79500421 L71.6075411,9.84129895 C71.6075411,12.7296358 71.5514568,16.4023726 71.2149516,18.5055305 C70.5419411,22.6549832 68.4676042,24.7581411 65.6914358,24.9263937 C65.4670989,24.9263937 65.21472,24.8703095 65.1025516,24.6179305 C64.8221305,23.9168779 61.5980674,22.3184779 61.5980674,22.0941411 L61.6541516,22.0941411 Z" id="Fill-1" fill="#FFFFFF"></path>
            <path d="M60.1676084,46.8008716 C58.6260716,46.8008716 55.4292716,46.8569558 52.9335242,47.1093347 L52.9054821,47.1093347 C52.4007242,47.1093347 51.6443663,46.0437347 51.6443663,45.6799663 C54.5038821,46.0156926 58.7101979,46.1005979 60.3085979,46.1005979 L64.2337137,46.1005979 C64.4019663,46.1005979 64.5974821,45.9876505 64.6823874,45.84744 C64.9339874,45.4268084 65.9154611,43.9966611 66.3641347,43.9966611 C66.4202189,43.9966611 66.4770821,43.9966611 66.5323874,44.0254821 C67.4865979,44.3612084 69.1403032,45.9315663 69.1403032,46.4643663 C69.1403032,46.6326189 69.0000926,46.8008716 68.5233768,46.8008716 L60.1676084,46.8008716 Z M60.3919453,51.4558611 C60.5048926,51.5111663 60.5601979,51.5952926 60.5601979,51.6801979 C60.5601979,51.8476716 60.3358611,52.0159242 59.9713137,52.1280926 C59.7189347,52.2122189 59.52264,52.4365558 59.3824295,52.7169768 C58.7101979,53.9508295 57.6445979,55.9698611 56.7752926,57.3431453 C60.2236926,57.0635032 63.5318821,56.6428716 65.8032926,56.2775453 C64.9339874,55.3241137 63.9813347,54.3995032 63.0279032,53.5862821 C62.8596505,53.4460716 62.7474821,53.3339032 62.7474821,53.2778189 C62.7474821,53.2497768 62.7755242,53.2217347 62.8316084,53.2217347 C63.7281768,53.2217347 70.3172926,55.9979032 70.3172926,58.6330821 C70.3172926,59.4463032 69.7852716,60.0624505 69.1403032,60.0624505 C68.6908505,60.0624505 68.1588295,59.7547663 67.7381979,58.9695874 C67.3456084,58.2693137 66.8408505,57.5113979 66.2527453,56.8111242 C62.8876926,57.9320295 56.32584,59.2780505 52.6250611,59.9510611 C52.2044295,60.0351874 52.0081347,60.3997347 51.7277137,60.3997347 C51.1388295,60.3997347 49.6814189,57.7357347 49.6814189,57.4280505 C49.6814189,57.3711874 49.7086821,57.3711874 49.7367242,57.3711874 C49.7935874,57.3711874 49.8496716,57.3711874 49.9610611,57.3992295 C50.8872295,57.5113979 51.7557558,57.5674821 52.3165979,57.5674821 C52.8213558,57.5674821 54.5319242,57.53944 55.7938189,57.4280505 C57.0276716,53.1656505 57.0276716,51.6521558 57.0276716,51.4558611 C54.9805979,51.4839032 51.7557558,51.5672505 49.7935874,51.7635453 L49.7655453,51.7635453 C49.2607874,51.7635453 48.4475663,50.6706821 48.4475663,50.3053558 C51.3070821,50.64264 56.8313768,50.7540295 58.4297768,50.7540295 L67.4297347,50.7540295 C67.6260295,50.7540295 67.8223242,50.64264 67.9064505,50.5016505 C68.4672926,49.5762611 69.3077768,48.5675242 69.5040716,48.5675242 C69.6170189,48.5675242 69.7284084,48.6236084 69.8133137,48.6516505 C70.7659663,48.9881558 72.5326189,50.5857768 72.5326189,51.1185768 C72.5326189,51.2876084 72.3924084,51.4558611 71.9156926,51.4558611 L60.3919453,51.4558611 Z M64.6263032,41.0249768 L64.7096505,43.46464 L64.7096505,43.4926821 C64.7096505,44.1368716 63.9813347,44.4172926 63.4485347,44.4172926 C62.9718189,44.4172926 62.5511874,44.1929558 62.5511874,43.6328926 L62.5511874,43.5479874 C62.6072716,42.6233768 62.6353137,41.7540716 62.6633558,41.0249768 L58.0932716,41.0249768 L58.1485768,43.6328926 L58.1485768,43.6609347 C58.1485768,44.4461137 57.1959242,44.5575032 56.9427663,44.5575032 C56.4668295,44.5575032 56.0181558,44.3059032 56.0181558,43.7723242 L56.0181558,43.6889768 C56.1022821,42.7347663 56.1022821,41.8101558 56.1295453,41.0249768 C54.3636716,41.0530189 51.6724084,41.1371453 49.6253347,41.3326611 L49.5972926,41.3326611 C49.0925347,41.3326611 48.3065768,40.2397979 48.3065768,39.8752505 C50.6628926,40.1556716 54.0832505,40.2958821 56.1295453,40.3247032 L56.1295453,39.5387453 C56.1295453,38.9779032 56.0461979,37.7167874 55.8499032,36.7072716 C55.8218611,36.6231453 55.8218611,36.5662821 55.8218611,36.53824 C55.8218611,36.4268505 55.8779453,36.4268505 55.9901137,36.4268505 C56.5229137,36.4268505 59.2429979,36.7906189 59.2429979,37.4644084 C59.2429979,37.6607032 59.0747453,37.88504 58.5411663,38.1093768 C58.1766189,38.2776295 58.0652295,38.4739242 58.0652295,40.3247032 L62.6913979,40.3247032 L62.6913979,39.5387453 C62.6913979,38.9779032 62.5792295,37.7167874 62.3829347,36.7072716 C62.3548926,36.6231453 62.3548926,36.5662821 62.3548926,36.53824 C62.3548926,36.4268505 62.4390189,36.4268505 62.6353137,36.4268505 C62.9718189,36.4268505 65.7752505,36.7625768 65.7752505,37.4924505 C65.7752505,37.6607032 65.6069979,37.88504 65.10224,38.1093768 C64.6263032,38.3329347 64.6263032,38.9225979 64.6263032,40.3247032 L67.7101558,40.3247032 C67.9064505,40.3247032 68.0747032,40.2117558 68.1588295,40.0715453 C68.2149137,39.9874189 69.3077768,38.1646821 69.8693979,38.1646821 C69.9247032,38.1646821 70.0096084,38.1927242 70.0656926,38.1927242 C71.0471663,38.5292295 72.6736084,40.2397979 72.6736084,40.6884716 C72.6736084,40.8567242 72.5326189,41.0249768 72.0566821,41.0249768 L64.6263032,41.0249768 Z" id="Fill-3" fill="#FFFFFF"></path>
            <path d="M62.4953368,80.4515537 C62.9993158,82.2462484 63.7011474,84.1250695 64.6538,85.8629011 C67.0654211,84.2084168 68.0468947,83.0314274 68.4394842,82.1060379 C68.5228316,81.9377853 68.5228316,81.8536589 68.6077368,81.8536589 C68.8601158,81.8536589 71.0754421,83.5922695 71.0754421,84.3213642 C71.0754421,84.5457011 70.8791474,84.6290484 70.5699053,84.6290484 C70.4016526,84.6290484 70.2341789,84.6010063 70.0659263,84.5737432 C69.9529789,84.5457011 69.8696316,84.5457011 69.7566842,84.5457011 C69.6172526,84.5457011 69.4770421,84.5737432 69.2527053,84.6859116 C68.1590632,85.2179326 66.3363263,86.0311537 64.9903053,86.4517853 C66.785,89.4522905 69.449,92.0033432 73.4302,93.2091537 C73.5704105,93.2371958 73.6264947,93.29328 73.6264947,93.3213221 C73.6264947,93.5176168 71.2717368,93.6578274 70.2894842,94.5271326 C70.1492737,94.6393011 70.0378842,94.6953853 69.8696316,94.6953853 C69.2527053,94.6953853 63.8125368,91.0787326 62.0186211,80.4515537 L60.4482632,80.4515537 C60.9242,80.5645011 61.4016947,80.8161011 61.4016947,80.9563116 C61.4016947,81.1245642 61.1485368,81.2647747 60.7847684,81.3208589 C60.4202211,81.3769432 60.3641368,81.4330274 59.8874211,81.8256168 C59.4107053,82.2182063 58.9339895,82.5827537 58.4292316,82.9192589 C61.3167895,84.1250695 63.1395263,87.9660589 63.1395263,91.3591537 C63.1395263,95.1160168 61.0932316,96.9107116 58.4292316,96.9107116 C58.0654632,96.9107116 57.9805579,96.7697221 57.8403474,96.5461642 C57.1120316,95.4525221 54.9808316,94.35888 54.9808316,94.1906274 C54.9808316,94.1633642 55.0088737,94.1633642 55.0369158,94.1633642 C55.0922211,94.1633642 55.2051684,94.1906274 55.3726421,94.2186695 C56.6633579,94.5551747 57.7009158,94.7514695 58.4860947,94.7514695 C60.1678421,94.7514695 61.2614842,93.9382484 61.2614842,90.7975326 C61.2614842,90.2655116 61.2334421,89.7327116 61.1485368,89.1718695 C61.0932316,89.1718695 61.0371474,89.1991326 60.9530211,89.1991326 C60.5604316,89.2559958 60.5604316,89.3401221 60.2519684,89.6485853 C54.4480316,95.2562274 48.3348526,95.5366484 48.2515053,95.5366484 C48.0552105,95.5366484 47.9422632,95.4805642 47.9422632,95.42448 C47.9422632,95.3676168 48.1954211,95.2281853 48.7835263,95.0599326 C53.2141789,93.8821642 58.1768526,89.5364168 59.0461579,87.7978063 C59.1302842,87.6295537 59.1302842,87.5454274 59.2144105,87.5454274 C59.2144105,87.5454274 59.6350421,87.5454274 61.0091053,88.2745221 C60.8408526,87.4613011 60.5604316,86.6761221 60.2239263,85.9478063 L60.1678421,85.9478063 C59.6911263,86.0311537 59.7752526,85.9197642 59.2144105,86.3403958 C54.8686632,89.5917221 49.6255684,90.8824379 48.5311474,90.8824379 C48.3628947,90.8824379 48.2795474,90.8536168 48.2795474,90.7975326 C48.2795474,90.7141853 48.5591895,90.5739747 49.2049368,90.3496379 C53.1580947,89.0877432 57.4765789,85.7795537 58.2609789,84.5737432 C58.3731474,84.4047116 58.3731474,84.3213642 58.4572737,84.3213642 C58.6535684,84.3213642 59.1030211,84.5176589 59.5789579,84.7973011 C59.1302842,84.1531116 58.6255263,83.6195326 58.0086,83.2269432 C54.1676105,85.7234695 49.8499053,86.8724168 48.6160526,86.8724168 C48.5031053,86.8724168 48.4478,86.8724168 48.4478,86.8163326 C48.4478,86.7610274 48.6721368,86.6200379 49.2610211,86.4237432 C53.7750211,84.9102484 57.9805579,81.2928168 58.4860947,80.4795958 C56.943,80.5076379 55.0922211,80.5925432 53.6067684,80.7319747 L53.5787263,80.7319747 C53.0739684,80.7319747 52.2607474,79.6944168 52.2607474,79.3586905 C54.9239684,79.6944168 59.2704947,79.7793221 60.7567263,79.7793221 L63.7564526,79.7793221 C63.9527474,79.7793221 64.1490421,79.6944168 64.2331684,79.5549853 C64.4582842,79.1904379 65.3828947,77.9846274 65.7474421,77.9846274 C66.2802421,77.9846274 67.2336737,78.7978484 67.3738842,78.9380589 C68.2151474,77.3396589 68.3834,76.6378274 68.3834,76.5825221 C68.3834,76.4703537 68.2984947,76.4142695 68.2151474,76.4142695 L52.7094211,76.4142695 C52.6533368,79.1343537 50.9988526,80.4795958 49.8779474,80.4795958 C49.1761158,80.4795958 48.6721368,79.9756168 48.6721368,79.3586905 C48.6721368,78.9100168 48.9237368,78.4052589 49.5406632,77.9285432 C50.9708105,76.8341221 51.8401158,75.7973432 52.0644526,74.3671958 C52.1205368,74.0867747 52.1766211,73.9185221 52.2327053,73.9185221 C52.3168316,73.9185221 52.6252947,74.7317432 52.6813789,75.7132168 L59.4107053,75.7132168 C59.4107053,75.48888 59.3826632,75.2092379 59.3826632,75.0129432 C59.3546211,74.1148168 59.2704947,72.7415326 59.0742,71.9843958 C59.0461579,71.8994905 59.0181158,71.8161432 59.0181158,71.7881011 C59.0181158,71.7320168 59.0461579,71.7320168 59.1302842,71.7320168 C59.8874211,71.7320168 62.7749789,72.1806905 62.7749789,72.8256589 C62.7749789,72.9939116 62.5786842,73.1902063 62.1580526,73.4145432 C61.6540737,73.6661432 61.6260316,73.6661432 61.5699474,74.3111116 L61.4858211,75.7132168 L68.1871053,75.7132168 C68.3265368,75.7132168 68.5228316,75.6010484 68.6357789,75.48888 C69.2527053,74.8719537 69.4209579,74.7317432 69.6172526,74.7317432 C70.0931895,74.7317432 72.2804737,76.1899326 72.2804737,77.1153221 C72.2804737,77.5079116 71.9720105,77.7883326 71.1307474,77.7883326 C70.0931895,77.7883326 69.1117158,78.4605642 67.7664737,79.3018274 C67.9339474,79.4981221 68.0749368,79.6944168 68.1871053,79.8626695 C68.2151474,79.9475747 68.2712316,80.0309221 68.2712316,80.1430905 C68.2712316,80.3113432 68.1302421,80.4515537 67.7096105,80.4515537 L62.4953368,80.4515537 Z" id="Fill-5" fill="#FFFFFF"></path>
            <g id="Group-9" transform="translate(0.000000, 0.719747)">
                <mask id="mask-2" fill="white">
                    <use xlink:href="#path-1"></use>
                </mask>
                <g id="Clip-8"></g>
                <path d="M22.7674632,3.03820632 C22.6841158,4.13106947 22.6272526,6.45934316 22.6272526,9.20669053 C22.6272526,13.8048168 22.7394211,19.6087537 22.8235474,23.0018484 L22.8235474,23.0298905 C22.8235474,23.7301642 22.0671895,24.2076589 21.3934,24.2076589 C20.8613789,24.2076589 20.3838842,23.8984168 20.3838842,23.1701011 L20.3838842,23.1132379 C20.5240947,19.4965853 20.609,14.0571958 20.609,9.65536421 C20.609,6.20618526 20.5801789,2.22498526 20.2444526,0.458332632 C20.2164105,0.374206316 20.2164105,0.318901053 20.2164105,0.290858947 C20.2164105,0.205953684 20.2444526,0.205953684 20.3005368,0.205953684 C20.5521368,0.205953684 23.9171895,0.738753684 23.9171895,1.43980632 C23.9171895,1.66414316 23.6928526,1.86043789 23.4124316,2.02869053 C22.9076737,2.30911158 22.8235474,2.22498526 22.7674632,3.03820632 M15.0574421,3.71043789 C14.9444947,4.97233263 14.9172316,7.52416421 14.9172316,10.3275958 C14.9172316,14.0571958 14.9725368,18.2354695 15.0574421,20.5341432 L15.0574421,20.5621853 C15.0574421,21.3193221 14.1873579,21.7119116 13.7114211,21.7119116 C13.1778421,21.7119116 12.7299474,21.4034484 12.7299474,20.7023958 L12.7299474,20.6463116 C12.8421158,17.7299326 12.9535053,12.8802063 12.9535053,8.95431158 C12.9535053,4.13106947 12.7860316,2.16890105 12.5897368,1.15938526 C12.5609158,1.07525895 12.5609158,1.01917474 12.5609158,0.991132632 C12.5609158,0.907785263 12.5897368,0.907785263 12.6458211,0.907785263 C12.8701579,0.907785263 16.1783474,1.49666947 16.1783474,2.14085895 C16.1783474,2.33715368 15.9540105,2.53344842 15.6743684,2.70170105 C15.1688316,2.98212211 15.1135263,2.89799579 15.0574421,3.71043789 M8.83209474,1.77631158 C8.83209474,1.94456421 8.66462105,2.14085895 8.30007368,2.33715368 C7.71118947,2.64561684 7.68314737,2.64561684 7.68314737,3.57100632 C7.68314737,5.42178526 7.73923158,7.18765895 7.73923158,8.89744842 C7.73923158,15.8518905 7.03817895,21.3754063 0.981084211,24.6555537 C0.588494737,24.8798905 0.224726316,24.9928379 0.0845157895,24.9928379 C0.0284315789,24.9928379 -0.000389473684,24.9928379 -0.000389473684,24.9359747 C-0.000389473684,24.8518484 0.168642105,24.6555537 0.616536842,24.3190484 C4.48634737,21.4034484 5.57998947,16.9455326 5.57998947,9.34690105 C5.57998947,3.54218526 5.32761053,1.55197474 5.15935789,0.794837895 C5.13131579,0.683448421 5.13131579,0.626585263 5.13131579,0.570501053 C5.13131579,0.515195789 5.15935789,0.487153684 5.21544211,0.487153684 C5.69215789,0.487153684 8.83209474,1.10408 8.83209474,1.77631158" id="Fill-7" fill="#FFFFFF" mask="url(#mask-2)"></path>
            </g>
            <path d="M21.1692968,56.6152968 C21.2253811,53.6989179 21.2534232,50.6984126 21.2534232,48.0071495 C21.2534232,45.2878442 21.2253811,42.9042653 21.1412547,41.2786021 C21.1412547,40.9974021 20.9730021,40.8579705 20.7206232,40.8579705 L6.98154947,40.8579705 C6.92624421,40.9140547 6.81329684,40.96936 6.72994947,41.0254442 C6.30931789,41.2786021 6.30931789,41.5029389 6.30931789,42.1471284 C6.28127579,43.4651074 6.28127579,46.1844126 6.28127579,49.3531705 C6.28127579,51.6526232 6.28127579,54.2036758 6.30931789,56.6152968 L21.1692968,56.6152968 Z M23.6930863,58.5213811 C23.6930863,59.5589389 22.4592337,59.8674021 22.1507705,59.8674021 C21.5899284,59.8674021 21.1132126,59.5869811 21.1132126,58.9139705 L21.1132126,58.8859284 C21.1132126,58.3819495 21.1412547,57.9044547 21.1412547,57.4004758 L6.30931789,57.4004758 C6.30931789,57.9044547 6.33736,58.3531284 6.33736,58.8306232 L6.33736,58.8586653 C6.33736,59.5589389 5.57944421,60.0644758 4.82308632,60.0644758 C4.26224421,60.0644758 3.78552842,59.7552337 3.78552842,59.05496 L3.78552842,58.9420126 C4.00986526,55.6899074 4.09399158,52.2695495 4.09399158,49.0166653 C4.09399158,42.8201389 3.92573895,40.3243916 3.58923368,38.7820758 C3.56119158,38.6987284 3.56119158,38.6426442 3.56119158,38.6146021 C3.56119158,38.5577389 3.58923368,38.5304758 3.64531789,38.5304758 C3.81357053,38.5304758 6.05693895,39.37096 6.95350737,39.9598442 L7.09449684,40.0447495 L20.5243284,40.0447495 C20.6653179,40.0447495 20.8047495,39.9598442 20.9169179,39.8196337 C21.1412547,39.4558653 21.7581811,38.6987284 22.0666442,38.6987284 C22.4031495,38.6987284 24.8981179,40.0727916 24.8981179,40.7730653 C24.8981179,41.0823074 24.5616126,41.3619495 24.0576337,41.5582442 C23.4126653,41.8386653 23.3846232,41.8386653 23.3846232,45.7084758 C23.3846232,49.4653389 23.5528758,54.9888547 23.6930863,58.4933389 L23.6930863,58.5213811 Z" id="Fill-10" fill="#FFFFFF"></path>
            <path d="M22.8519011,75.7695347 C22.8519011,76.4145032 22.4032274,76.9473032 21.7863011,76.9473032 C21.4217537,76.9473032 21.0291642,76.7510084 20.6365747,76.2735137 C20.0765116,75.5451979 19.1783853,74.7319768 18.2537747,74.2552611 C18.0855221,74.1711347 18.0006168,74.1150505 18.0006168,74.0589663 C18.0006168,73.9187558 18.7297116,73.8065874 19.6551011,73.8065874 C21.8704274,73.8065874 22.8519011,74.8161032 22.8519011,75.7695347 M14.3559221,76.0491768 C14.3559221,76.2454716 14.2437537,76.4417663 13.8231221,76.4417663 L9.16891158,76.4417663 C8.35569053,76.4417663 7.00966947,76.5266716 5.41126947,76.7229663 L5.38322737,76.7229663 C4.87924842,76.7229663 4.09406947,75.6565874 4.09406947,75.3208611 C6.44882737,75.6565874 8.41177474,75.7414926 9.30912211,75.7414926 L10.0943011,75.7414926 C10.2345116,75.7414926 10.4588484,75.6285453 10.5421958,75.4891137 C10.7665326,75.1245663 11.6077958,73.8346295 11.9443011,73.8346295 C12.5331853,73.8346295 14.3559221,75.4891137 14.3559221,76.0491768 M4.45861684,95.76044 C4.20623789,95.8165242 4.03798526,96.2091137 3.75756421,96.2091137 C3.19672211,96.2091137 1.76657474,93.6300189 1.76657474,93.4337242 C1.76657474,93.3768611 1.79461684,93.3495979 1.87874316,93.3495979 C1.93482737,93.3495979 1.99091158,93.3768611 2.10308,93.3768611 C2.49566947,93.4056821 2.97238526,93.4337242 3.39301684,93.4337242 C3.92581684,93.4337242 4.40175368,93.4056821 4.68295368,93.3768611 C4.82238526,93.3768611 4.99063789,93.3768611 5.13162737,93.3495979 C5.15889053,91.24644 5.15889053,88.86364 5.15889053,86.8726505 C5.15889053,85.9472611 4.99063789,84.7975347 4.85120632,84.1813874 C4.82238526,84.0964821 4.82238526,84.0403979 4.82238526,84.0123558 C4.82238526,83.9570505 4.85120632,83.9570505 4.93533263,83.9570505 C5.27183789,83.9570505 8.04722737,84.34964 8.04722737,84.9385242 C8.04722737,85.1628611 7.79484842,85.3591558 7.40225895,85.5554505 C7.03771158,85.7509663 7.00966947,85.7797874 7.00966947,93.1252611 L9.50541684,92.7326716 C9.53345895,90.2937874 9.53345895,86.4520189 9.53345895,84.2647347 C9.53345895,83.3401242 9.39324842,82.2176611 9.25303789,81.6007347 C9.22499579,81.5173874 9.22499579,81.4613032 9.22499579,81.4332611 C9.22499579,81.3771768 9.25303789,81.3491347 9.36520632,81.3491347 C9.72975368,81.3491347 12.3929747,81.7417242 12.3929747,82.3306084 C12.3929747,82.5549453 12.1405958,82.7792821 11.7480063,82.9755768 C11.4403221,83.1157874 11.3554168,83.2271768 11.3554168,86.6202716 L12.1405958,86.6202716 C12.2815853,86.6202716 12.3649326,86.5081032 12.4498379,86.3678926 C12.7302589,85.8631347 13.2061958,85.2742505 13.4873958,84.9665663 C13.5427011,84.9097032 13.6268274,84.8816611 13.6829116,84.8816611 C13.7389958,84.8816611 13.79508,84.8816611 13.8231221,84.9097032 C14.6643853,85.3022926 15.7860695,86.4520189 15.7860695,86.9567768 C15.7860695,87.1250295 15.6739011,87.2932821 15.2813116,87.2932821 L11.3554168,87.2932821 C11.3554168,89.0599347 11.3834589,91.0501453 11.3834589,92.3961663 C13.2911011,92.0316189 15.2252274,91.6390295 16.6834168,91.2744821 C16.8516695,91.24644 16.99188,91.2183979 17.1040484,91.2183979 C17.2442589,91.2183979 17.3276063,91.24644 17.3276063,91.3313453 C17.3276063,92.1157453 7.12261684,95.0882084 4.45861684,95.76044 M26.5807221,88.5271347 C26.6087642,88.5271347 26.6368063,88.58244 26.6368063,88.7514716 C26.6368063,89.5919558 26.1881326,92.2839979 26.1881326,93.5731558 C26.1881326,93.8823979 26.2161747,94.1347768 26.2730379,94.2189032 C26.55268,94.6395347 26.6928905,95.0601663 26.6928905,95.3958926 C26.6928905,96.1810716 26.01988,96.6866084 25.0391853,96.6866084 C24.7299432,96.6866084 24.3934379,96.6577874 24.0296695,96.5463979 C17.9445326,94.7789663 16.1786589,87.0409032 15.6178168,81.3491347 L15.5617326,80.5919979 L11.8329116,80.5919979 C10.2905958,80.5919979 5.07554316,80.6480821 2.60783789,80.9004611 L2.57979579,80.9004611 C2.10308,80.9004611 1.34672211,79.7507347 1.34672211,79.3869663 C4.17741684,79.7226926 10.3459011,79.8629032 11.9443011,79.8629032 L15.5056484,79.8629032 C15.39348,78.2925453 15.3373958,76.9192611 15.2813116,75.7695347 C15.2532695,74.9563137 15.1691432,73.0774926 14.9167642,72.0126716 C14.8887221,71.9277663 14.8887221,71.84364 14.8887221,71.8163768 C14.8887221,71.7602926 14.9167642,71.7314716 14.9728484,71.7314716 C15.1411011,71.7314716 18.5061537,72.1521032 18.5061537,72.7978505 C18.5061537,72.9941453 18.2818168,73.2184821 17.9164905,73.44204 C17.3836905,73.7785453 17.3276063,73.8346295 17.3276063,76.9473032 C17.3276063,77.8719137 17.3556484,78.8533874 17.4125116,79.8629032 L21.4778379,79.8629032 C21.6741326,79.8629032 21.8423853,79.7226926 21.9545537,79.5832611 C23.1884063,77.7605242 23.4688274,77.7324821 23.6090379,77.7324821 C23.6651221,77.7324821 23.7204274,77.7324821 23.7765116,77.7605242 C24.7299432,78.1242926 26.3563853,79.7226926 26.3563853,80.1994084 C26.3563853,80.3957032 26.2161747,80.5919979 25.7114168,80.5919979 L17.4685958,80.5919979 C18.3651642,91.7519768 22.7958168,93.6019768 23.4127432,93.6019768 C24.4783432,93.6019768 25.2915642,91.6109874 26.3003011,89.0030716 C26.3283432,88.8916821 26.4965958,88.5271347 26.5807221,88.5271347" id="Fill-12" fill="#FFFFFF"></path>
            <path d="M25.7676568,130.421339 C25.7676568,132.384286 20.6086884,132.412328 19.4870042,132.412328 C16.6555305,132.412328 14.5804147,131.934834 14.5804147,129.439865 L14.5804147,129.327697 C14.6364989,126.579571 14.6925832,125.542013 14.6925832,124.953128 C14.6925832,124.168728 14.6925832,123.075086 14.5243305,122.065571 C14.5243305,121.981444 14.4962884,121.92536 14.4962884,121.869276 C14.4962884,121.813192 14.5243305,121.813192 14.6084568,121.813192 C14.91692,121.813192 17.6370042,122.121655 17.6370042,122.738581 C17.6370042,122.962918 17.3838463,123.159213 17.04812,123.298644 C16.76692,123.411592 16.7388779,123.551802 16.7116147,124.083823 C16.6555305,124.981949 16.5706253,126.636434 16.5706253,128.318181 C16.5706253,130.056792 16.6274884,130.533507 19.4589621,130.533507 C20.2721832,130.533507 21.2256147,130.476644 22.09492,130.308392 C23.4409411,130.056792 23.8047095,127.813423 24.1692568,125.823213 C24.1972989,125.626918 24.2541621,125.542013 24.2822042,125.542013 C24.4784989,125.542013 24.5898884,128.991192 25.1226884,129.383781 C25.5713621,129.720286 25.7676568,130.056792 25.7676568,130.421339 L25.7676568,130.421339 Z M18.1690253,115.252118 C18.1690253,115.055823 18.0288147,114.915613 17.7764358,114.915613 L9.92620421,114.915613 L9.75717263,114.999739 C9.50557263,115.139949 9.42144632,115.167992 9.42144632,116.401844 C9.42144632,116.738349 9.44948842,117.102118 9.44948842,117.467444 L18.1690253,117.467444 L18.1690253,115.252118 Z M21.2256147,114.719318 C21.2256147,114.943655 20.9732358,115.111907 20.6367305,115.308202 C20.1600147,115.588623 20.1039305,115.701571 20.1039305,116.317718 C20.1039305,116.822476 20.2721832,117.551571 20.3002253,118.111634 L20.3002253,118.139676 C20.3002253,118.813465 19.3748358,119.037802 19.0663726,119.037802 C18.5896568,119.037802 18.1690253,118.813465 18.1690253,118.335971 L18.1690253,118.168497 L9.47753053,118.168497 L9.47753053,118.420876 C9.47753053,118.952897 8.74765684,119.234097 8.18759368,119.234097 C7.71087789,119.234097 7.29024632,119.037802 7.29024632,118.589128 L7.29024632,118.47696 C7.43045684,117.467444 7.51458316,116.233592 7.51458316,115.672749 C7.51458316,115.364286 7.45849895,114.103171 7.23416211,113.317213 C7.20612,113.261907 7.20612,113.205044 7.20612,113.177002 C7.20612,113.120918 7.23416211,113.120918 7.26220421,113.120918 C7.62675158,113.120918 9.36458316,113.793928 10.0103305,114.186518 C10.0383726,114.186518 10.0383726,114.21456 10.0664147,114.21456 L17.6081832,114.21456 C17.7203516,114.21456 17.83252,114.186518 17.9446884,114.075128 C18.5896568,113.317213 18.7026042,113.261907 18.9261621,113.261907 C19.1504989,113.261907 21.2256147,114.130434 21.2256147,114.719318 L21.2256147,114.719318 Z M25.1226884,111.943149 C25.1226884,112.112181 25.01052,112.280434 24.5338042,112.280434 L11.3836147,112.280434 C9.84207789,112.280434 6.11325684,112.335739 3.67359368,112.588118 L3.64555158,112.588118 C3.14079368,112.588118 2.35561474,111.495255 2.35561474,111.129928 C5.15904632,111.467213 9.87012,111.579381 11.4965621,111.579381 L12.7023726,111.579381 L12.7023726,111.29896 C12.6735516,110.065107 12.6174674,108.859297 12.4211726,107.989992 C12.3931305,107.878602 12.3650884,107.793697 12.3650884,107.737613 C12.3650884,107.710349 12.3931305,107.682307 12.4492147,107.682307 C12.9539726,107.682307 15.9536989,108.214328 15.9536989,108.775171 C15.9536989,108.943423 15.7574042,109.139718 15.4216779,109.336013 C14.91692,109.644476 14.8047516,109.476223 14.7767095,110.289444 C14.7767095,110.513781 14.7486674,111.102665 14.7486674,111.579381 L20.1880568,111.579381 C20.3563095,111.579381 20.5806463,111.467213 20.6647726,111.326223 C21.8425411,109.560349 22.1502253,109.448181 22.3753411,109.448181 C22.4314253,109.448181 22.4875095,109.448181 22.5428147,109.476223 C23.4970253,109.812728 25.1226884,111.467213 25.1226884,111.943149 L25.1226884,111.943149 Z M25.6843095,121.616897 C25.6843095,122.009486 25.29172,122.289907 24.4216358,122.317949 C23.1597411,122.374034 21.8144989,123.102349 20.5245621,123.719276 C20.4404358,123.776139 20.3282674,123.776139 20.3002253,123.776139 C20.2441411,123.776139 20.2160989,123.776139 20.2160989,123.748097 C20.2160989,123.691234 20.2441411,123.635928 20.3282674,123.551802 C20.4123937,123.439634 21.8986253,121.448644 21.8986253,121.140181 C21.8986253,121.056834 21.8144989,121.028013 21.7295937,121.028013 L5.57967789,121.028013 C5.46750947,123.159213 4.29052,124.58936 3.05666737,124.58936 C2.38287789,124.58936 1.90694105,124.111865 1.90694105,123.494939 C1.90694105,123.075086 2.13127789,122.598371 2.66407789,122.149697 C4.06618316,121.028013 4.65506737,120.32696 4.87940421,118.896813 C4.93548842,118.617171 4.99079368,118.448918 5.04687789,118.448918 C5.21513053,118.448918 5.49633053,119.458434 5.55241474,120.298918 L21.7023305,120.298918 C21.8425411,120.298918 22.0668779,120.214792 22.1790463,120.102623 C22.1790463,120.102623 22.7959726,119.345486 23.1597411,119.345486 C23.6652779,119.345486 25.6843095,120.887802 25.6843095,121.616897 L25.6843095,121.616897 Z M12.8137621,122.794665 C12.8137621,122.962918 12.6735516,123.131171 12.3931305,123.271381 C11.9724989,123.467676 11.8891516,123.467676 11.8603305,124.280118 C11.4396989,132.384286 2.69212,133.140644 0.925467368,133.140644 C0.673088421,133.140644 0.561698947,133.112602 0.561698947,133.08456 C0.561698947,133.001213 0.897425263,132.888265 1.43022526,132.748055 C9.11298316,130.925318 9.78521474,126.327192 9.78521474,123.131171 C9.78521474,122.710539 9.75717263,122.374034 9.70186737,122.065571 L9.70186737,121.953402 C9.70186737,121.897318 9.72990947,121.869276 9.78521474,121.869276 C9.87012,121.869276 12.8137621,122.149697 12.8137621,122.794665 L12.8137621,122.794665 Z" id="Fill-14" fill="#FFFFFF"></path>
        </g>
    </g>
</svg>